<?xml version="1.0" encoding="UTF-8" standalone="no"?>
<!-- Created with Inkscape (http://www.inkscape.org/) -->

<svg
   xmlns:dc="http://purl.org/dc/elements/1.1/"
   xmlns:cc="http://creativecommons.org/ns#"
   xmlns:rdf="http://www.w3.org/1999/02/22-rdf-syntax-ns#"
   xmlns:svg="http://www.w3.org/2000/svg"
   xmlns="http://www.w3.org/2000/svg"
   xmlns:sodipodi="http://sodipodi.sourceforge.net/DTD/sodipodi-0.dtd"
   xmlns:inkscape="http://www.inkscape.org/namespaces/inkscape"
   width="140mm"
   height="140mm"
   viewBox="0 0 140 140"
   version="1.1"
   id="svg8"
   inkscape:version="0.92.2 5c3e80d, 2017-08-06"
   sodipodi:docname="alarm.svg">
  <defs
     id="defs2" />
  <sodipodi:namedview
     id="base"
     pagecolor="#ffffff"
     bordercolor="#666666"
     borderopacity="1.0"
     inkscape:pageopacity="0.0"
     inkscape:pageshadow="2"
     inkscape:zoom="0.7"
     inkscape:cx="67.835497"
     inkscape:cy="546.87188"
     inkscape:document-units="mm"
     inkscape:current-layer="layer1"
     showgrid="false"
     inkscape:window-width="2560"
     inkscape:window-height="1025"
     inkscape:window-x="0"
     inkscape:window-y="0"
     inkscape:window-maximized="1" />
  <metadata
     id="metadata5">
    <rdf:RDF>
      <cc:Work
         rdf:about="">
        <dc:format>image/svg+xml</dc:format>
        <dc:type
           rdf:resource="http://purl.org/dc/dcmitype/StillImage" />
        <dc:title></dc:title>
      </cc:Work>
    </rdf:RDF>
  </metadata>
  <g
     inkscape:label="Layer 1"
     inkscape:groupmode="layer"
     id="layer1"
     transform="translate(0,-157)">
    <path
       style="fill:#000000;stroke-width:0.26458332"
       d="m 24.455061,288.45583 c -2.52781,-0.89622 -3.81101,-3.24715 -3.24826,-5.95106 0.24287,-1.16692 0.62972,-1.63556 4.92634,-5.96781 3.52285,-3.55208 4.59922,-4.7888 4.40277,-5.05873 -0.14301,-0.1965 -0.95539,-1.17647 -1.80529,-2.17772 -3.40813,-4.01504 -6.9926,-10.22778 -8.91193,-15.44649 -4.15989,-11.31087 -4.25429,-24.68906 -0.25484,-36.11563 1.28536,-3.67231 3.70668,-8.45454 6.0394,-11.92815 8.27437,-12.32116 20.99066,-20.50109 35.59609,-22.89767 l 3.60467,-0.59149 v -5.24394 -5.24395 h -3.0512 c -4.10006,0 -5.39854,-0.5395 -6.50195,-2.70144 -1.25686,-2.46261 -0.27942,-5.43367 2.19293,-6.66569 l 1.37871,-0.68704 h 11.0086 11.0086 l 1.31019,0.6529 c 2.51907,1.2553 3.52268,4.22865 2.26144,6.69983 -1.10341,2.16194 -2.40188,2.70144 -6.50194,2.70144 h -3.05121 v 5.24395 5.24394 l 3.60467,0.59149 c 23.595609,3.87176 41.490609,22.73365 44.309319,46.70344 0.39709,3.37675 0.16712,11.6855 -0.40951,14.79569 -1.81062,9.76599 -6.19151,19.06421 -12.11172,25.70653 l -1.33748,1.50062 4.77663,4.80978 c 4.09618,4.12462 4.82103,4.9769 5.08839,5.983 0.73535,2.76723 -1.16138,5.7609 -3.94832,6.23175 -2.26749,0.38309 -2.92445,-0.0409 -8.23084,-5.31203 -2.69701,-2.67909 -4.98562,-4.87107 -5.0858,-4.87107 -0.10019,0 -1.28682,0.72747 -2.636969,1.6166 -7.29295,4.8027 -15.96785,7.71415 -25.27514,8.48278 -10.99457,0.90797 -23.26651,-2.23196 -32.58439,-8.33712 l -2.60214,-1.70494 -4.46637,4.47611 c -5.55201,5.5641 -6.9451,6.36563 -9.49345,5.46212 z m 53.51738,-13.14829 c 7.60634,-1.66492 14.21237,-5.13342 19.73944,-10.36423 14.607109,-13.82413 16.958599,-35.74354 5.631779,-52.49658 -2.27073,-3.35853 -7.520099,-8.55479 -10.902119,-10.79181 -4.46335,-2.95225 -9.0135,-4.8791 -14.36001,-6.08103 -2.19843,-0.49423 -3.36893,-0.57594 -8.25043,-0.57594 -6.1544,0 -8.27486,0.30347 -12.88065,1.8434 -8.53268,2.85287 -16.53598,9.14502 -21.565,16.95427 -2.41144,3.74457 -4.83565,10.07149 -5.66717,14.79069 -0.63633,3.61142 -0.63301,10.17964 0.007,13.75833 3.06723,17.15206 16.66594,30.52388 33.89829,33.33269 3.3841,0.5516 11.04098,0.35427 14.34892,-0.36979 z m -14.55749,-28.0893 c -0.72355,-0.42142 -1.32279,-1.79345 -1.12988,-2.58699 0.0935,-0.38451 1.07565,-1.61481 2.18261,-2.734 l 2.01265,-2.03491 -2.9366,-3.12447 c -1.61513,-1.71846 -4.67936,-4.85088 -6.8094,-6.96093 -3.99724,-3.95973 -4.63032,-4.77465 -4.63032,-5.96034 0,-1.08017 1.32011,-2.24015 2.55934,-2.24889 0.97961,-0.007 1.24628,0.23189 8.19908,7.34219 l 7.18654,7.34933 0.74272,-0.66146 c 0.4085,-0.3638 5.54508,-5.36443 11.41463,-11.1125 5.86955,-5.74807 10.99295,-10.59717 11.38532,-10.77577 1.98809,-0.90492 4.1472,1.35903 3.13,3.28198 -0.21731,0.4108 -5.46361,5.68196 -11.65845,11.71369 -6.19484,6.03172 -11.26334,11.06175 -11.26334,11.17784 0,0.1161 0.82491,1.07951 1.83315,2.14092 2.0584,2.16696 2.37908,2.91885 1.75751,4.12083 -0.50444,0.97548 -1.14839,1.35926 -2.28074,1.35926 -0.69146,0 -1.2145,-0.36296 -2.93308,-2.03538 l -2.09155,-2.03539 -1.2515,1.19238 c -2.47561,2.35865 -3.21937,2.87872 -4.10498,2.87034 -0.46788,-0.004 -1.05905,-0.1294 -1.31371,-0.27773 z M 8.9066109,206.54438 c -2.32717,-2.36161 -2.99268,-3.2256 -3.82121,-4.96094 -0.99571,-2.08549 -1.00326,-2.12617 -1.00326,-5.40859 0,-3.2081 0.0273,-3.3668 0.91042,-5.29166 0.85372,-1.86081 1.38094,-2.45886 8.4666601,-9.60412 4.15594,-4.19085 8.10165,-7.97057 8.76824,-8.39936 2.77516,-1.78516 6.5013,-2.4594 9.58613,-1.7346 3.08724,0.72537 4.56696,1.6071 7.52621,4.48472 l 2.71392,2.63905 -2.41987,1.29791 c -11.26409,6.04156 -20.6982,15.77338 -26.55196,27.38983 -0.67831,1.34607 -1.26119,2.4474 -1.2953,2.4474 -0.0341,0 -1.3301,-1.28684 -2.8799801,-2.85964 z M 126.20021,206.27542 c -5.63867,-11.05989 -15.21365,-20.83113 -26.17255,-26.709 l -2.407879,-1.29148 2.575969,-2.51817 c 3.935,-3.8467 6.1139,-4.85722 10.38118,-4.81453 2.80024,0.028 4.74718,0.57853 6.85781,1.93915 0.66659,0.42972 4.56316,4.1499 8.65903,8.26707 7.79352,7.83404 8.43691,8.64843 9.25839,11.7191 0.45667,1.70704 0.45299,4.91955 -0.008,6.64941 -0.6638,2.49297 -1.89192,4.35143 -4.77284,7.22255 l -2.74179,2.73246 -1.6297,-3.19656 z"
       id="path848"
       inkscape:connector-curvature="0" />
  </g>
</svg>
