<?xml version="1.0" standalone="no"?><!DOCTYPE svg PUBLIC "-//W3C//DTD SVG 1.1//EN" "http://www.w3.org/Graphics/SVG/1.1/DTD/svg11.dtd"><svg t="1607781708343" class="icon" viewBox="0 0 1024 1024" version="1.1" xmlns="http://www.w3.org/2000/svg" p-id="3148" xmlns:xlink="http://www.w3.org/1999/xlink" width="200" height="200"><defs><style type="text/css"></style></defs><path d="M198.8 569.8l268 276.2c11.6 12 27.4 18 44.8 18h0.8c17.4 0 33.2-6 44.8-18l268-276.2c25-24 25-62.6 0-86.4-25-23.8-65.4-23.8-90.4 0l-158.8 166v-428c0-33.8-28.6-61.2-64-61.2-36 0-64 27.4-64 61.2v428l-158.8-166c-25-23.8-65.4-23.8-90.4 0s-25 62.4 0 86.4z" p-id="3149"></path></svg>
