<?xml version="1.0" encoding="UTF-8" standalone="no"?>
<!-- Created with Inkscape (http://www.inkscape.org/) -->

<svg
   xmlns:dc="http://purl.org/dc/elements/1.1/"
   xmlns:cc="http://creativecommons.org/ns#"
   xmlns:rdf="http://www.w3.org/1999/02/22-rdf-syntax-ns#"
   xmlns:svg="http://www.w3.org/2000/svg"
   xmlns="http://www.w3.org/2000/svg"
   xmlns:sodipodi="http://sodipodi.sourceforge.net/DTD/sodipodi-0.dtd"
   xmlns:inkscape="http://www.inkscape.org/namespaces/inkscape"
   width="124mm"
   height="124mm"
   viewBox="0 0 124 124"
   version="1.1"
   id="svg8"
   inkscape:version="0.92.4 5da689c313, 2019-01-14"
   sodipodi:docname="autolock.svg">
  <defs
     id="defs2" />
  <sodipodi:namedview
     id="base"
     pagecolor="#ffffff"
     bordercolor="#666666"
     borderopacity="1.0"
     inkscape:pageopacity="0.0"
     inkscape:pageshadow="2"
     inkscape:zoom="0.7"
     inkscape:cx="311.83034"
     inkscape:cy="441.69336"
     inkscape:document-units="mm"
     inkscape:current-layer="layer1"
     showgrid="false"
     inkscape:window-width="2560"
     inkscape:window-height="1025"
     inkscape:window-x="0"
     inkscape:window-y="0"
     inkscape:window-maximized="1" />
  <metadata
     id="metadata5">
    <rdf:RDF>
      <cc:Work
         rdf:about="">
        <dc:format>image/svg+xml</dc:format>
        <dc:type
           rdf:resource="http://purl.org/dc/dcmitype/StillImage" />
        <dc:title></dc:title>
      </cc:Work>
    </rdf:RDF>
  </metadata>
  <g
     inkscape:label="Layer 1"
     inkscape:groupmode="layer"
     id="layer1"
     transform="translate(0,-173)">
    <path
       style="fill:#000000;stroke-width:0.26458335"
       d="M 51.25357,286.62175 C 43.935277,286.22323 37.181996,284.38828 30.551681,280.99679 15.363691,273.22794 5.2073742,259.2558 2.2632042,242.08005 c -0.631771,-3.68563 -0.631771,-12.71853 0,-16.40416 2.970027,-17.32659 13.3276968,-31.47054 28.6487868,-39.12146 16.861491,-8.42016 36.797667,-7.30203 52.488455,2.94385 12.741967,8.32033 21.008044,21.10678 23.497064,36.34663 l 0.44774,2.74139 7.9151,0.13229 7.9151,0.1323 -8.66923,9.92187 c -4.76808,5.45703 -8.87494,10.13621 -9.12635,10.39817 -0.43667,0.45499 -0.86173,0.0141 -9.498487,-9.85171 -4.972737,-5.6804 -9.041347,-10.38934 -9.041347,-10.46431 0,-0.075 3.39328,-0.13632 7.54062,-0.13632 h 7.540634 v -0.76515 c 0,-1.35097 -1.05106,-6.06147 -1.996512,-8.94764 -4.882132,-14.90384 -17.021752,-26.61914 -32.13475,-31.01153 -7.203622,-2.09364 -15.271932,-2.42593 -22.700041,-0.93488 -18.69215,3.75208 -33.574741,18.7187 -37.3792461,37.59029 -0.808732,4.01158 -1.007473,11.76989 -0.405915,15.84589 2.3698937,16.05782 12.1434661,29.37242 26.7182781,36.3985 11.143181,5.37179 23.628668,6.18843 35.486716,2.3211 3.363751,-1.09704 9.868088,-4.39728 12.824838,-6.5072 2.981938,-2.12789 8.295348,-7.32241 10.422048,-10.18884 l 1.52135,-2.05052 h 1.30807 1.308077 v 2.59435 2.59435 l -1.510907,1.83742 c -8.33487,10.13612 -20.68937,17.05687 -33.466782,18.74744 -3.75993,0.49747 -6.62508,0.59947 -10.662944,0.37958 z M 33.394195,244.4613 v -15.74271 h 2.619777 2.619777 l 0.117227,-6.81302 c 0.129817,-7.54485 0.24112,-8.18694 2.003716,-11.55921 1.861081,-3.5607 5.770861,-6.61892 9.83742,-7.69481 1.934165,-0.51173 5.994191,-0.49751 8.031601,0.0281 4.968894,1.28193 9.162378,5.17975 10.94236,10.17086 0.682154,1.91279 0.708644,2.20452 0.81021,8.92275 l 0.105,6.94531 h 2.623124 2.623121 V 244.46128 260.204 H 54.560862 33.394195 Z m 31.700115,-22.55573 -0.08241,-6.81302 -0.739582,-1.50606 c -1.146085,-2.33385 -2.827377,-4.02038 -5.154414,-5.17047 -1.905764,-0.94187 -2.154322,-0.99638 -4.543324,-0.99638 -2.278033,0 -2.698099,0.081 -4.259588,0.8209 -2.989556,1.41668 -4.776602,3.39259 -5.790597,6.40259 -0.491286,1.45836 -0.54687,2.25616 -0.54687,7.84941 v 6.22605 H 54.57712 65.176712 Z"
       id="path4529"
       inkscape:connector-curvature="0" />
  </g>
</svg>
