<?xml version="1.0" encoding="UTF-8" standalone="no"?>
<!-- Created with Inkscape (http://www.inkscape.org/) -->

<svg
   xmlns:dc="http://purl.org/dc/elements/1.1/"
   xmlns:cc="http://creativecommons.org/ns#"
   xmlns:rdf="http://www.w3.org/1999/02/22-rdf-syntax-ns#"
   xmlns:svg="http://www.w3.org/2000/svg"
   xmlns="http://www.w3.org/2000/svg"
   xmlns:sodipodi="http://sodipodi.sourceforge.net/DTD/sodipodi-0.dtd"
   xmlns:inkscape="http://www.inkscape.org/namespaces/inkscape"
   width="154mm"
   height="154mm"
   viewBox="0 0 154 154"
   version="1.1"
   id="svg8"
   inkscape:version="0.92.2 5c3e80d, 2017-08-06"
   sodipodi:docname="barter.svg">
  <defs
     id="defs2" />
  <sodipodi:namedview
     id="base"
     pagecolor="#ffffff"
     bordercolor="#666666"
     borderopacity="1.0"
     inkscape:pageopacity="0.0"
     inkscape:pageshadow="2"
     inkscape:zoom="0.7"
     inkscape:cx="183.81529"
     inkscape:cy="590.06844"
     inkscape:document-units="mm"
     inkscape:current-layer="layer1"
     showgrid="false"
     inkscape:measure-start="580,728.571"
     inkscape:measure-end="578.571,575.714"
     inkscape:window-width="2560"
     inkscape:window-height="1025"
     inkscape:window-x="0"
     inkscape:window-y="0"
     inkscape:window-maximized="1" />
  <metadata
     id="metadata5">
    <rdf:RDF>
      <cc:Work
         rdf:about="">
        <dc:format>image/svg+xml</dc:format>
        <dc:type
           rdf:resource="http://purl.org/dc/dcmitype/StillImage" />
        <dc:title></dc:title>
      </cc:Work>
    </rdf:RDF>
  </metadata>
  <g
     inkscape:label="Layer 1"
     inkscape:groupmode="layer"
     id="layer1"
     transform="translate(0,-143)">
    <path
       style="fill:#000000;stroke-width:0.26458332"
       d="m 20.683223,287.87807 c -0.81713,-0.28221 -1.84642,-0.91343 -2.4491,-1.50193 -2.04982,-2.0016 -1.94316,-1.05567 -3.01311,-26.72337 -0.84411,-20.24972 -1.01236,-23.0709 -1.40905,-23.62683 -2.58076,-3.61664 -2.77539,-4.38432 -2.72469,-10.74693 0.11915,-14.95277 3.13943,-31.68643 6.92941,-38.3919 2.85831,-5.05712 9.22615,-7.02385 14.60551,-4.51097 2.49705,1.16646 4.22852,2.901 5.45466,5.46434 0.93253,1.94953 0.94922,2.04245 0.95004,5.29167 8e-4,3.12084 0.0439,3.39243 0.76526,4.81756 3.01127,5.94937 9.2749,7.23489 19.73911,4.05117 3.62774,-1.10374 5.16456,-1.17005 7.02616,-0.30319 4.31626,2.00988 5.30079,7.59558 1.93682,10.98844 -1.11943,1.12904 -2.25024,1.63341 -6.21029,2.76991 -4.70242,1.34955 -7.88679,1.83052 -12.27769,1.8544 -5.51219,0.03 -9.98919,-1.12542 -13.73041,-3.54349 -1.30816,-0.8455 -1.61632,-0.95713 -1.62013,-0.58685 -0.003,0.25149 -0.12356,1.52882 -0.26885,2.8385 -0.14528,1.30969 -0.36808,5.06015 -0.49512,8.33437 -0.15716,4.05074 -0.37339,6.5027 -0.67662,7.67291 -0.32811,1.26623 -0.84826,8.24412 -1.97224,26.45834 l -1.5266,24.73854 -0.69383,1.36229 c -0.85497,1.6787 -2.28344,2.89532 -4.0012,3.40781 -1.69277,0.50502 -2.61395,0.48065 -4.33804,-0.11479 z m 107.639697,0.0975 c -1.66019,-0.5155 -3.01601,-1.72928 -3.86112,-3.45661 l -0.71974,-1.47111 -1.53279,-24.78338 c -1.13442,-18.34221 -1.64668,-25.19598 -1.971,-26.37089 -0.30385,-1.10077 -0.50913,-3.45329 -0.66952,-7.67291 -0.12723,-3.34697 -0.3506,-7.15697 -0.49638,-8.46666 -0.14578,-1.30969 -0.26717,-2.52748 -0.26975,-2.70621 -0.003,-0.18022 -0.72423,0.1401 -1.62013,0.71914 -1.92802,1.24614 -4.87553,2.41294 -7.77728,3.07872 -2.69693,0.61878 -8.68764,0.62396 -12.324899,0.0107 -2.76595,-0.46638 -8.41507,-2.01904 -10.13925,-2.78677 -0.59607,-0.26541 -1.4857,-0.88796 -1.97696,-1.38343 -3.38645,-3.41554 -2.40183,-8.96241 1.95153,-10.99396 1.85664,-0.86643 3.39525,-0.79731 7.01145,0.31498 7.821189,2.40568 13.728089,2.20721 17.023629,-0.57198 0.97461,-0.82191 2.87747,-3.52285 3.23997,-4.59886 0.12256,-0.3638 0.22707,-2.09021 0.23223,-3.83646 0.009,-3.08937 0.035,-3.22852 0.95858,-5.15938 3.36765,-7.04031 12.35319,-8.79874 17.99496,-3.52152 1.50445,1.40723 2.28603,2.66946 3.42265,5.52746 3.19299,8.02868 5.45711,22.43676 5.58875,35.56489 0.0601,5.98907 -0.39628,7.89272 -2.45996,10.26181 -0.41638,0.478 -0.75706,1.0787 -0.75706,1.33488 0,2.30266 -1.88638,45.34663 -2.01374,45.95018 -0.48032,2.2761 -2.39509,4.34753 -4.6331,5.01215 -1.66647,0.49489 -2.62034,0.49608 -4.20107,0.005 z M 77.522923,265.62796 c -0.44499,-0.445 -0.52917,-0.88195 -0.52917,-2.74694 v -2.21778 l -2.30917,-0.71996 c -2.77143,-0.86409 -5.95966,-2.42835 -8.19086,-4.01873 -2.04186,-1.45542 -5.22504,-4.83195 -6.38588,-6.77376 -1.91132,-3.19719 -2.85061,-7.29784 -2.55846,-11.16949 0.24462,-3.24187 0.74768,-4.07848 2.46229,-4.09493 1.30529,-0.0125 1.71258,0.31517 2.85018,2.29308 0.56927,0.98975 1.75894,2.53448 2.64371,3.43274 2.06076,2.09213 3.52141,2.58716 7.09465,2.40442 1.32504,-0.0678 2.73659,-0.25686 3.13677,-0.42021 l 0.72761,-0.29701 v -2.77858 c 0,-2.65704 0.0284,-2.79715 0.6485,-3.20349 0.35668,-0.2337 0.86269,-0.35543 1.124478,-0.27051 0.61957,0.20098 13.29836,13.4543 13.90358,14.53362 0.25466,0.45415 0.46302,1.36523 0.46302,2.02461 0,0.65938 -0.20836,1.58049 -0.46302,2.04691 -0.25466,0.46642 -2.96616,3.14346 -6.02554,5.949 -7.9933,7.33006 -7.57973,7.03997 -8.592688,6.02701 z m 11.316868,-75.42411 c -0.2514,-0.1465 -0.92954,-1.07531 -1.50697,-2.06401 -1.31461,-2.25093 -3.23631,-4.40788 -4.50272,-5.05396 -1.70105,-0.86781 -3.98782,-1.20162 -6.018328,-0.87853 -0.99132,0.15774 -2.12246,0.41241 -2.51364,0.56594 l -0.71125,0.27915 0.15431,2.38188 c 0.127,1.9602 0.0762,2.50114 -0.28703,3.05548 -0.98147,1.49791 -1.36787,1.21671 -8.36859,-6.09018 -3.56419,-3.72006 -6.76234,-7.28808 -7.10699,-7.92892 -0.77605,-1.44296 -0.62078,-3.14103 0.39791,-4.35167 0.5623,-0.66826 7.17799,-6.85341 11.55589,-10.80384 2.24066,-2.02188 3.34629,-1.24881 3.35331,2.34467 l 0.004,1.99752 2.01328,0.59232 c 6.668648,1.96195 12.653828,6.67139 15.435568,12.14551 1.28608,2.53082 1.86574,5.23937 1.86574,8.71796 0,3.23485 -0.3399,4.58246 -1.28313,5.08725 -0.66342,0.35506 -1.87498,0.35673 -2.48125,0.003 z M 33.866683,178.03338 c -7.30217,-0.96324 -12.29286,-8.34673 -10.44279,-15.44961 2.47516,-9.50278 14.16899,-12.79605 21.03973,-5.92531 4.04516,4.04516 4.90062,10.24188 2.0949,15.17473 -2.49772,4.39132 -7.58065,6.87442 -12.69184,6.20019 z m 82.285397,0 c -2.84065,-0.37471 -5.17732,-1.53756 -7.22791,-3.59699 -3.96213,-3.97919 -4.76855,-9.80781 -2.08481,-15.06839 0.71487,-1.40125 3.11104,-3.81316 4.63382,-4.66426 6.42105,-3.5888 14.35166,-1.22185 17.54325,5.2359 4.50032,9.10577 -2.83098,19.41727 -12.86435,18.09374 z"
       id="path826"
       inkscape:connector-curvature="0" />
  </g>
</svg>
