<?xml version="1.0" encoding="UTF-8" standalone="no"?>
<!-- Created with Inkscape (http://www.inkscape.org/) -->

<svg
   xmlns:dc="http://purl.org/dc/elements/1.1/"
   xmlns:cc="http://creativecommons.org/ns#"
   xmlns:rdf="http://www.w3.org/1999/02/22-rdf-syntax-ns#"
   xmlns:svg="http://www.w3.org/2000/svg"
   xmlns="http://www.w3.org/2000/svg"
   xmlns:sodipodi="http://sodipodi.sourceforge.net/DTD/sodipodi-0.dtd"
   xmlns:inkscape="http://www.inkscape.org/namespaces/inkscape"
   width="85mm"
   height="85mm"
   viewBox="0 0 85 85"
   version="1.1"
   id="svg8"
   inkscape:version="0.92.2 5c3e80d, 2017-08-06"
   sodipodi:docname="borrow.svg">
  <defs
     id="defs2" />
  <sodipodi:namedview
     id="base"
     pagecolor="#ffffff"
     bordercolor="#666666"
     borderopacity="1.0"
     inkscape:pageopacity="0.0"
     inkscape:pageshadow="2"
     inkscape:zoom="0.49497475"
     inkscape:cx="-91.562609"
     inkscape:cy="10.331174"
     inkscape:document-units="mm"
     inkscape:current-layer="layer1"
     showgrid="false"
     inkscape:window-width="1920"
     inkscape:window-height="1055"
     inkscape:window-x="2560"
     inkscape:window-y="80"
     inkscape:window-maximized="1" />
  <metadata
     id="metadata5">
    <rdf:RDF>
      <cc:Work
         rdf:about="">
        <dc:format>image/svg+xml</dc:format>
        <dc:type
           rdf:resource="http://purl.org/dc/dcmitype/StillImage" />
        <dc:title></dc:title>
      </cc:Work>
    </rdf:RDF>
  </metadata>
  <g
     inkscape:label="Layer 1"
     inkscape:groupmode="layer"
     id="layer1"
     transform="translate(0,-212)">
    <path
       style="fill:#000000;stroke-width:0.38653421"
       d="m 23.684672,289.9409 c -5.107514,-0.83556 -7.675889,-1.42524 -8.213853,-1.88585 -0.74695,-0.63956 -0.782708,-1.10907 -0.782708,-10.27741 0,-8.99778 0.04729,-9.65002 0.745473,-10.28187 0.960922,-0.86962 8.916921,-2.90284 11.430355,-2.92112 3.005205,-0.0218 17.264314,2.4187 17.484542,2.9926 0.314326,0.81913 -1.838114,3.23747 -3.527385,3.96316 -0.873435,0.37521 -3.027218,0.89828 -4.786186,1.16235 -5.430128,0.81525 -7.773578,3.30241 -5.173224,5.49046 0.993749,0.83619 1.797098,0.98919 8.407118,1.60123 l 7.308378,0.67668 5.218211,-2.16305 c 4.619267,-1.91476 5.484411,-2.42495 7.537417,-4.44487 2.38884,-2.35032 3.733067,-3.10123 5.533276,-3.09096 2.370568,0.0131 2.351001,0.38998 -0.284942,5.48177 -1.354013,2.61551 -2.827892,5.1613 -3.275284,5.65729 -1.350331,1.49705 -10.944732,7.37182 -12.702106,7.77765 -1.842314,0.42546 -14.220261,1.58709 -16.203463,1.52067 -0.706463,-0.0237 -4.62849,-0.5901 -8.715619,-1.25873 z M 7.3439626,277.71395 v -10.43642 h 2.3192051 2.3192053 v 10.43642 10.43642 H 9.6631677 7.3439626 Z M 46.767837,263.01307 c -0.767324,-3.69643 -1.143338,-6.3244 -0.931815,-6.51251 0.561922,-0.49973 12.250614,-2.80447 12.534988,-2.47162 0.301898,0.35338 2.831931,12.48049 2.63941,12.65141 -0.221848,0.19693 -11.534911,2.52985 -12.268104,2.52985 -0.577591,0 -0.894546,-0.9948 -1.974479,-6.19713 z m -14.296833,-3.46162 c -0.85165,-1.69384 -1.548456,-3.22269 -1.548456,-3.39745 0,-0.36965 6.090181,-3.40769 6.324163,-3.15474 0.08638,0.0933 0.85899,1.57298 1.716909,3.28801 l 1.559855,3.11825 -3.252007,1.61283 -3.252008,1.61283 z M 29.086512,246.7578 c -1.753899,-1.2858 -3.188908,-2.5142 -3.188908,-2.72975 0,-0.21558 1.062526,-1.85437 2.36117,-3.64179 1.534725,-2.11236 2.523678,-3.14987 2.825461,-2.96422 1.779561,1.09476 6.392604,4.59685 6.400145,4.85882 0.01227,0.42564 -4.649094,6.83169 -4.964133,6.82216 -0.134653,-0.004 -1.679836,-1.05943 -3.433735,-2.34522 z m 18.740541,1.02509 c -4.20223,-0.7152 -7.898461,-1.39941 -8.213851,-1.52043 -0.894035,-0.34308 -0.682026,-1.25334 0.643545,-2.76308 1.681639,-1.91529 2.73728,-2.37508 7.13753,-3.10886 3.684363,-0.61438 3.887119,-0.70106 5.657353,-2.41857 1.877076,-1.82118 2.22781,-2.7435 1.327435,-3.49073 -0.27973,-0.23217 -2.259357,-1.03151 -4.399176,-1.77633 -2.857895,-0.99477 -4.954414,-1.44302 -7.898516,-1.68876 -3.994092,-0.3334 -4.021487,-0.32976 -7.926895,1.05255 l -3.918954,1.38711 -3.038661,4.23877 c -3.299393,4.60249 -5.710671,6.77744 -7.513855,6.77744 -0.621256,0 -1.129554,-0.20111 -1.129554,-0.44692 0,-0.24581 0.998714,-3.49742 2.219364,-7.2258 l 2.219363,-6.77885 6.187755,-4.05343 6.187756,-4.05343 8.087304,-0.75965 8.087304,-0.75966 8.917636,2.08562 c 5.737768,1.34192 9.159759,2.32683 9.596636,2.76205 0.611214,0.60891 0.678997,1.63371 0.678997,10.26592 0,7.15814 -0.124864,9.76024 -0.492476,10.26297 -0.632308,0.86473 -8.426792,2.88667 -12.069886,3.131 -1.97791,0.13266 -4.760972,-0.16832 -10.346154,-1.11893 z M 73.441308,235.58173 V 225.1453 h 2.319206 2.319206 v 10.43643 10.43642 h -2.319206 -2.319206 z"
       id="path826"
       inkscape:connector-curvature="0" />
  </g>
</svg>
