<?xml version="1.0" encoding="UTF-8" standalone="no"?>
<!-- Created with Inkscape (http://www.inkscape.org/) -->

<svg
   xmlns:dc="http://purl.org/dc/elements/1.1/"
   xmlns:cc="http://creativecommons.org/ns#"
   xmlns:rdf="http://www.w3.org/1999/02/22-rdf-syntax-ns#"
   xmlns:svg="http://www.w3.org/2000/svg"
   xmlns="http://www.w3.org/2000/svg"
   xmlns:sodipodi="http://sodipodi.sourceforge.net/DTD/sodipodi-0.dtd"
   xmlns:inkscape="http://www.inkscape.org/namespaces/inkscape"
   width="210mm"
   height="210mm"
   viewBox="0 0 210 210"
   version="1.1"
   id="svg8"
   inkscape:version="0.92.2 5c3e80d, 2017-08-06"
   sodipodi:docname="borrow.svg">
  <defs
     id="defs2">
    <linearGradient
       gradientUnits="userSpaceOnUse"
       gradientTransform="matrix(0.78148328,0,0,1.2796179,904.71904,-1936.9488)"
       x1="699.64471"
       y1="83.421288"
       x2="699.64471"
       y2="720.01819"
       id="linearGradient-1">
      <stop
         stop-color="#00A9E0"
         offset="0%"
         id="stop4595" />
      <stop
         stop-color="#00587C"
         offset="100%"
         id="stop4597" />
    </linearGradient>
  </defs>
  <sodipodi:namedview
     id="base"
     pagecolor="#ffffff"
     bordercolor="#666666"
     borderopacity="1.0"
     inkscape:pageopacity="0.0"
     inkscape:pageshadow="2"
     inkscape:zoom="0.7"
     inkscape:cx="532.75157"
     inkscape:cy="422.18594"
     inkscape:document-units="mm"
     inkscape:current-layer="layer1"
     showgrid="false"
     inkscape:measure-start="500,300.714"
     inkscape:measure-end="471.429,300.357"
     inkscape:window-width="1920"
     inkscape:window-height="1055"
     inkscape:window-x="2560"
     inkscape:window-y="80"
     inkscape:window-maximized="1" />
  <metadata
     id="metadata5">
    <rdf:RDF>
      <cc:Work
         rdf:about="">
        <dc:format>image/svg+xml</dc:format>
        <dc:type
           rdf:resource="http://purl.org/dc/dcmitype/StillImage" />
        <dc:title />
      </cc:Work>
    </rdf:RDF>
  </metadata>
  <g
     inkscape:label="Layer 1"
     inkscape:groupmode="layer"
     id="layer1"
     transform="translate(0,-87)">
    <path
       style="fill:#000000;fill-opacity:1;fill-rule:evenodd;stroke:none;stroke-width:0.31263942;stroke-opacity:1"
       d="M 309.81445 27.933594 C 292.19924 27.929695 271.4292 27.954741 247.28711 28.005859 C 109.52546 28.297488 109.16222 28.302227 106.49609 30.292969 C 100.04342 35.11105 99.877126 35.749518 99.347656 57.648438 L 98.863281 77.667969 L 85.794922 78.152344 C 75.094176 78.548703 72.23592 78.96979 70.015625 80.474609 C 64.614725 84.135157 64.057444 86.508062 63.529297 108.16211 L 63.044922 128.00586 L 54.333984 128.49023 C 47.50595 128.86959 44.850456 129.45418 42.056641 131.19141 C 35.115133 135.50782 35.362791 132.05319 35.667969 219.9707 L 35.941406 298.38281 L 38.09375 301.40039 C 42.022524 306.90822 44.533607 307.86185 56.732422 308.47266 L 67.886719 309.03125 L 67.886719 318.71094 L 67.886719 328.39258 L 46.996094 328.875 L 26.105469 329.35938 L 22.626953 332.01367 C 16.204724 336.9147 16.095703 337.53906 16.095703 369.2168 C 16.095703 397.54829 16.102921 397.65809 18.416016 401.32227 C 20.8105 405.11536 23.964905 407.67818 27.269531 408.51758 L 27.269531 408.52148 C 28.312187 408.7865 64.993229 409.05325 108.78516 409.11523 C 182.9541 409.21985 188.4082 409.11657 188.4082 407.5918 C 188.4082 406.69151 187.32572 402.4432 186.00391 398.15234 C 184.6821 393.86148 182.91101 387.8488 182.06641 384.79102 L 180.5293 379.23242 L 113.07617 378.98438 L 45.621094 378.73633 L 45.621094 369.05469 L 45.621094 359.375 L 111.20703 359.12695 C 147.2788 358.99029 176.7861 358.77222 176.7793 358.64258 C 176.77298 358.51317 176.1251 356.01041 175.33984 353.08203 C 174.55458 350.15373 173.62815 343.76348 173.2793 338.88086 C 172.71232 330.94582 172.42751 329.94468 170.60352 329.45508 C 169.48117 329.15374 152.55293 328.90209 132.98633 328.89453 L 97.412109 328.87891 L 97.412109 318.77539 L 97.412109 308.67188 L 136.05469 308.36914 C 157.30792 308.20288 175.01435 307.74795 175.40234 307.35938 C 175.79034 306.97076 176.44372 303.26789 176.85547 299.13086 C 177.26721 294.99386 178.0661 289.01717 178.63086 285.84766 C 179.42024 281.41752 179.3826 279.90623 178.4668 279.3125 C 177.81159 278.88783 152.2887 278.56364 121.75 278.59766 C 91.211304 278.6294 66.081393 278.51326 65.90625 278.33789 C 65.731099 278.16271 65.499841 273.67098 65.392578 268.35742 L 65.199219 258.69727 L 125.07617 258.21289 L 184.95508 257.72852 L 186.60352 253.37305 C 187.51051 250.97717 189.98507 244.6602 192.10156 239.33594 C 194.21805 234.01172 195.75173 229.32899 195.50977 228.92969 C 195.26783 228.53023 165.90861 228.20312 130.26758 228.20312 L 65.466797 228.20312 L 65.466797 218.03906 L 65.466797 207.875 L 136.375 207.84375 L 207.28516 207.81445 L 212.125 199.92969 C 216.60232 192.63709 218.69595 189.62097 224.28711 182.41016 C 225.44285 180.91955 226.20105 179.51344 225.97266 179.28516 C 225.74428 179.0568 189.646 178.7518 145.75391 178.60742 L 65.949219 178.3457 L 65.675781 167.9375 L 65.400391 157.53125 L 155.58594 157.53125 L 245.77148 157.53125 L 252.24414 151.42383 C 255.80485 148.06481 260.43289 144.03667 262.52734 142.4707 C 264.62183 140.90481 266.9262 139.06308 267.64844 138.37891 C 268.37064 137.6947 271.63725 135.29882 274.9082 133.05469 L 280.85547 128.97461 L 187.49414 128.72852 C 114.279 128.53493 93.967365 128.2205 93.367188 127.27539 C 92.119868 125.31117 92.421617 109.66628 93.732422 108.35547 C 94.622588 107.4652 121.16118 107.19336 207.28711 107.19336 L 319.67969 107.19336 L 330.27734 103.32812 C 346.58871 97.378771 372.13624 91.374927 385.88867 90.257812 C 389.88186 89.933453 394.3464 89.437069 395.81055 89.15625 L 398.47266 88.646484 L 398.47266 62.806641 L 398.47266 36.966797 L 395.51758 33.382812 C 393.76006 31.250641 391.11297 29.375577 388.98438 28.755859 C 387.10758 28.2107 362.6601 27.94529 309.81445 27.933594 z M 129.8418 57.339844 L 249.39453 57.339844 L 368.94727 57.339844 L 368.94727 67.503906 L 368.94727 77.667969 L 249.60742 77.914062 C 151.07541 78.117023 130.18102 77.935245 129.77344 76.873047 C 129.50188 76.165482 129.40623 71.481045 129.56055 66.462891 L 129.8418 57.339844 z M 412.66016 118.03711 L 412.66016 118.08203 C 408.01921 118.11367 403.39212 118.3093 398.79297 118.66992 C 390.55541 119.31584 381.56035 120.30483 378.80273 120.86719 C 357.74507 125.1616 345.0861 128.9678 330.22656 135.47656 C 273.15928 160.47319 229.41252 210.8104 212.6582 270.75586 C 210.03235 280.15093 209.28706 283.71937 206.79102 298.86719 C 205.32884 307.74069 204.68171 336.50457 205.74609 345.33203 C 208.20808 365.75063 208.98209 370.55645 211.11719 378.73047 C 213.67916 388.53883 217.59046 400.7263 219.9043 406.11133 C 227.24157 423.18742 238.35565 442.56459 246.82617 453.04492 C 246.99305 453.2514 247.1279 453.41128 247.29297 453.61523 C 251.85935 459.68653 256.75372 465.49342 261.9375 471.02344 C 270.72875 480.83826 277.58662 486.86957 288.29688 494.9375 C 290.74501 496.78166 293.63235 498.79374 296.76172 500.86133 C 302.90325 505.051 309.2794 508.91711 315.86523 512.44141 C 323.86107 516.92085 331.18305 520.56669 335.11133 521.76562 C 335.58792 521.91109 337.27056 522.4744 339.33398 523.17383 C 350.12596 527.31746 361.34469 530.59314 372.91016 532.90039 C 378.30318 534.00664 383.79089 534.92326 389.27734 535.61914 C 390.84022 535.8174 393.05698 535.97713 395.51172 536.11719 C 401.63817 536.65041 407.83555 536.93273 414.10156 536.92188 C 418.9219 536.91351 423.70319 536.73985 428.44141 536.4082 C 428.46836 536.40705 428.48879 536.40546 428.51562 536.4043 C 428.52602 536.40357 428.53648 536.40308 428.54688 536.40234 C 431.26834 536.28387 433.33251 536.11701 434.36914 535.90234 C 446.64199 534.69119 458.60423 532.41882 470.1582 529.16406 L 470.28711 498.8457 C 459.09112 502.56543 447.40461 505.20065 435.35352 506.64062 C 434.50733 506.45529 429.23733 506.71662 423.1582 507.25586 C 413.62359 508.1016 408.8527 507.99617 396.53711 506.66797 C 388.28455 505.77797 380.00807 504.63468 378.14453 504.12891 C 376.28107 503.62313 371.05297 502.26935 366.52734 501.12109 C 334.15087 492.90685 301.37246 471.94014 278.03711 445.24219 C 270.76644 436.76251 264.26213 427.59956 258.64258 417.85352 C 258.61256 417.80145 258.58271 417.74937 258.55273 417.69727 C 243.63505 391.76556 234.95792 361.74694 234.5625 329.71094 C 234.56121 329.40527 234.55989 329.18915 234.55859 328.875 C 234.46593 306.34803 234.93405 302.35346 240.0625 281.90625 C 244.05859 265.97369 257.3391 236.08774 263.53125 229.0918 C 264.27522 228.25123 264.88281 227.2464 264.88281 226.85938 C 264.88281 226.47231 268.22972 221.933 272.32031 216.77148 C 288.41289 196.46605 308.00107 180.12813 329.99023 168.41016 L 330.8457 139.91016 L 352.24609 158.43555 C 362.60788 154.61921 373.37077 151.74835 384.4375 149.87695 C 409.43197 145.65035 430.05541 146.67883 460.42773 153.66797 C 477.32835 157.5571 502.98451 170.07296 520.28125 182.86719 C 534.17763 193.14622 550.77283 210.13771 560.30469 223.84375 C 564.84893 230.37799 573.97777 246.11925 576.16211 251.18945 C 576.74448 252.54124 577.41518 253.63671 578.06055 254.36133 C 587.74744 276.33717 593.21299 300.62376 593.38867 326.19336 L 593.39453 327.43945 C 593.39459 343.04788 591.42454 358.19463 587.7207 372.64062 C 597.70591 371.35454 608.9099 371.40354 617.5 372.05859 C 620.60036 357.69186 622.23243 342.77687 622.23242 327.47852 L 622.22852 326.03125 C 622.0281 296.87894 615.8996 269.16115 605.01172 244.01367 C 604.53496 242.8596 603.95102 241.54142 603.25977 240.05859 C 602.85001 239.17961 602.4541 238.3219 601.98633 237.36133 C 599.12724 231.34467 595.99062 225.48861 592.59375 219.80664 C 591.50611 217.95172 590.45057 216.19705 589.50195 214.73828 C 589.27116 214.38337 589.0336 214.03318 588.80078 213.67969 C 551.43725 155.79483 486.41767 117.65254 412.66016 118.03711 z M 336.09961 151.74023 L 336.09961 240.01953 L 398.3418 303.80078 C 401.20452 301.86117 404.44209 300.45514 407.92383 299.73242 L 407.92383 217.05273 L 336.09961 151.74023 z M 418.91016 247.80078 L 418.91016 299.30273 C 422.42531 300.02678 425.69378 301.43288 428.58398 303.37109 L 464.54102 266.94727 C 452.14273 256.03834 436.31171 249.02981 418.91016 247.80078 z M 335.94727 255.98633 L 335.94727 321.89453 L 386.47656 321.89453 C 387.18239 318.31951 388.55687 314.9941 390.45117 312.05469 L 335.94727 255.98633 z M 472.37891 275.37109 L 436.6543 312.0293 C 438.55532 314.97601 439.93422 318.31063 440.64258 321.89453 L 491.1582 321.89453 C 489.95095 304.1526 483.07852 288.01187 472.37891 275.37109 z M 336.52148 332.66406 C 337.72875 350.40717 344.60112 366.54725 355.30078 379.1875 L 391.02539 342.5293 C 389.12436 339.5827 387.74543 336.24781 387.03711 332.66406 L 336.52148 332.66406 z M 440.64258 332.66406 C 439.93422 336.24781 438.55532 339.58264 436.6543 342.52734 L 472.37891 379.1875 C 483.07852 366.54725 489.95095 350.40717 491.1582 332.66406 L 440.64258 332.66406 z M 399.0957 350.32422 L 363.13867 386.75 C 375.53691 397.65927 391.36798 404.66547 408.76953 405.89453 L 408.76953 354.39062 C 405.25442 353.66654 401.98591 352.26251 399.0957 350.32422 z M 428.58398 350.32422 C 425.69378 352.26251 422.42531 353.66654 418.91016 354.39062 L 418.91016 405.89453 C 436.31171 404.66547 452.14273 397.65745 464.54102 386.75 L 428.58398 350.32422 z M 605.72656 401.45312 C 598.04798 401.43859 590.41002 401.92921 585.56641 402.92969 C 557.28647 408.77106 535.44522 423.06055 519.22266 446.33594 C 510.92867 458.23586 507.79256 464.60571 504.12109 477.01367 C 502.78201 481.53928 501.34859 486.33107 500.93359 487.66211 C 500.51856 488.99318 499.94066 507.72392 499.65039 529.28711 L 499.12305 568.49414 L 489.92578 569.14844 C 484.8636 569.44437 479.20529 570.20241 477.3418 570.69141 C 464.07717 574.17201 453.21088 586.12961 450.21484 600.54492 C 448.56708 608.47305 449.35897 728.33388 451.08398 732.09375 C 455.20012 741.0654 456.55926 743.34414 459.4707 746.16602 C 461.23563 747.87667 465.21621 750.71857 468.31641 752.48047 L 473.95312 755.68359 L 606.76172 755.74609 L 739.57031 755.81055 L 745.63867 751.21094 C 749.99167 747.91232 752.72853 744.83416 755.32227 740.32031 L 758.9375 734.0293 L 758.99023 663.65625 L 759.04297 593.28125 L 755.63867 587.47266 C 748.44185 575.1932 736.22903 568.97656 719.30469 568.97656 L 712.57617 568.97656 L 712.55664 535.33789 C 712.5461 516.83616 712.10411 498.64883 711.57422 494.92188 C 708.02184 469.93587 698.3962 450.29525 681.14258 432.83398 C 665.6594 417.16455 647.61417 407.3818 626.12695 403.00586 C 621.12275 401.98679 613.40515 401.46766 605.72656 401.45312 z M 605.39258 432.05273 C 608.02438 432.03755 610.53577 432.18526 612.86719 432.50195 C 641.70585 436.41955 663.00254 451.61689 674.32227 476.35938 C 680.3389 489.50994 680.63086 492.11929 680.63086 532.49609 L 680.63086 568.97656 L 605.66406 568.97656 C 564.43259 568.97656 530.56518 568.65126 530.40039 568.25195 C 530.23579 567.85265 530.34765 550.53602 530.65039 529.77148 L 531.20117 492.01758 L 534.29688 482.9707 C 537.99129 472.17373 538.31168 471.54287 543.66406 464.55664 C 553.95976 451.11811 567.76668 440.43775 580.08594 436.38281 C 588.52111 433.60639 597.49718 432.09829 605.39258 432.05273 z M 605.57422 613.64648 C 606.40023 613.65642 607.24626 613.6995 608.11328 613.77734 C 614.4051 614.34219 618.257 616.13045 623.62109 620.97656 C 630.03049 626.76706 631.58103 631.41722 631.62109 644.96875 C 631.65953 657.92879 630.37608 662.31317 624.625 668.86328 L 621.58008 672.33008 L 621.58008 686.8457 C 621.58008 702.91867 620.84734 705.97338 615.85156 710.73438 C 613.39067 713.07965 611.89645 713.6311 607.30273 713.89453 C 601.28739 714.23941 597.09225 712.85313 594.14062 709.54102 C 590.67828 705.65577 589.72195 700.67633 589.67773 686.32422 L 589.63477 672.50195 L 585.7832 667.62891 C 580.78478 661.30538 579.51735 656.70148 579.66211 645.39453 C 579.84912 630.8054 582.22161 624.90336 590.41211 618.65625 C 594.96554 615.18328 599.79214 613.57694 605.57422 613.64648 z "
       transform="matrix(0.26458333,0,0,0.26458333,0,87)"
       id="Fill-1" />
  </g>
</svg>
