<?xml version="1.0" encoding="UTF-8" standalone="no"?>
<!-- Created with Inkscape (http://www.inkscape.org/) -->

<svg
   xmlns:dc="http://purl.org/dc/elements/1.1/"
   xmlns:cc="http://creativecommons.org/ns#"
   xmlns:rdf="http://www.w3.org/1999/02/22-rdf-syntax-ns#"
   xmlns:svg="http://www.w3.org/2000/svg"
   xmlns="http://www.w3.org/2000/svg"
   xmlns:sodipodi="http://sodipodi.sourceforge.net/DTD/sodipodi-0.dtd"
   xmlns:inkscape="http://www.inkscape.org/namespaces/inkscape"
   width="210mm"
   height="210mm"
   viewBox="0 0 210 210"
   version="1.1"
   id="svg8"
   inkscape:version="0.92.2 5c3e80d, 2017-08-06"
   sodipodi:docname="borrow.svg">
  <defs
     id="defs2">
    <linearGradient
       gradientUnits="userSpaceOnUse"
       gradientTransform="matrix(0.78148328,0,0,1.2796179,904.71904,-1936.9488)"
       x1="699.64471"
       y1="83.421288"
       x2="699.64471"
       y2="720.01819"
       id="linearGradient-1">
      <stop
         stop-color="#00A9E0"
         offset="0%"
         id="stop4595" />
      <stop
         stop-color="#00587C"
         offset="100%"
         id="stop4597" />
    </linearGradient>
  </defs>
  <sodipodi:namedview
     id="base"
     pagecolor="#ffffff"
     bordercolor="#666666"
     borderopacity="1.0"
     inkscape:pageopacity="0.0"
     inkscape:pageshadow="2"
     inkscape:zoom="0.7"
     inkscape:cx="466.14867"
     inkscape:cy="398.49601"
     inkscape:document-units="mm"
     inkscape:current-layer="layer1"
     showgrid="false"
     inkscape:measure-start="0,0"
     inkscape:measure-end="0,0"
     inkscape:window-width="1920"
     inkscape:window-height="1055"
     inkscape:window-x="2560"
     inkscape:window-y="80"
     inkscape:window-maximized="1" />
  <metadata
     id="metadata5">
    <rdf:RDF>
      <cc:Work
         rdf:about="">
        <dc:format>image/svg+xml</dc:format>
        <dc:type
           rdf:resource="http://purl.org/dc/dcmitype/StillImage" />
        <dc:title></dc:title>
      </cc:Work>
    </rdf:RDF>
  </metadata>
  <g
     inkscape:label="Layer 1"
     inkscape:groupmode="layer"
     id="layer1"
     transform="translate(0,-87)">
    <path
       inkscape:connector-curvature="0"
       d="m 89.037897,192.47981 c 0.319422,4.69453 2.137661,8.96489 4.968613,12.30929 l 9.45206,-9.69902 c -0.50298,-0.77962 -0.86769,-1.66207 -1.0551,-2.61027 z m 16.555973,4.67297 -9.513321,9.63729 c 3.280368,2.88641 7.468971,4.74028 12.073131,5.06547 v -13.62698 c -0.93004,-0.19158 -1.79511,-0.56294 -2.55981,-1.07578 z m 7.80253,0 c -0.7647,0.51284 -1.62976,0.8842 -2.55981,1.07578 v 13.62698 c 4.60416,-0.32519 8.79275,-2.17954 12.07313,-5.06547 z m 3.1904,-4.67297 c -0.18742,0.9482 -0.55213,1.83065 -1.05511,2.60977 l 9.45208,9.69952 c 2.83094,-3.3444 4.64918,-7.61476 4.9686,-12.30929 z m 0,-2.84937 h 13.36557 c -0.31942,-4.69422 -2.13766,-8.96476 -4.9686,-12.3093 l -9.45208,9.69942 c 0.50298,0.77965 0.86769,1.66164 1.05511,2.60988 z m -3.1904,-4.90092 9.51332,-9.63697 c -3.28038,-2.88632 -7.46897,-4.74062 -12.07313,-5.0658 v 13.62653 c 0.93005,0.19157 1.79511,0.56342 2.55981,1.07624 z M 88.926108,167.96756 105.3946,184.84349 c 0.75743,-0.51319 1.61429,-0.88531 2.5355,-1.07653 V 161.89132 L 88.926108,144.61033 Z m 14.380612,19.05948 c -0.5012,0.77772 -0.86462,1.65751 -1.05137,2.6034 H 88.886046 v -17.43817 z m 24.83548,84.25016 c -0.82026,-0.46617 -1.87345,-1.21791 -2.34042,-1.67052 -0.77032,-0.74662 -1.12983,-1.34993 -2.21889,-3.72368 -0.45641,-0.9948 -0.666,-32.70752 -0.23003,-34.80517 0.7927,-3.81405 3.66756,-6.97802 7.17716,-7.89893 0.49305,-0.12938 1.9914,-0.31316 3.32967,-0.40842 l 2.43322,-0.1732 0.13961,-10.3732 c 0.0768,-5.70526 0.22943,-10.66135 0.33924,-11.01353 0.1098,-0.35217 0.48953,-1.62001 0.84383,-2.81741 0.97141,-3.28294 1.801,-4.96826 3.99545,-8.11678 4.29222,-6.15828 10.07081,-9.93907 17.55321,-11.4846 2.56308,-0.52942 8.08401,-0.51896 10.73207,0.0203 5.68516,1.1578 10.45931,3.74636 14.5559,7.89223 4.56502,4.61996 7.11208,9.81632 8.05198,16.4272 0.1402,0.98609 0.25719,5.79811 0.25998,10.69336 l 0.005,8.90049 h 1.7803 c 4.4779,0 7.70899,1.64486 9.61315,4.8938 l 0.90072,1.53685 -0.0139,18.61963 -0.0139,18.61962 -0.95666,1.66484 c -0.68626,1.19429 -1.41042,2.00869 -2.56215,2.88145 l -1.6055,1.21661 -35.13887,-0.0167 -35.13886,-0.0166 z m 39.03544,-11.04539 c 1.3218,-1.25968 1.51553,-2.06765 1.51553,-6.32029 v -3.84086 l 0.80536,-0.91725 c 1.52164,-1.73305 1.86127,-2.89296 1.8511,-6.32197 -0.0106,-3.58551 -0.42089,-4.81584 -2.11671,-6.34791 -1.41925,-1.2822 -2.43833,-1.75529 -4.10304,-1.90474 -1.8352,-0.16476 -3.30629,0.24075 -4.68316,1.29091 -2.16707,1.65288 -2.79479,3.21413 -2.84427,7.07417 -0.0383,2.99163 0.29704,4.21001 1.61954,5.88311 l 1.01894,1.28904 0.0112,3.65737 c 0.0117,3.79733 0.26493,5.11457 1.18101,6.14254 0.78095,0.87633 1.89079,1.2436 3.48235,1.15235 1.21542,-0.0697 1.61099,-0.21595 2.2621,-0.83647 z m 17.13937,-47.15895 c 0,-10.68303 -0.0775,-11.3731 -1.6694,-14.85252 -2.99501,-6.54645 -8.62937,-10.56755 -16.2596,-11.60408 -2.46742,-0.33517 -5.69786,0.0472 -8.6736,1.02666 -3.25947,1.07287 -6.91253,3.89863 -9.6366,7.45424 -1.41615,1.84844 -1.50113,2.0155 -2.47861,4.8722 l -0.81906,2.39377 -0.14555,9.98901 c -0.0801,5.49395 -0.10995,10.07546 -0.0664,10.18111 0.0436,0.10565 9.00483,0.1921 19.91399,0.1921 h 19.83484 z m -81.32081,33.10566 c -3.776588,-0.47901 -7.558088,-1.34577 -10.883664,-2.49466 -1.621,-0.56002 -3.172424,-1.08692 -3.447609,-1.17091 -2.303493,-0.70304 -8.962742,-4.51921 -12.386281,-7.09813 -4.231265,-3.18737 -6.185264,-5.16129 -10.972374,-11.08422 -2.24116,-2.77292 -5.182053,-7.89955 -7.123372,-12.4176 -0.612203,-1.42479 -1.647096,-4.64959 -2.324951,-7.24472 -0.564911,-2.16271 -0.769307,-3.43401 -1.420708,-8.83643 -0.281619,-2.3356 -0.110582,-9.94638 0.276286,-12.29416 0.660412,-4.00786 0.857395,-4.95175 1.552151,-7.43753 4.432912,-15.86057 16.007635,-29.17891 31.106686,-35.7926 3.931585,-1.72211 7.280849,-2.72951 12.852356,-3.86574 0.72962,-0.14879 3.10981,-0.41035 5.28933,-0.58125 9.68166,-0.75914 19.82424,1.25879 28.66246,5.70255 8.64817,4.34821 16.30891,11.27779 21.79594,19.71566 1.59888,2.45874 4.21157,7.56713 4.43078,8.66316 0.139,0.69501 0.10785,0.71714 -1.23087,0.87448 -0.75541,0.0888 -2.28317,0.39409 -3.39503,0.67846 -1.11185,0.28436 -2.21145,0.51702 -2.44355,0.51702 -0.25215,0 -0.61074,-0.43812 -0.89095,-1.08854 -0.57794,-1.34149 -2.99309,-5.50679 -4.19542,-7.23564 -2.52197,-3.62639 -6.91305,-8.12182 -10.5898,-10.84148 -4.57643,-3.38514 -11.36434,-6.69663 -15.83596,-7.72563 -8.03601,-1.84921 -13.49296,-2.12149 -20.10608,-1.0032 -2.928073,0.49514 -5.77538,1.25502 -8.516936,2.26476 l -5.66244,-4.9016 -0.226417,7.5404 c -5.817967,3.10038 -11.000435,7.42307 -15.258263,12.79555 -1.082303,1.36565 -1.967832,2.56678 -1.967832,2.66919 0,0.1024 -0.161053,0.36816 -0.357895,0.59056 -1.638339,1.85101 -5.15203,9.75849 -6.209328,13.97398 -1.356902,5.40999 -1.480784,6.46716 -1.456268,12.42742 0.02454,5.96599 0.03786,6.07402 1.404956,11.39772 0.551172,2.14635 1.116082,4.00079 1.482435,4.86644 0.119238,0.28174 0.469781,1.14617 0.778984,1.92096 0.866555,2.17138 2.936269,5.95972 4.595585,8.41166 6.103493,9.01894 16.455593,16.38898 26.655025,18.97668 1.197406,0.30381 2.580504,0.66186 3.073544,0.79568 0.49306,0.13382 2.68296,0.43599 4.86645,0.67147 3.2585,0.35142 4.52083,0.37929 7.04353,0.15552 1.69045,-0.14995 3.15999,-0.2199 3.26564,-0.15545 0.34829,0.21248 0.22837,7.46204 -0.12705,7.68171 -0.54553,0.33715 -9.39928,0.32139 -12.10309,-0.0216 z M 7.2148105,212.5495 c -0.8743491,-0.22209 -1.708525,-0.90016 -2.3420656,-1.90375 -0.6120064,-0.96948 -0.6140878,-0.99827 -0.6140878,-8.49431 0,-8.3814 0.029022,-8.54668 1.7282369,-9.84341 l 0.9202814,-0.7023 5.5271786,-0.12806 5.527179,-0.12807 v -2.56128 -2.56129 l -2.950845,-0.14775 c -3.227603,-0.16161 -3.892245,-0.41376 -4.931733,-1.87104 l -0.5696636,-0.79862 -0.072013,-20.74641 c -0.080745,-23.26151 -0.1465046,-22.34754 1.6901026,-23.48959 0.739197,-0.45964 1.441769,-0.61418 3.248353,-0.71455 l 2.305157,-0.12807 0.128064,-5.25063 c 0.139739,-5.7293 0.286788,-6.35714 1.715776,-7.32566 0.587453,-0.39815 1.343941,-0.50946 4.17518,-0.61433 l 3.457735,-0.12806 0.128064,-5.29679 c 0.140089,-5.79411 0.184198,-5.96289 1.891469,-7.23768 0.705413,-0.52672 0.801436,-0.52828 37.250873,-0.60544 25.550376,-0.0541 36.828518,0.006 37.490608,0.19832 0.56319,0.16397 1.26386,0.66013 1.72887,1.22427 l 0.78189,0.94858 v 6.83676 6.83675 l -0.70435,0.135 c -0.38739,0.0743 -1.56878,0.2052 -2.62531,0.29102 -3.638664,0.29557 -10.398116,1.88437 -14.713832,3.45847 l -2.803858,1.02266 H 54.844793 c -22.787486,0 -29.809106,0.0718 -30.044629,0.30735 -0.346817,0.34682 -0.42704,4.48633 -0.09702,5.00603 0.158797,0.25006 5.53307,0.33297 24.904577,0.38419 l 24.702083,0.0653 -1.573538,1.07958 c -0.865441,0.59376 -1.729876,1.22768 -1.920959,1.40871 -0.191092,0.18102 -0.800844,0.66812 -1.355011,1.08243 -0.554157,0.41433 -1.778385,1.48046 -2.720489,2.3692 l -1.712922,1.61588 H 41.165386 17.303881 l 0.0727,2.75338 0.0727,2.75338 21.114762,0.0695 c 11.613117,0.0382 21.164202,0.11898 21.224627,0.1794 0.06043,0.0604 -0.140325,0.43254 -0.446116,0.82693 -1.479327,1.90786 -2.033244,2.70576 -3.217867,4.63526 l -1.280642,2.08588 -18.761414,0.008 -18.761414,0.008 v 2.68934 2.68936 h 17.145494 c 9.430023,0 17.19787,0.0864 17.261882,0.19209 0.06402,0.10565 -0.341786,1.34468 -0.901773,2.75338 -0.559989,1.40871 -1.214505,3.07995 -1.454481,3.71386 l -0.43632,1.15259 -15.842805,0.12806 -15.842801,0.12806 0.0516,2.55614 c 0.02838,1.40588 0.08952,2.59405 0.135862,2.6404 0.04634,0.0464 6.695193,0.0773 14.775223,0.0689 8.08003,-0.009 14.8328,0.0767 15.006157,0.18906 0.242306,0.15709 0.252367,0.55694 0.04351,1.72908 -0.149426,0.8386 -0.360817,2.42029 -0.469758,3.51487 -0.108941,1.09459 -0.282066,2.07428 -0.384723,2.1771 -0.102656,0.10281 -4.787488,0.22293 -10.410738,0.26692 l -10.22409,0.08 v 2.6734 2.6734 l 9.412723,0.004 c 5.176998,0.002 9.655685,0.0687 9.952639,0.14843 0.482598,0.12954 0.557734,0.39427 0.707746,2.49375 0.0923,1.29186 0.337823,2.98275 0.545592,3.75753 0.207766,0.7748 0.379126,1.43672 0.380798,1.47096 0.0018,0.0343 -7.805678,0.0919 -17.349666,0.12806 l -17.352707,0.0658 v 2.56128 2.56128 l 17.847293,0.0657 17.847294,0.0657 0.406315,1.471 c 0.223469,0.80904 0.692454,2.39988 1.042182,3.53517 0.349731,1.13529 0.635872,2.25905 0.635872,2.49725 0,0.40343 -1.442703,0.43106 -21.06657,0.40338 -11.586614,-0.0164 -21.2922823,-0.087 -21.5681517,-0.15712 z M 97.617498,122.32298 v -2.68936 H 65.98563 34.353758 l -0.07424,2.414 c -0.04083,1.32772 -0.01547,2.56719 0.05638,2.7544 0.10784,0.28104 5.63618,0.32904 31.706109,0.27534 l 31.575497,-0.0651 z"
       style="fill:#000000;fill-opacity:1;fill-rule:evenodd;stroke:none;stroke-width:0.08271918"
       id="Fill-1" />
  </g>
</svg>
