<?xml version="1.0" encoding="UTF-8" standalone="no"?>
<!-- Created with Inkscape (http://www.inkscape.org/) -->

<svg
   xmlns:dc="http://purl.org/dc/elements/1.1/"
   xmlns:cc="http://creativecommons.org/ns#"
   xmlns:rdf="http://www.w3.org/1999/02/22-rdf-syntax-ns#"
   xmlns:svg="http://www.w3.org/2000/svg"
   xmlns="http://www.w3.org/2000/svg"
   xmlns:sodipodi="http://sodipodi.sourceforge.net/DTD/sodipodi-0.dtd"
   xmlns:inkscape="http://www.inkscape.org/namespaces/inkscape"
   width="101mm"
   height="72mm"
   viewBox="0 0 101 72"
   version="1.1"
   id="svg2098"
   inkscape:version="0.92.2 5c3e80d, 2017-08-06"
   sodipodi:docname="coming_soon.svg">
  <defs
     id="defs2092" />
  <sodipodi:namedview
     id="base"
     pagecolor="#ffffff"
     bordercolor="#666666"
     borderopacity="1.0"
     inkscape:pageopacity="0.0"
     inkscape:pageshadow="2"
     inkscape:zoom="0.35"
     inkscape:cx="-701.37025"
     inkscape:cy="251.48412"
     inkscape:document-units="mm"
     inkscape:current-layer="layer1"
     showgrid="false"
     inkscape:window-width="2560"
     inkscape:window-height="1025"
     inkscape:window-x="0"
     inkscape:window-y="0"
     inkscape:window-maximized="1" />
  <metadata
     id="metadata2095">
    <rdf:RDF>
      <cc:Work
         rdf:about="">
        <dc:format>image/svg+xml</dc:format>
        <dc:type
           rdf:resource="http://purl.org/dc/dcmitype/StillImage" />
        <dc:title></dc:title>
      </cc:Work>
    </rdf:RDF>
  </metadata>
  <g
     inkscape:label="Layer 1"
     inkscape:groupmode="layer"
     id="layer1"
     transform="translate(0,-225)">
    <path
       style="fill:#000000;stroke-width:0.26458332"
       d="m 52.002538,290.97609 c -0.48504,-2.39845 -0.96227,-4.49088 -1.06051,-4.64984 -0.12299,-0.19899 -5.42175,0.66486 -17.01116,2.77332 -9.25789,1.68429 -17.264134,3.06234 -17.791643,3.06234 -1.321944,0 -2.650399,-0.68807 -3.272802,-1.69514 C 12.48111,289.84332 11.2972,283.86771 8.351751,267.67961 4.365464,245.77109 4.360014,245.73575 4.792432,244.60348 5.694116,242.24246 2.6285,242.9507 46.337478,235.00546 c 25.87517,-4.70349 39.76196,-7.11993 40.44184,-7.03731 1.27643,0.15513 2.25694,0.85035 2.87448,2.03812 0.51991,0.99999 8.12864,42.48444 8.12864,44.31912 0,1.36751 -0.87119,2.73324 -2.12016,3.32371 -0.5074,0.23988 -8.66161,1.83095 -18.12047,3.53571 -9.45885,1.70476 -17.22743,3.1255 -17.2635,3.15721 -0.0361,0.0317 0.41042,2.42082 0.99219,5.30914 0.58178,2.88831 1.05777,5.34919 1.05777,5.46861 0,0.11943 -2.12486,0.21714 -4.72192,0.21714 h -4.72192 z m -10.08967,-8.18492 c 1.73529,-0.89735 2.3804,-3.15151 1.45814,-5.09502 -0.57426,-1.21019 -1.27549,-1.64785 -4.16548,-2.59986 -2.17192,-0.71547 -2.40955,-0.85822 -2.40955,-1.4474 0,-0.81814 0.9177,-1.32149 2.41909,-1.32683 1.15471,-0.004 1.41737,-0.27461 1.41737,-1.45972 0,-0.80461 -1.0361,-1.05124 -2.77713,-0.66107 -2.33541,0.52338 -3.57287,1.70167 -3.57287,3.40204 0,1.90698 1.01607,2.76975 4.22667,3.58894 1.95403,0.49857 2.91708,1.24957 2.91708,2.27478 0,0.89816 -0.73123,1.56257 -1.93465,1.75786 -0.79578,0.12913 -1.04759,0.0389 -1.62267,-0.58165 -0.64654,-0.69763 -0.73374,-0.71863 -1.7367,-0.41813 -0.58079,0.17401 -1.05554,0.40089 -1.05499,0.50419 0.003,0.54374 1.10197,1.86621 1.88324,2.26596 1.10011,0.56288 3.67444,0.4568 4.95245,-0.20409 z m 8.27855,-2.94996 c 1.38892,-0.71824 1.57648,-1.65346 1.00465,-5.00951 -0.27274,-1.60073 -0.64357,-3.18846 -0.82405,-3.5283 -0.84072,-1.58298 -3.46338,-1.75003 -4.84439,-0.30857 -0.70467,0.73552 -0.73259,0.8595 -0.57865,2.56942 0.46667,5.1837 1.2213,6.69141 3.34916,6.69141 0.60051,0 1.45248,-0.1865 1.89328,-0.41445 z m -2.61648,-1.76836 c -0.43415,-0.5397 -1.09815,-5.03053 -0.82107,-5.55313 0.36359,-0.68575 1.55984,-0.90993 1.95703,-0.36674 0.54081,0.7396 1.23989,5.11879 0.91428,5.7272 -0.31953,0.59704 -1.62618,0.71983 -2.05024,0.19267 z m 17.44436,1.69256 c 0.0976,-0.0942 -0.17004,-2.13574 -0.5948,-4.53683 -0.42475,-2.4011 -0.74274,-4.44595 -0.70665,-4.54413 0.0361,-0.0982 1.63342,1.70333 3.54962,4.00334 l 3.48398,4.18185 1.09057,-0.19942 c 0.59981,-0.10968 1.15216,-0.26103 1.22746,-0.33632 0.0753,-0.0753 -0.43899,-3.3944 -1.14284,-7.3758 l -1.27973,-7.2389 -1.17171,0.0772 c -0.64444,0.0424 -1.22076,0.1262 -1.28072,0.18616 -0.06,0.06 0.2511,2.16837 0.69124,4.68536 0.44015,2.51698 0.77588,4.60219 0.74606,4.63379 -0.0298,0.0316 -1.62779,-1.83581 -3.55107,-4.14982 l -3.49686,-4.20728 -0.98769,0.14938 c -0.54322,0.0822 -1.0916,0.24375 -1.21861,0.35909 -0.12951,0.11761 0.32946,3.42029 1.04513,7.52047 l 1.27605,7.31079 1.07154,-0.17384 c 0.58935,-0.0956 1.15141,-0.25088 1.24903,-0.34504 z m -5.72171,-3.33418 c 0.35719,-0.35719 0.64941,-0.80367 0.64939,-0.99219 -1.5e-4,-1.08426 -0.87044,-4.6192 -1.23694,-5.02418 -0.80028,-0.8843 -2.931,-0.53048 -3.52848,0.58592 -0.37411,0.69904 0.35239,4.91356 0.96338,5.5887 0.67028,0.74065 2.33743,0.65697 3.15265,-0.15825 z m -2.39198,-1.2688 c -0.37737,-1.59236 -0.59776,-3.23494 -0.47646,-3.55104 0.19945,-0.51977 1.34185,-0.43474 1.49744,0.11146 0.38274,1.34354 0.71251,3.53199 0.56758,3.7665 -0.0912,0.14762 -0.45424,0.26839 -0.80668,0.26839 -0.44635,0 -0.68361,-0.18065 -0.78188,-0.59531 z m -35.53463,-5.25866 c 1.10057,-0.2337 4.18304,-1.52914 4.66543,-1.96069 0.15892,-0.14218 -1.0797,-3.29784 -1.29443,-3.29784 -0.11503,0 -1.10118,0.35719 -2.19144,0.79375 -2.397498,0.96001 -3.599251,1.01267 -4.528185,0.19844 -0.603885,-0.52932 -0.81315,-1.26558 -1.887733,-6.64163 -1.025213,-5.12906 -1.16119,-6.16068 -0.896322,-6.80012 0.480452,-1.15992 1.460517,-1.64505 3.600794,-1.78241 2.145566,-0.13769 2.203906,-0.20325 2.210566,-2.48388 l 0.004,-1.23773 -1.453593,-0.18162 c -4.422248,-0.55252 -8.020509,1.78193 -8.280188,5.37195 -0.127443,1.76188 2.044374,13.22306 2.844713,15.01221 1.233907,2.75839 3.64599,3.76568 7.206778,3.00957 z m 18.83401,-5.40006 c 0.67524,-0.10126 1.28428,-0.27565 1.35343,-0.38754 0.0692,-0.11189 -0.27921,-2.21151 -0.77413,-4.66583 -0.49493,-2.45431 -0.86516,-4.49747 -0.82272,-4.54035 0.0424,-0.0429 1.11547,1.8326 2.38453,4.16773 1.26906,2.33514 2.38887,4.29606 2.48845,4.35761 0.0996,0.0615 0.71995,-0.003 1.37858,-0.1435 l 1.19752,-0.25541 0.50205,-5.04822 c 0.29802,-2.99657 0.58293,-4.84713 0.70103,-4.55341 0.10944,0.27216 0.56086,2.33016 1.00315,4.57334 0.4423,2.24318 0.85631,4.13064 0.92001,4.19435 0.15508,0.15507 2.61101,-0.19007 2.98131,-0.41898 0.20373,-0.12593 -0.31082,-3.19827 -1.69199,-10.10284 -1.0916,-5.45703 -2.01286,-9.95164 -2.04723,-9.98801 -0.0525,-0.0556 -3.09674,0.48331 -3.24199,0.57394 -0.0267,0.0167 -0.41988,2.8858 -0.87372,6.37584 -0.45384,3.49004 -0.90823,6.548 -1.00976,6.79546 -0.13379,0.32607 -1.1271,-1.18598 -3.60795,-5.4921 -2.72482,-4.72958 -3.51552,-5.91277 -3.87511,-5.79864 -0.24848,0.0789 -0.97016,0.23713 -1.60375,0.3517 -0.63358,0.11458 -1.13858,0.31884 -1.12223,0.45392 0.0163,0.13508 0.90768,4.68263 1.98071,10.10566 1.30663,6.6037 2.05022,9.82197 2.25153,9.74473 0.16532,-0.0634 0.85304,-0.19819 1.52828,-0.29945 z m -6.56321,-1.9477 c 1.21502,-0.55184 2.11553,-1.55652 2.34792,-2.61954 0.18989,-0.86862 -1.25749,-8.18856 -1.84303,-9.32086 -0.59546,-1.15149 -1.86249,-1.84319 -3.37846,-1.84438 -2.5254,-0.002 -4.15939,1.26197 -4.34865,3.36382 -0.13754,1.52753 1.25266,8.4275 1.8957,9.4089 0.96047,1.46587 3.33425,1.9169 5.32652,1.01206 z m -3.154,-2.36249 c -0.52725,-0.58261 -1.87196,-6.97877 -1.65169,-7.85638 0.1738,-0.6925 1.66991,-1.32822 2.50332,-1.0637 0.65585,0.20815 0.97142,1.02847 1.61829,4.20666 0.69701,3.42452 0.68701,4.26336 -0.0571,4.78452 -0.78885,0.55253 -1.87751,0.52045 -2.41286,-0.0711 z m 30.1207,0.52913 c 0.82579,-0.16866 1.04636,-0.32828 1.00385,-0.72646 -0.11486,-1.07587 -3.98775,-19.98659 -4.12039,-20.11922 -0.16126,-0.16126 -4.72814,0.68412 -5.00582,0.92662 -0.10167,0.0888 -0.037,0.81629 0.14373,1.61666 0.32352,1.43281 0.34286,1.45481 1.25652,1.42971 l 0.92794,-0.0255 1.67932,8.49217 c 0.92363,4.67069 1.72859,8.58189 1.78882,8.69157 0.0602,0.10967 0.37009,0.13893 0.6886,0.065 0.3185,-0.0739 1.05535,-0.23167 1.63743,-0.35056 z m 6.46927,-2.97849 c 0.73476,-0.15759 1.33594,-0.38564 1.33594,-0.50679 0,-0.12115 -0.48039,-2.56777 -1.06754,-5.43693 -0.58714,-2.86916 -1.02476,-5.25942 -0.97249,-5.3117 0.0523,-0.0523 2.02855,2.11217 4.39172,4.80987 3.10567,3.54531 4.42033,4.86869 4.7428,4.77425 0.24537,-0.0719 0.90177,-0.2115 1.45866,-0.31031 0.86038,-0.15266 0.99299,-0.26411 0.88253,-0.74171 -0.0715,-0.30913 -0.86786,-4.19346 -1.7697,-8.63184 -0.90184,-4.43839 -1.67831,-8.11178 -1.72549,-8.1631 -0.0472,-0.0513 -0.68871,-0.0104 -1.42564,0.091 -1.05277,0.1448 -1.33985,0.28764 -1.33985,0.66667 0,0.26531 0.47034,2.7802 1.04521,5.58864 0.57486,2.80844 1.02134,5.12793 0.99218,5.15442 -0.0292,0.0265 -1.95802,-2.14294 -4.28635,-4.82096 l -4.23333,-4.86912 -1.32292,0.14985 c -0.7276,0.0824 -1.41209,0.23762 -1.52107,0.34491 -0.10899,0.10729 0.57562,4.05358 1.52135,8.76955 0.94573,4.71596 1.71951,8.60943 1.71951,8.65216 0,0.11803 0.13196,0.10053 1.57448,-0.20883 z m 18.07933,-5.62548 c 1.00809,-0.42121 1.07321,-0.43683 1.84359,-0.44207 1.30818,-0.009 1.36024,-0.24468 0.72215,-3.27066 -0.4721,-2.2388 -0.68437,-2.8107 -1.04324,-2.8107 -0.94287,0 -3.44923,0.61286 -3.44923,0.84341 0,0.13266 0.18166,0.59247 0.40367,1.02181 0.28201,0.54534 0.60098,0.78061 1.05834,0.78061 0.80383,0 0.85968,0.58873 0.12549,1.32292 -0.61218,0.61218 -2.16274,0.71437 -2.61272,0.17219 -0.33233,-0.40044 -1.62061,-6.44797 -1.62061,-7.6076 0,-0.9265 0.69143,-1.33994 2.24088,-1.33994 1.13078,0 1.13548,-0.004 1.28213,-1.09737 0.081,-0.60355 0.0981,-1.14642 0.0382,-1.20637 -0.0599,-0.06 -0.73692,-0.10764 -1.50437,-0.10597 -2.73782,0.006 -4.43476,1.3997 -4.43727,3.64443 -0.002,1.66903 1.3403,7.95968 1.89172,8.86643 0.87239,1.43453 3.21046,2.0022 5.06129,1.22888 z"
       id="path2654"
       inkscape:connector-curvature="0" />
  </g>
</svg>
