<?xml version="1.0" encoding="UTF-8" standalone="no"?>
<!-- Generated by IcoMoon.io -->

<svg
   xmlns:dc="http://purl.org/dc/elements/1.1/"
   xmlns:cc="http://creativecommons.org/ns#"
   xmlns:rdf="http://www.w3.org/1999/02/22-rdf-syntax-ns#"
   xmlns:svg="http://www.w3.org/2000/svg"
   xmlns="http://www.w3.org/2000/svg"
   xmlns:sodipodi="http://sodipodi.sourceforge.net/DTD/sodipodi-0.dtd"
   xmlns:inkscape="http://www.inkscape.org/namespaces/inkscape"
   version="1.1"
   width="20"
   height="20"
   viewBox="0 0 20 20"
   id="svg6"
   sodipodi:docname="create_account.svg"
   inkscape:version="0.92.4 5da689c313, 2019-01-14">
  <metadata
     id="metadata12">
    <rdf:RDF>
      <cc:Work
         rdf:about="">
        <dc:format>image/svg+xml</dc:format>
        <dc:type
           rdf:resource="http://purl.org/dc/dcmitype/StillImage" />
      </cc:Work>
    </rdf:RDF>
  </metadata>
  <defs
     id="defs10" />
  <sodipodi:namedview
     pagecolor="#ffffff"
     bordercolor="#666666"
     borderopacity="1"
     objecttolerance="10"
     gridtolerance="10"
     guidetolerance="10"
     inkscape:pageopacity="0"
     inkscape:pageshadow="2"
     inkscape:window-width="2560"
     inkscape:window-height="1023"
     id="namedview8"
     showgrid="false"
     inkscape:zoom="30.795122"
     inkscape:cx="-0.40197102"
     inkscape:cy="11.316541"
     inkscape:window-x="0"
     inkscape:window-y="0"
     inkscape:window-maximized="1"
     inkscape:current-layer="svg6" />
  <path
     d="m 10.505543,10.923933 c -2.9299837,0 -5.3131914,-2.3832085 -5.3131914,-5.3131924 0,-2.9299841 2.3832077,-5.31319253 5.3131914,-5.31319253 2.929985,0 5.313194,2.38320843 5.313194,5.31319253 0,2.9299839 -2.383209,5.3131924 -5.313194,5.3131924 z m 0,-9.6603498 c -2.3967317,0 -4.3471564,1.9504246 -4.3471564,4.3471574 0,2.3967323 1.9504247,4.3471575 4.3471564,4.3471575 2.396733,0 4.347159,-1.9504252 4.347159,-4.3471575 0,-2.3967328 -1.950426,-4.3471574 -4.347159,-4.3471574 z"
     id="path2"
     inkscape:connector-curvature="0"
     style="fill:#000000;stroke-width:0.96603495" />
  <path
     d="M 18.233825,19.618248 H 2.7772641 c -0.798911,0 -1.4490525,-0.650143 -1.4490525,-1.449052 0,-0.06568 0.013525,-1.62777 1.1833929,-3.187915 0.6810545,-0.908073 1.6132784,-1.629703 2.7715545,-2.143632 1.4142755,-0.62889 3.1714925,-0.94768 5.222384,-0.94768 2.050894,0 3.808112,0.31879 5.222385,0.94768 1.158277,0.514896 2.090501,1.235559 2.771556,2.143632 1.169868,1.560145 1.183393,3.122225 1.183393,3.187915 0,0.798909 -0.650142,1.449052 -1.449052,1.449052 z m -7.728282,-6.762244 c -3.3685631,0 -5.854171,0.920632 -7.1882654,2.662392 -0.9998461,1.305112 -1.022065,2.639208 -1.023031,2.652733 0,0.264692 0.2163919,0.481083 0.4830175,0.481083 H 18.233825 c 0.266625,0 0.483016,-0.216391 0.483016,-0.483016 0,-0.01156 -0.02222,-1.345688 -1.02303,-2.6508 -1.335059,-1.74176 -3.820669,-2.662392 -7.188268,-2.662392 z"
     id="path4"
     inkscape:connector-curvature="0"
     style="fill:#000000;stroke-width:0.96603495" />
  <path
     style="color:#000000;font-style:normal;font-variant:normal;font-weight:normal;font-stretch:normal;font-size:medium;line-height:normal;font-family:sans-serif;font-variant-ligatures:normal;font-variant-position:normal;font-variant-caps:normal;font-variant-numeric:normal;font-variant-alternates:normal;font-feature-settings:normal;text-indent:0;text-align:start;text-decoration:none;text-decoration-line:none;text-decoration-style:solid;text-decoration-color:#000000;letter-spacing:normal;word-spacing:normal;text-transform:none;writing-mode:lr-tb;direction:ltr;text-orientation:mixed;dominant-baseline:auto;baseline-shift:baseline;text-anchor:start;white-space:normal;shape-padding:0;clip-rule:nonzero;display:inline;overflow:visible;visibility:visible;opacity:1;isolation:auto;mix-blend-mode:normal;color-interpolation:sRGB;color-interpolation-filters:linearRGB;solid-color:#000000;solid-opacity:1;vector-effect:none;fill:#000000;fill-opacity:1;fill-rule:nonzero;stroke:none;stroke-width:1.83045745;stroke-linecap:butt;stroke-linejoin:miter;stroke-miterlimit:4;stroke-dasharray:none;stroke-dashoffset:0;stroke-opacity:1;color-rendering:auto;image-rendering:auto;shape-rendering:auto;text-rendering:auto;enable-background:accumulate"
     d="M 4.5535551,7.3092359 V 18.038504 H 7.1696518 V 7.3092359 Z"
     id="path824"
     inkscape:connector-curvature="0" />
  <path
     style="color:#000000;font-style:normal;font-variant:normal;font-weight:normal;font-stretch:normal;font-size:medium;line-height:normal;font-family:sans-serif;font-variant-ligatures:normal;font-variant-position:normal;font-variant-caps:normal;font-variant-numeric:normal;font-variant-alternates:normal;font-feature-settings:normal;text-indent:0;text-align:start;text-decoration:none;text-decoration-line:none;text-decoration-style:solid;text-decoration-color:#000000;letter-spacing:normal;word-spacing:normal;text-transform:none;writing-mode:lr-tb;direction:ltr;text-orientation:mixed;dominant-baseline:auto;baseline-shift:baseline;text-anchor:start;white-space:normal;shape-padding:0;clip-rule:nonzero;display:inline;overflow:visible;visibility:visible;opacity:1;isolation:auto;mix-blend-mode:normal;color-interpolation:sRGB;color-interpolation-filters:linearRGB;solid-color:#000000;solid-opacity:1;vector-effect:none;fill:#000000;fill-opacity:1;fill-rule:nonzero;stroke:none;stroke-width:1.80413496;stroke-linecap:butt;stroke-linejoin:miter;stroke-miterlimit:4;stroke-dasharray:none;stroke-dashoffset:0;stroke-opacity:1;color-rendering:auto;image-rendering:auto;shape-rendering:auto;text-rendering:auto;enable-background:accumulate"
     d="M 11.048049,11.639484 H 0.62514008 v 2.616097 H 11.048049 Z"
     id="path824-3"
     inkscape:connector-curvature="0" />
</svg>
