<?xml version="1.0" encoding="iso-8859-1"?>
<!-- Generator: Adobe Illustrator 16.0.0, SVG Export Plug-In . SVG Version: 6.00 Build 0)  -->
<!DOCTYPE svg PUBLIC "-//W3C//DTD SVG 1.1//EN" "http://www.w3.org/Graphics/SVG/1.1/DTD/svg11.dtd">
<svg version="1.1" id="Capa_1" xmlns="http://www.w3.org/2000/svg" xmlns:xlink="http://www.w3.org/1999/xlink" x="0px" y="0px"
	 width="600px" height="600px" viewBox="0 0 600 600" style="enable-background:new 0 0 600 600;" xml:space="preserve">
<g>
	<g>
  <path d="m275.944203,30.994584l0,106.971246l-230.799641,0c0,0 -14.184834,0 -14.184834,26.742818s14.184834,26.742805 14.184834,26.742805l510.596714,0c0,0 14.183951,0 14.183951,-26.742805s-14.183951,-26.742818 -14.183951,-26.742818l-230.800524,0l0,-106.971246l-48.996549,0z" id="svg_3" fill="black" transform="rotate(180 300.4424743652344,111.22301483154295) "/>
  <path d="m94.454591,109.281159c0,0 -63.454572,0 -63.454572,65.736585l0,328.650881c0,65.706608 63.454572,65.706608 63.454572,65.706608l412.442113,0c0,0 63.454572,0 63.454572,-65.735551l0,-328.621937c0,-65.736585 -63.454572,-65.736585 -63.454572,-65.736585l-412.442113,0zm71.383485,373.827016l-26.967417,0l0,-28.755686l26.967417,0l0,28.755686zm0,-86.268091l-26.967417,0l0,-28.754652l26.967417,0l0,28.754652zm0,-86.267057l-26.967417,0l0,-28.755686l26.967417,0l0,28.755686zm269.676113,172.535148l-242.708696,0l0,-28.755686l242.708696,0l0,28.755686zm0,-86.268091l-242.708696,0l0,-28.754652l242.708696,0l0,28.754652zm0,-86.267057l-242.708696,0l0,-28.755686l242.708696,0l0,28.755686zm53.935804,-86.268091l-377.546752,0l0,-28.755686l377.546752,0l0,28.755686z" id="svg_4" fill="black"/>
	</g>
</g>
<g>
</g>
<g>
</g>
<g>
</g>
<g>
</g>
<g>
</g>
<g>
</g>
<g>
</g>
<g>
</g>
<g>
</g>
<g>
</g>
<g>
</g>
<g>
</g>
<g>
</g>
<g>
</g>
<g>
</g>
</svg>
