<?xml version="1.0" encoding="iso-8859-1"?>
<!-- Generator: Adobe Illustrator 19.0.0, SVG Export Plug-In . SVG Version: 6.00 Build 0)  -->
<svg version="1.1" id="Layer_1" xmlns="http://www.w3.org/2000/svg" xmlns:xlink="http://www.w3.org/1999/xlink" x="0px" y="0px"
	 viewBox="0 0 512 512" style="enable-background:new 0 0 512 512;" xml:space="preserve">
<g>
	<g>
		<path d="M470,320H338c-2.212,0-4,1.792-4,4v56c0,2.208,1.788,4,4,4h132c2.212,0,4-1.792,4-4v-56C474,321.792,472.212,320,470,320z
			 M371.4,367.812c-8.836,0-16-7.168-16-16c0-8.836,7.164-16,16-16s16,7.164,16,16C387.4,360.644,380.236,367.812,371.4,367.812z"/>
	</g>
</g>
<g>
	<g>
		<path d="M406,408v44.008c0,11.024-6.844,19.992-17.868,19.992h-249.5H118.6H60.24c-0.024,0-1.072-0.008-1.096-0.008
			C51.892,471.98,46,462.424,38,459.288v8.96C38,488.1,56.196,512,76.048,512h37.22h12.148h294.516
			c19.852,0,34.072-16.148,34.072-36v-68H406z"/>
	</g>
</g>
<g>
	<g>
		<path d="M339.4,296h43.832l0.168-48H95.712c-35.492,0-36.54-0.164-36.568-0.164C51.892,247.828,46,245.864,38,242.728v175.548
			c0,0.648,1.224,1.304,1.224,1.976c0,11.032,9.98,27.752,21.012,27.752c0.012,0,0.036,0,0.048,0H382v-40h-42.6V408
			c-15.44,0-29.4-12.876-29.4-28.312v-55.752C310,308.5,323.956,296,339.4,296z"/>
	</g>
</g>
<g>
	<g>
		<path d="M347.8,98.272c-0.66-1.396-2.064-2.272-3.612-2.272H310V4c0-2.212-1.788-4-4-4H203.852C201.64,0,198,1.788,198,4v92
			h-30.084c-1.548,0-2.956,0.872-3.616,2.272c-0.66,1.4-0.456,3.036,0.52,4.236l88.144,107.528c0.756,0.924,1.888,1.464,3.092,1.464
			c1.192,0,2.332-0.536,3.092-1.46l88.132-107.524C348.256,101.316,348.46,99.668,347.8,98.272z"/>
	</g>
</g>
<g>
	<g>
		<path d="M224.804,176l28.156,34.192c0.756,0.924,1.892,1.388,3.092,1.388c1.196,0,2.332-0.42,3.092-1.348L287.296,176H224.804z"/>
	</g>
</g>
<g>
	<g>
		<polygon points="169.072,108 188.744,132 323.36,132 343.032,108 		"/>
	</g>
</g>
<g>
	<g>
		<path d="M422,177.396v-25.708C422,127.424,404.196,108,379.928,108h-8.876c-1.032,4-2.756,7.04-5.212,10.032L354.392,132h25.54
			C390.96,132,398,140.66,398,151.688V176h-79.672l-39.344,48h109.148c11.024,0,17.868,8.664,17.868,19.692V296h48v-76.312
			C454,199.588,442,182.632,422,177.396z"/>
	</g>
</g>
<g>
	<g>
		<path d="M193.772,176H84.052C73.032,176,62,166.716,62,155.688v-4C62,140.66,73.032,132,84.056,132h73.656l-11.444-13.96
			c-2.456-2.992-4.184-6.04-5.216-10.04H84.056C59.796,108,38,127.424,38,151.688v50.14c0,0.608,1.216,1.38,1.216,2.016
			C39.216,214.872,49.22,224,60.244,224c0.016,0,0.028,0,0.04,0H233.12L193.772,176z"/>
	</g>
</g>
<g>
</g>
<g>
</g>
<g>
</g>
<g>
</g>
<g>
</g>
<g>
</g>
<g>
</g>
<g>
</g>
<g>
</g>
<g>
</g>
<g>
</g>
<g>
</g>
<g>
</g>
<g>
</g>
<g>
</g>
</svg>
