<?xml version="1.0" encoding="UTF-8" standalone="no"?>
<!-- Created with Inkscape (http://www.inkscape.org/) -->

<svg
   xmlns:dc="http://purl.org/dc/elements/1.1/"
   xmlns:cc="http://creativecommons.org/ns#"
   xmlns:rdf="http://www.w3.org/1999/02/22-rdf-syntax-ns#"
   xmlns:svg="http://www.w3.org/2000/svg"
   xmlns="http://www.w3.org/2000/svg"
   xmlns:sodipodi="http://sodipodi.sourceforge.net/DTD/sodipodi-0.dtd"
   xmlns:inkscape="http://www.inkscape.org/namespaces/inkscape"
   width="137mm"
   height="137mm"
   viewBox="0 0 137 137"
   version="1.1"
   id="svg875"
   inkscape:version="0.92.2 5c3e80d, 2017-08-06"
   sodipodi:docname="debit_mandate.svg">
  <defs
     id="defs869" />
  <sodipodi:namedview
     id="base"
     pagecolor="#ffffff"
     bordercolor="#666666"
     borderopacity="1.0"
     inkscape:pageopacity="0.0"
     inkscape:pageshadow="2"
     inkscape:zoom="0.49497475"
     inkscape:cx="-745.90281"
     inkscape:cy="479.01083"
     inkscape:document-units="mm"
     inkscape:current-layer="layer1"
     showgrid="false"
     inkscape:window-width="2560"
     inkscape:window-height="1025"
     inkscape:window-x="0"
     inkscape:window-y="0"
     inkscape:window-maximized="1" />
  <metadata
     id="metadata872">
    <rdf:RDF>
      <cc:Work
         rdf:about="">
        <dc:format>image/svg+xml</dc:format>
        <dc:type
           rdf:resource="http://purl.org/dc/dcmitype/StillImage" />
        <dc:title></dc:title>
      </cc:Work>
    </rdf:RDF>
  </metadata>
  <g
     inkscape:label="Layer 1"
     inkscape:groupmode="layer"
     id="layer1"
     transform="translate(0,-160)">
    <path
       style="fill:#000000;stroke-width:0.26458335"
       d="m 103.39523,287.57813 c -13.52745,-2.73512 -21.50984,-16.36095 -17.18346,-29.33194 1.79218,-5.37316 5.36809,-9.75115 10.19743,-12.48473 0.88711,-0.50213 1.69078,-0.91297 1.78594,-0.91297 0.0952,0 0.17656,2.35149 0.1809,5.22552 l 0.008,5.22552 3.77258,3.90261 c 2.07493,2.14643 3.96664,3.9026 4.20381,3.9026 1.26475,0 1.26825,-0.0149 1.26825,-5.40886 v -5.08766 l -1.78837,-1.69705 c -0.9836,-0.93338 -2.96465,-2.76763 -4.40235,-4.0761 l -2.61398,-2.37906 1.91134,-0.5986 c 7.34842,-2.30143 15.07337,-0.85311 21.12226,3.96014 3.26532,2.59829 5.76613,6.22891 7.24952,10.52469 0.84698,2.45279 0.86809,2.62227 0.87341,7.01146 0.005,4.41149 -0.0113,4.54622 -0.86796,7.01146 -2.85612,8.21945 -9.40208,13.82816 -17.89445,15.33234 -2.07573,0.36766 -5.68648,0.31256 -7.82276,-0.11937 z m 4.23334,-15.31658 v -3.27861 l -0.7088,-0.17789 c -0.63066,-0.15829 -0.95875,0.0735 -2.97656,2.10263 l -2.26777,2.28052 0.77737,0.63029 c 0.99699,0.80835 3.21022,1.68245 4.31586,1.70451 l 0.8599,0.0172 z m 3.70416,2.80235 c 1.65299,-0.66062 2.90676,-1.44819 2.90875,-1.82716 7.9e-4,-0.17548 -0.92632,-1.27873 -2.06053,-2.45168 -1.92844,-1.9943 -2.11721,-2.12162 -2.91041,-1.96298 l -0.84822,0.16964 v 3.27422 3.27422 l 0.85989,-2.1e-4 c 0.47295,-1.2e-4 1.39568,-0.21435 2.05052,-0.47605 z m -8.04871,-4.94639 c 1.968,-2.02645 2.16367,-2.31937 1.98827,-2.97656 l -0.19455,-0.72892 -3.3548,-0.074 c -3.88337,-0.0857 -3.73193,-0.23228 -2.72058,2.63294 0.58165,1.64786 1.5803,3.39424 1.94096,3.39424 0.0868,0 1.14015,-1.01144 2.3407,-2.24765 z m 12.77237,1.28039 c 0.72805,-1.12339 1.62634,-3.60789 1.62634,-4.49812 0,-0.61595 -0.021,-0.62004 -3.18154,-0.62004 h -3.18155 l -0.26673,0.70154 c -0.1467,0.38584 -0.23304,0.79716 -0.19189,0.91403 0.10895,0.30934 4.21729,4.47045 4.40994,4.46657 0.0896,-0.002 0.44299,-0.43559 0.78543,-0.96398 z m -10.92057,-6.56201 c 0.0897,-0.35756 0.12177,-0.7647 0.0712,-0.90477 -0.17069,-0.47258 -6.53923,-6.85864 -6.68973,-6.70813 -0.082,0.082 -0.14912,1.97474 -0.14912,4.20606 v 4.05694 h 3.30225 c 3.28636,0 3.30304,-0.003 3.46542,-0.6501 z m 12.54691,0.16896 c 0,-1.31521 -1.83564,-5.60427 -2.39853,-5.60427 -0.0844,0 -1.14021,1.01095 -2.34626,2.24657 -1.51032,1.54733 -2.14255,2.37757 -2.0313,2.66747 0.0888,0.2315 0.16151,0.58976 0.16151,0.79614 0,0.30391 0.62863,0.37523 3.30729,0.37523 3.02087,0 3.30729,-0.0417 3.30729,-0.48114 z m -5.49595,-3.94442 c 1.131,-1.12437 2.05637,-2.22683 2.05637,-2.4499 0,-0.76938 -3.22525,-2.38495 -4.7612,-2.38495 h -1.05963 v 3.28789 c 0,3.48346 -0.01,3.45642 1.31706,3.56058 0.21506,0.0169 1.31639,-0.88925 2.4474,-2.01362 z m -95.41144,13.39168 c -1.65071,-0.38752 -4.02438,-1.79014 -5.46147,-3.22724 -1.8841501,-1.88415 -3.1062301,-4.48301 -3.4451301,-7.32638 -0.17298,-1.4513 -0.24186,-16.23132 -0.19422,-41.67187 0.0685,-36.57583 0.10643,-39.48245 0.5252,-40.24714 0.9101,-1.66189 1.12148,-1.68932 13.0162301,-1.68932 h 10.74178 v -2.07754 c 0,-1.72446 0.10253,-2.22968 0.60325,-2.97271 0.81397,-1.20785 1.66215,-1.61086 3.09183,-1.46907 0.93781,0.093 1.36079,0.31278 2.05052,1.0654 0.83998,0.91658 0.86898,1.02343 0.86898,3.20107 v 2.25285 h 22.75417 22.75417 v -2.12981 c 0,-2.4397 0.39979,-3.47372 1.57884,-4.08342 1.71342,-0.88605 3.94015,-0.13007 4.65479,1.58031 0.20952,0.50147 0.38095,1.74526 0.38095,2.764 v 1.85224 l 11.13304,0.0745 11.13304,0.0745 0.9055,0.9883 0.90551,0.9883 v 28.93701 28.937 l -1.34617,-0.34919 c -0.74039,-0.19205 -2.22867,-0.42916 -3.30729,-0.5269 l -1.96113,-0.17772 V 213.062 186.90474 h -8.73125 -8.73125 v 1.81969 c 0,1.33229 0.11148,1.9122 0.41622,2.16511 0.83131,0.68993 1.43587,2.31209 1.43587,3.85277 0,3.00077 -2.23456,5.21662 -5.25787,5.21384 -4.68432,-0.004 -6.99119,-5.335 -3.8968,-9.00467 0.62658,-0.74307 0.70524,-1.03787 0.63541,-2.38125 l -0.0797,-1.5332 -22.68802,-0.0676 -22.68802,-0.0676 v 1.81255 c 0,1.51909 0.0917,1.89416 0.56653,2.31658 0.74432,0.6622 1.5374,2.41736 1.54285,3.41445 0.0135,2.48232 -1.7485,4.80581 -4.0921,5.39594 -1.39897,0.35226 -2.41905,0.21298 -3.88893,-0.531 -2.98333,-1.51 -3.70409,-6.10361 -1.29919,-8.28001 0.46208,-0.41818 0.55625,-0.81003 0.55625,-2.31448 v -1.81108 h -8.73125 -8.73125 v 34.09212 34.09213 l 0.59745,0.89902 c 0.3286,0.49446 1.12773,1.16691 1.77586,1.49434 l 1.1784,0.59531 h 32.25397 32.25396 l -0.16329,0.59531 c -0.0898,0.32742 -0.23798,1.0418 -0.32926,1.5875 l -0.16597,0.99219 -32.44379,-0.006 c -31.7521,-0.006 -32.46837,-0.017 -33.59716,-0.52917 -0.63435,-0.28783 -1.21212,-0.52334 -1.28392,-0.52334 -0.0718,0 -0.0886,1.00188 -0.0373,2.22639 0.0824,1.96668 0.18589,2.35784 0.88705,3.35313 0.43656,0.6197 1.31849,1.40376 1.95984,1.74235 l 1.16609,0.61563 h 31.54606 31.54605 l 0.18663,1.24452 c 0.10264,0.6845 0.45548,2.17278 0.78409,3.3073 l 0.59746,2.06276 -32.70249,-0.0266 c -18.64871,-0.0152 -33.14391,-0.1302 -33.72966,-0.26772 z m 9.3412,-24.55618 c -0.76226,-0.76226 -0.77339,-0.81585 -0.77339,-3.72156 0,-3.2269 0.16364,-3.7691 1.31762,-4.36585 1.01216,-0.5234 9.30072,-0.57262 10.32404,-0.0613 1.22863,0.61391 1.62861,1.86845 1.52591,4.7861 -0.0901,2.55958 -0.10867,2.62584 -0.94537,3.37343 l -0.85347,0.76258 h -4.91097 -4.91097 z m 20.68698,0.40417 c -1.08253,-0.6 -1.33259,-1.41082 -1.34266,-4.35359 l -0.009,-2.73843 0.89958,-0.89959 0.89958,-0.89958 h 4.66981 c 6.49415,0 6.7602,0.18323 6.7602,4.65579 0,2.79935 -0.33096,3.77965 -1.44782,4.28853 -1.00763,0.45911 -9.58396,0.41541 -10.42931,-0.0531 z m 19.79428,-0.40417 c -0.76531,-0.7653 -0.7734,-0.8053 -0.7734,-3.82171 0,-2.84091 0.0434,-3.09881 0.63855,-3.79066 l 0.63855,-0.74236 h 5.20519 5.20519 l 0.63855,0.74236 c 0.59511,0.69185 0.63855,0.94975 0.63855,3.79066 0,3.01641 -0.008,3.05641 -0.7734,3.82171 l -0.77339,0.7734 h -4.9355 -4.9355 z M 26.11654,235.87301 c -0.762,-0.76201 -0.77339,-0.81669 -0.77339,-3.71347 0,-4.57522 0.27132,-4.77355 6.53027,-4.77355 5.96556,0 6.69889,0.48784 6.69889,4.45635 0,2.47888 -0.21047,3.35489 -0.99444,4.13885 -0.66374,0.66374 -0.67635,0.66522 -5.67657,0.66522 h -5.01136 z m 20.48861,0.38706 c -0.94704,-0.66333 -1.21124,-1.75991 -1.11283,-4.61886 0.0858,-2.49281 0.13672,-2.70198 0.82507,-3.38984 l 0.73362,-0.73309 h 5.04277 5.04278 l 0.7941,0.88876 0.7941,0.88876 -0.0882,3.03733 c -0.0857,2.95175 -0.10912,3.05531 -0.83056,3.67531 -0.72736,0.62508 -0.84239,0.63797 -5.69581,0.63797 -3.91481,0 -5.06912,-0.081 -5.50504,-0.38634 z m 19.91679,-0.3112 c -0.67229,-0.67229 -0.69754,-0.807 -0.69754,-3.72156 0,-1.66321 0.12864,-3.2644 0.28588,-3.5582 0.54729,-1.02261 1.8053,-1.28312 6.19641,-1.28312 4.39111,0 5.64912,0.26051 6.19641,1.28312 0.15724,0.2938 0.28588,1.84256 0.28588,3.44169 0,2.74195 -0.039,2.95386 -0.68498,3.72156 l -0.68497,0.81405 h -5.09978 -5.09978 z m 20.18419,-0.0759 c -0.76158,-0.76158 -0.7734,-0.81811 -0.7734,-3.69999 0,-2.85903 0.0178,-2.94655 0.77146,-3.79067 l 0.77145,-0.86407 4.71865,-0.0744 c 4.35598,-0.0687 4.78525,-0.0331 5.58514,0.46314 1.14811,0.71223 1.38247,1.4364 1.38247,4.27182 0,2.52244 -0.36404,3.68979 -1.30826,4.19512 -0.29691,0.1589 -2.56452,0.27243 -5.44157,0.27243 H 87.47953 Z M 47.17127,222.64644 c -1.28655,-0.54722 -1.58259,-1.25874 -1.67895,-4.03524 -0.0586,-1.68927 0.0257,-2.91789 0.2349,-3.42298 0.61125,-1.47568 0.95844,-1.56056 6.38296,-1.56056 4.85342,0 4.96845,0.0129 5.69582,0.63797 0.72144,0.61999 0.74484,0.72355 0.83056,3.67531 l 0.0882,3.03733 -0.79351,0.88876 -0.79352,0.88875 -4.71864,0.0579 c -2.59526,0.0318 -4.95678,-0.0434 -5.24782,-0.16721 z m 20.06302,-0.14406 c -0.46148,-0.20075 -0.9675,-0.60498 -1.12447,-0.8983 -0.15698,-0.29331 -0.28542,-1.87407 -0.28542,-3.51278 0,-2.87293 0.0254,-3.00602 0.71096,-3.72156 l 0.71096,-0.74208 h 4.99793 4.99794 l 0.77339,0.7734 c 0.76227,0.76226 0.7734,0.81584 0.7734,3.72156 0,1.62149 -0.12864,3.18854 -0.28588,3.48233 -0.55113,1.0298 -1.79928,1.28382 -6.25406,1.27277 -2.94775,-0.007 -4.42243,-0.11769 -5.01475,-0.37534 z m 20.38863,0.13488 c -0.30732,-0.12885 -0.81334,-0.55789 -1.12448,-0.95345 -0.4996,-0.63515 -0.56571,-1.05747 -0.56571,-3.61427 0,-2.84706 0.0128,-2.90792 0.7734,-3.66848 l 0.7734,-0.7734 h 4.98856 c 5.46271,0 5.80626,0.0835 6.41807,1.56056 0.20959,0.50599 0.29363,1.73845 0.2349,3.44463 -0.0858,2.49199 -0.13691,2.70222 -0.8244,3.38984 l -0.73296,0.73309 -4.691,0.0579 c -2.58006,0.0318 -4.94246,-0.0476 -5.24978,-0.17639 z M 24.14319,206.10175 c -0.79507,-0.79507 -0.81472,-1.19186 -0.10376,-2.0957 l 0.54837,-0.69714 h 37.49276 c 33.50566,0 37.5553,0.0438 38.0808,0.41187 0.68067,0.47676 0.78124,1.60401 0.21251,2.38183 -0.36826,0.50366 -1.1024,0.51492 -37.97704,0.58243 l -37.60152,0.0688 z"
       id="path1442"
       inkscape:connector-curvature="0" />
  </g>
</svg>
