<?xml version="1.0" encoding="UTF-8" standalone="no"?>
<!-- Generated by IcoMoon.io -->

<svg
   xmlns:dc="http://purl.org/dc/elements/1.1/"
   xmlns:cc="http://creativecommons.org/ns#"
   xmlns:rdf="http://www.w3.org/1999/02/22-rdf-syntax-ns#"
   xmlns:svg="http://www.w3.org/2000/svg"
   xmlns="http://www.w3.org/2000/svg"
   xmlns:sodipodi="http://sodipodi.sourceforge.net/DTD/sodipodi-0.dtd"
   xmlns:inkscape="http://www.inkscape.org/namespaces/inkscape"
   version="1.1"
   width="32"
   height="32"
   viewBox="0 0 32 32"
   id="svg862"
   sodipodi:docname="excel.svg"
   inkscape:version="0.92.2 5c3e80d, 2017-08-06">
  <metadata
     id="metadata868">
    <rdf:RDF>
      <cc:Work
         rdf:about="">
        <dc:format>image/svg+xml</dc:format>
        <dc:type
           rdf:resource="http://purl.org/dc/dcmitype/StillImage" />
      </cc:Work>
    </rdf:RDF>
  </metadata>
  <defs
     id="defs866" />
  <sodipodi:namedview
     pagecolor="#ffffff"
     bordercolor="#666666"
     borderopacity="1"
     objecttolerance="10"
     gridtolerance="10"
     guidetolerance="10"
     inkscape:pageopacity="0"
     inkscape:pageshadow="2"
     inkscape:window-width="1920"
     inkscape:window-height="1055"
     id="namedview864"
     showgrid="false"
     inkscape:zoom="18.893009"
     inkscape:cx="25.925956"
     inkscape:cy="14.634311"
     inkscape:window-x="2560"
     inkscape:window-y="80"
     inkscape:window-maximized="1"
     inkscape:current-layer="svg862" />
  <path
     style="fill:#000000;stroke-width:0.14066692"
     d="M 2.9759819,31.623761 C 1.987656,31.280021 1.3128579,30.71147 0.78165418,29.774929 L 0.34481663,29.004761 0.29954963,15.479081 C 0.26825723,10.280163 0.30288998,7.7292232 0.41213572,7.2283202 0.73501656,5.7451021 1.9483246,4.5349068 3.4175089,4.2306633 3.8707986,4.1367992 5.9065036,4.0945151 8.8455362,4.1179289 L 13.548259,4.1553929 11.134511,6.0895641 8.7207615,8.0237342 H 6.4669536 4.213148 v 6.9630108 12.963012 h 9.917017 9.917019 l 0.0011,-8.004502 0.0011,-2.004504 1.851202,-1.477003 c 1.018161,-0.812351 1.908316,-1.499589 1.978122,-1.527194 0.07428,-0.02937 0.108227,1.604175 0.08184,3.938674 -0.04199,3.7159 -0.06551,10.033043 -0.343669,10.63444 -0.381044,0.823826 -1.186008,1.628789 -2.009834,2.009833 -0.637906,0.29505 -0.771745,0.298981 -11.265927,0.330954 C 4.3405306,31.880924 3.6773368,31.867695 2.9759634,31.62376 Z M 8.2026622,16.775855 C 8.7363974,10.375899 14.468277,4.7688292 21.124511,4.1353716 l 0.945662,-0.089996 0.03901,-1.892944 0.03901,-1.89294281 4.880086,3.90254741 4.880085,3.902549 -4.880085,3.9045668 -4.880086,3.904567 -0.03903,-1.955656 -0.03903,-1.955655 -0.593973,0.0024 c -1.068582,0.0044 -3.234603,0.277442 -4.404098,0.555195 -2.482226,0.589528 -5.194391,2.103323 -7.7122694,4.304602 l -1.2525167,1.095027 0.095391,-1.143814 z"
     id="path881"
     inkscape:connector-curvature="0"
     sodipodi:nodetypes="csccccscccccccccccscccsscccsccccccccccccccc" />
</svg>
