<?xml version="1.0" encoding="UTF-8" standalone="no"?>
<svg
   xmlns:dc="http://purl.org/dc/elements/1.1/"
   xmlns:cc="http://creativecommons.org/ns#"
   xmlns:rdf="http://www.w3.org/1999/02/22-rdf-syntax-ns#"
   xmlns:svg="http://www.w3.org/2000/svg"
   xmlns="http://www.w3.org/2000/svg"
   id="svg4"
   viewBox="0 0 24 24"
   height="24"
   width="24"
   version="1.2">
  <metadata
     id="metadata10">
    <rdf:RDF>
      <cc:Work
         rdf:about="">
        <dc:format>image/svg+xml</dc:format>
        <dc:type
           rdf:resource="http://purl.org/dc/dcmitype/StillImage" />
        <dc:title></dc:title>
      </cc:Work>
    </rdf:RDF>
  </metadata>
  <defs
     id="defs8" />
  <path
     style="stroke-width:1.10586631"
     id="path2"
     d="m 12.161796,7.4379731 c 1.339204,0 2.633067,0.3925825 3.646041,1.1102897 1.438732,1.017397 2.687255,2.3488602 3.500066,3.3131752 -0.812811,0.964316 -2.061334,2.296885 -3.501172,3.313176 -1.011868,0.717707 -2.305731,1.110289 -3.644935,1.110289 -1.339205,0 -2.6341738,-0.392582 -3.6482531,-1.110289 C 7.0748108,14.157217 5.8262878,12.825754 5.014582,11.861438 5.8262878,10.897123 7.0748108,9.5656598 8.5135429,8.5493687 9.5276222,7.8305556 10.822591,7.4379731 12.161796,7.4379731 m 0,-2.2117326 c -1.87002,0 -3.5852188,0.570627 -4.9244228,1.5161427 -2.8962638,2.0480643 -5.028374,5.1190548 -5.028374,5.1190548 0,0 2.1321102,3.070991 5.028374,5.119055 1.339204,0.945516 3.0544028,1.516143 4.9244228,1.516143 1.870019,0 3.585218,-0.570627 4.92221,-1.516143 2.896264,-2.048064 5.030586,-5.119055 5.030586,-5.119055 0,0 -2.134322,-3.0709905 -5.030586,-5.1190548 -1.336992,-0.9455157 -3.052191,-1.5161427 -4.92221,-1.5161427 z m 0,5.5293315 c -0.611544,0 -1.105867,0.494322 -1.105867,1.105866 0,0.609333 0.494323,1.105867 1.105867,1.105867 0.609332,0 1.105866,-0.496534 1.105866,-1.105867 0,-0.611544 -0.496534,-1.105866 -1.105866,-1.105866 z m 0,4.423465 c -1.829103,0 -3.3175991,-1.488496 -3.3175991,-3.317599 0,-1.829102 1.4884961,-3.3175987 3.3175991,-3.3175987 1.829102,0 3.317598,1.4884967 3.317598,3.3175987 0,1.829103 -1.488496,3.317599 -3.317598,3.317599 z m 0,-5.5293314 c -1.220877,0 -2.211733,0.9908564 -2.211733,2.2117324 0,1.220877 0.990856,2.211733 2.211733,2.211733 1.220876,0 2.211732,-0.990856 2.211732,-2.211733 0,-1.220876 -0.990856,-2.2117324 -2.211732,-2.2117324 z" />
  <path
     id="path812"
     d="M 20.253906,2.1191406 1.9179688,20.527344 3.546875,22.150391 21.884766,3.7421875 Z"
     style="color:#000000;font-style:normal;font-variant:normal;font-weight:normal;font-stretch:normal;font-size:medium;line-height:normal;font-family:sans-serif;font-variant-ligatures:normal;font-variant-position:normal;font-variant-caps:normal;font-variant-numeric:normal;font-variant-alternates:normal;font-feature-settings:normal;text-indent:0;text-align:start;text-decoration:none;text-decoration-line:none;text-decoration-style:solid;text-decoration-color:#000000;letter-spacing:normal;word-spacing:normal;text-transform:none;writing-mode:lr-tb;direction:ltr;text-orientation:mixed;dominant-baseline:auto;baseline-shift:baseline;text-anchor:start;white-space:normal;shape-padding:0;clip-rule:nonzero;display:inline;overflow:visible;visibility:visible;opacity:1;isolation:auto;mix-blend-mode:normal;color-interpolation:sRGB;color-interpolation-filters:linearRGB;solid-color:#000000;solid-opacity:1;vector-effect:none;fill:#000000;fill-opacity:1;fill-rule:nonzero;stroke:none;stroke-width:2.29999995;stroke-linecap:butt;stroke-linejoin:miter;stroke-miterlimit:4;stroke-dasharray:none;stroke-dashoffset:0;stroke-opacity:1;color-rendering:auto;image-rendering:auto;shape-rendering:auto;text-rendering:auto;enable-background:accumulate" />
</svg>
