<?xml version="1.0" encoding="UTF-8" standalone="no"?>
<svg
   xmlns:dc="http://purl.org/dc/elements/1.1/"
   xmlns:cc="http://creativecommons.org/ns#"
   xmlns:rdf="http://www.w3.org/1999/02/22-rdf-syntax-ns#"
   xmlns:svg="http://www.w3.org/2000/svg"
   xmlns="http://www.w3.org/2000/svg"
   xmlns:sodipodi="http://sodipodi.sourceforge.net/DTD/sodipodi-0.dtd"
   xmlns:inkscape="http://www.inkscape.org/namespaces/inkscape"
   version="1.2"
   width="24"
   height="24"
   viewBox="0 0 24 24"
   id="svg4"
   sodipodi:docname="show.svg"
   inkscape:version="0.92.2 5c3e80d, 2017-08-06">
  <metadata
     id="metadata10">
    <rdf:RDF>
      <cc:Work
         rdf:about="">
        <dc:format>image/svg+xml</dc:format>
        <dc:type
           rdf:resource="http://purl.org/dc/dcmitype/StillImage" />
      </cc:Work>
    </rdf:RDF>
  </metadata>
  <defs
     id="defs8" />
  <sodipodi:namedview
     pagecolor="#ffffff"
     bordercolor="#666666"
     borderopacity="1"
     objecttolerance="10"
     gridtolerance="10"
     guidetolerance="10"
     inkscape:pageopacity="0"
     inkscape:pageshadow="2"
     inkscape:window-width="2560"
     inkscape:window-height="1025"
     id="namedview6"
     showgrid="false"
     inkscape:zoom="27.812867"
     inkscape:cx="15.53144"
     inkscape:cy="11.018899"
     inkscape:window-x="1920"
     inkscape:window-y="0"
     inkscape:window-maximized="1"
     inkscape:current-layer="svg4" />
  <path
     d="m 12.161796,7.4379731 c 1.339204,0 2.633067,0.3925825 3.646041,1.1102897 1.438732,1.017397 2.687255,2.3488602 3.500066,3.3131752 -0.812811,0.964316 -2.061334,2.296885 -3.501172,3.313176 -1.011868,0.717707 -2.305731,1.110289 -3.644935,1.110289 -1.339205,0 -2.6341738,-0.392582 -3.6482531,-1.110289 C 7.0748108,14.157217 5.8262878,12.825754 5.014582,11.861438 5.8262878,10.897123 7.0748108,9.5656598 8.5135429,8.5493687 9.5276222,7.8305556 10.822591,7.4379731 12.161796,7.4379731 m 0,-2.2117326 c -1.87002,0 -3.5852188,0.570627 -4.9244228,1.5161427 -2.8962638,2.0480643 -5.028374,5.1190548 -5.028374,5.1190548 0,0 2.1321102,3.070991 5.028374,5.119055 1.339204,0.945516 3.0544028,1.516143 4.9244228,1.516143 1.870019,0 3.585218,-0.570627 4.92221,-1.516143 2.896264,-2.048064 5.030586,-5.119055 5.030586,-5.119055 0,0 -2.134322,-3.0709905 -5.030586,-5.1190548 -1.336992,-0.9455157 -3.052191,-1.5161427 -4.92221,-1.5161427 z m 0,5.5293315 c -0.611544,0 -1.105867,0.494322 -1.105867,1.105866 0,0.609333 0.494323,1.105867 1.105867,1.105867 0.609332,0 1.105866,-0.496534 1.105866,-1.105867 0,-0.611544 -0.496534,-1.105866 -1.105866,-1.105866 z m 0,4.423465 c -1.829103,0 -3.3175991,-1.488496 -3.3175991,-3.317599 0,-1.829102 1.4884961,-3.3175987 3.3175991,-3.3175987 1.829102,0 3.317598,1.4884967 3.317598,3.3175987 0,1.829103 -1.488496,3.317599 -3.317598,3.317599 z m 0,-5.5293314 c -1.220877,0 -2.211733,0.9908564 -2.211733,2.2117324 0,1.220877 0.990856,2.211733 2.211733,2.211733 1.220876,0 2.211732,-0.990856 2.211732,-2.211733 0,-1.220876 -0.990856,-2.2117324 -2.211732,-2.2117324 z"
     id="path2"
     inkscape:connector-curvature="0"
     style="stroke-width:1.10586631" />
</svg>
