<?xml version="1.0" encoding="UTF-8" standalone="no"?>
<svg
   xmlns:dc="http://purl.org/dc/elements/1.1/"
   xmlns:cc="http://creativecommons.org/ns#"
   xmlns:rdf="http://www.w3.org/1999/02/22-rdf-syntax-ns#"
   xmlns:svg="http://www.w3.org/2000/svg"
   xmlns="http://www.w3.org/2000/svg"
   viewBox="0 0 266.66666 266.66666"
   height="266.66666"
   width="266.66666"
   id="svg869"
   version="1.1">
  <metadata
     id="metadata875">
    <rdf:RDF>
      <cc:Work
         rdf:about="">
        <dc:format>image/svg+xml</dc:format>
        <dc:type
           rdf:resource="http://purl.org/dc/dcmitype/StillImage" />
        <dc:title></dc:title>
      </cc:Work>
    </rdf:RDF>
  </metadata>
  <defs
     id="defs873" />
  <path
     id="path879"
     d="m 31.389563,237.82694 c -2.684741,-2.68474 -2.684741,-50.89104 0,-53.57578 1.605828,-1.60583 12.34956,-1.79675 101.107957,-1.79675 88.7584,0 99.50213,0.19092 101.10795,1.79675 2.68475,2.68474 2.68475,50.89104 0,53.57578 -1.60582,1.60583 -12.34955,1.79675 -101.10795,1.79675 -88.758397,0 -99.502129,-0.19092 -101.107957,-1.79675 z m 14.473916,-83.12111 c -5.804555,-5.82879 -10.553735,-11.40881 -10.553735,-12.40004 0,-2.15387 3.541619,-5.58681 5.763684,-5.58681 0.869973,0 3.787965,2.16522 6.484437,4.81161 l 4.902663,4.81161 v -17.30718 c 0,-18.33103 0.702873,-20.90067 5.716931,-20.90067 5.014057,0 5.716922,2.56964 5.716922,20.90067 v 17.30718 l 4.902672,-4.81161 c 2.696463,-2.64639 5.703862,-4.81161 6.683103,-4.81161 2.912847,0 5.917878,4.15536 5.167403,7.14548 -0.8889,3.54166 -19.310634,21.43916 -22.067134,21.43916 -1.207346,0 -6.826621,-4.68288 -12.716946,-10.59779 z m 74.320061,0 c -5.80455,-5.82879 -10.55373,-11.40881 -10.55373,-12.40004 0,-2.15387 3.54162,-5.58681 5.76368,-5.58681 0.86997,0 3.78796,2.16522 6.48443,4.81161 l 4.90267,4.81161 v -17.30718 c 0,-18.33103 0.70287,-20.90067 5.71693,-20.90067 5.01406,0 5.71693,2.56964 5.71693,20.90067 v 17.30718 l 4.90266,-4.81161 c 2.69647,-2.64639 5.70387,-4.81161 6.68311,-4.81161 2.91285,0 5.91787,4.15536 5.1674,7.14548 -0.88889,3.54166 -19.31064,21.43916 -22.06714,21.43916 -1.20734,0 -6.82662,-4.68288 -12.71694,-10.59779 z m 74.32007,0 c -5.80456,-5.82879 -10.55374,-11.40881 -10.55374,-12.40004 0,-2.15387 3.54161,-5.58681 5.76368,-5.58681 0.86997,0 3.78797,2.16522 6.48443,4.81161 l 4.90267,4.81161 v -17.30718 c 0,-18.33103 0.70288,-20.90067 5.71693,-20.90067 5.01405,0 5.71693,2.56964 5.71693,20.90067 v 17.30718 l 4.90266,-4.81161 c 2.69647,-2.64639 5.70387,-4.81161 6.6831,-4.81161 2.91286,0 5.91788,4.15536 5.16741,7.14548 -0.88889,3.54166 -19.31064,21.43916 -22.06714,21.43916 -1.20734,0 -6.82662,-4.68288 -12.71693,-10.59779 z M 31.389563,89.186805 c -2.684741,-2.684741 -2.684741,-50.891035 0,-53.575779 2.68475,-2.684745 50.891042,-2.684745 53.575783,0 2.684749,2.684744 2.684749,50.891038 0,53.575779 -2.684741,2.68475 -50.891033,2.68475 -53.575783,0 z m 74.320067,0 c -2.68475,-2.684741 -2.68475,-50.891035 0,-53.575779 2.68475,-2.684745 50.89104,-2.684745 53.57577,0 2.68475,2.684744 2.68475,50.891038 0,53.575779 -2.68473,2.68475 -50.89102,2.68475 -53.57577,0 z m 74.32006,0 c -1.5238,-1.5238 -1.79675,-5.593182 -1.79675,-26.787888 0,-21.194706 0.27295,-25.264089 1.79675,-26.787891 2.68474,-2.684745 50.89104,-2.684745 53.57578,0 2.68475,2.684744 2.68475,50.891038 0,53.575779 -2.68474,2.68475 -50.89104,2.68475 -53.57578,0 z"
     style="fill:#000000;stroke-width:1.14338553" />
</svg>
