<?xml version="1.0" encoding="UTF-8" standalone="no"?>
<svg
   xmlns:dc="http://purl.org/dc/elements/1.1/"
   xmlns:cc="http://creativecommons.org/ns#"
   xmlns:rdf="http://www.w3.org/1999/02/22-rdf-syntax-ns#"
   xmlns:svg="http://www.w3.org/2000/svg"
   xmlns="http://www.w3.org/2000/svg"
   xmlns:sodipodi="http://sodipodi.sourceforge.net/DTD/sodipodi-0.dtd"
   xmlns:inkscape="http://www.inkscape.org/namespaces/inkscape"
   viewBox="0 0 266.66666 266.66666"
   height="266.66666"
   width="266.66666"
   id="svg869"
   version="1.1"
   sodipodi:docname="grouping.svg"
   inkscape:version="0.92.2 5c3e80d, 2017-08-06">
  <sodipodi:namedview
     pagecolor="#ffffff"
     bordercolor="#666666"
     borderopacity="1"
     objecttolerance="10"
     gridtolerance="10"
     guidetolerance="10"
     inkscape:pageopacity="0"
     inkscape:pageshadow="2"
     inkscape:window-width="2560"
     inkscape:window-height="1025"
     id="namedview6"
     showgrid="false"
     inkscape:zoom="2.5031581"
     inkscape:cx="61.112699"
     inkscape:cy="153.04534"
     inkscape:window-x="0"
     inkscape:window-y="0"
     inkscape:window-maximized="1"
     inkscape:current-layer="svg869" />
  <metadata
     id="metadata875">
    <rdf:RDF>
      <cc:Work
         rdf:about="">
        <dc:format>image/svg+xml</dc:format>
        <dc:type
           rdf:resource="http://purl.org/dc/dcmitype/StillImage" />
        <dc:title />
      </cc:Work>
    </rdf:RDF>
  </metadata>
  <defs
     id="defs873" />
  <path
     id="path879"
     d="m 7.9112782,258.17913 c -3.3399886,-3.31464 -3.3399886,-62.83136 0,-66.146 1.9977521,-1.9826 15.3636378,-2.21832 125.7847318,-2.21832 110.42109,0 123.78697,0.23572 125.78471,2.21832 3.34001,3.31464 3.34001,62.83136 0,66.146 -1.99774,1.98261 -15.36362,2.21832 -125.78471,2.21832 -110.421094,0 -123.7869797,-0.23571 -125.7847318,-2.21832 z M 25.91775,155.55573 c -7.221236,-7.19638 -13.129517,-14.08561 -13.129517,-15.30941 0,-2.65923 4.405999,-6.89762 7.170389,-6.89762 1.082302,0 4.71247,2.67324 8.067052,5.94054 l 6.099224,5.94053 v -21.36788 c 0,-22.63195 0.874419,-25.80449 7.112226,-25.80449 6.237806,0 7.112215,3.17254 7.112215,25.80449 v 21.36788 l 6.099235,-5.94053 c 3.354572,-3.2673 7.095967,-5.94054 8.314206,-5.94054 3.623767,0 7.362216,5.13032 6.428577,8.82199 -1.105848,4.37262 -24.023656,26.46933 -27.452918,26.46933 -1.502015,0 -8.49275,-5.7816 -15.820689,-13.08429 z m 92.45888,0 c -7.22123,-7.19638 -13.12951,-14.08561 -13.12951,-15.30941 0,-2.65923 4.406,-6.89762 7.17039,-6.89762 1.0823,0 4.71246,2.67324 8.06704,5.94054 l 6.09923,5.94053 v -21.36788 c 0,-22.63195 0.87441,-25.80449 7.11223,-25.80449 6.23781,0 7.11223,3.17254 7.11223,25.80449 v 21.36788 l 6.09921,-5.94053 c 3.35458,-3.2673 7.09597,-5.94054 8.31421,-5.94054 3.62378,0 7.36221,5.13032 6.42858,8.82199 -1.10584,4.37262 -24.02367,26.46933 -27.45293,26.46933 -1.50201,0 -8.49274,-5.7816 -15.82068,-13.08429 z m 92.45889,0 c -7.22124,-7.19638 -13.12952,-14.08561 -13.12952,-15.30941 0,-2.65923 4.40599,-6.89762 7.17039,-6.89762 1.08229,0 4.71247,2.67324 8.06704,5.94054 l 6.09923,5.94053 v -21.36788 c 0,-22.63195 0.87443,-25.80449 7.11222,-25.80449 6.2378,0 7.11223,3.17254 7.11223,25.80449 v 21.36788 l 6.09922,-5.94053 c 3.35459,-3.2673 7.09598,-5.94054 8.31421,-5.94054 3.62378,0 7.36222,5.13032 6.42858,8.82199 -1.10583,4.37262 -24.02366,26.46933 -27.45292,26.46933 -1.50201,0 -8.49276,-5.7816 -15.82068,-13.08429 z M 7.9112782,74.664284 c -3.3399886,-3.314649 -3.3399886,-62.831352 0,-66.1460051 3.3399998,-3.3146536 63.3116928,-3.3146536 66.6516818,0 3.339997,3.3146531 3.339997,62.8313561 0,66.1460051 -3.339989,3.31466 -63.311682,3.31466 -66.6516818,0 z m 92.4588918,0 c -3.340003,-3.314649 -3.340003,-62.831352 0,-66.1460051 3.34,-3.3146536 63.31169,-3.3146536 66.65166,0 3.34,3.3146531 3.34,62.8313561 0,66.1460051 -3.33997,3.31466 -63.31166,3.31466 -66.65166,0 z m 92.45887,0 c -1.89569,-1.881322 -2.23527,-6.905483 -2.23527,-33.073001 0,-26.167517 0.33958,-31.19168 2.23527,-33.0730041 3.34,-3.3146536 63.3117,-3.3146536 66.65168,0 3.34001,3.3146531 3.34001,62.8313561 0,66.1460051 -3.33998,3.31466 -63.31168,3.31466 -66.65168,0 z"
     style="fill:#000000;stroke-width:1.4170382"
     inkscape:connector-curvature="0" />
</svg>
