<?xml version="1.0" encoding="UTF-8" standalone="no"?>
<svg
   xmlns:dc="http://purl.org/dc/elements/1.1/"
   xmlns:cc="http://creativecommons.org/ns#"
   xmlns:rdf="http://www.w3.org/1999/02/22-rdf-syntax-ns#"
   xmlns:svg="http://www.w3.org/2000/svg"
   xmlns="http://www.w3.org/2000/svg"
   id="svg5"
   version="1.1"
   viewBox="0 0 200 200"
   height="200"
   width="200">
  <metadata
     id="metadata11">
    <rdf:RDF>
      <cc:Work
         rdf:about="">
        <dc:format>image/svg+xml</dc:format>
        <dc:type
           rdf:resource="http://purl.org/dc/dcmitype/StillImage" />
        <dc:title></dc:title>
      </cc:Work>
    </rdf:RDF>
  </metadata>
  <defs
     id="defs9" />
  <!-- Generator: Sketch 3.3.2 (12043) - http://www.bohemiancoding.com/sketch -->
  <path
     id="path828"
     d="m 166.53313,194.64688 c -1.00758,-0.76209 -3.21223,-1.39915 -4.89925,-1.41568 -2.77219,-0.0285 -3.06722,-0.30247 -3.06722,-2.86129 0,-2.62603 -0.24826,-2.8313 -3.42668,-2.8313 -3.38911,0 -3.42079,-0.0363 -2.89064,-3.3032 0.52857,-3.25721 0.48918,-3.30319 -2.8258,-3.30319 -3.22418,0 -3.33889,-0.1149 -2.80144,-2.80185 0.53924,-2.69628 0.45296,-2.78032 -2.29159,-2.2314 -2.69876,0.53976 -2.81841,0.43682 -2.22761,-1.91705 0.68895,-2.74499 0.35853,-2.87946 -4.00212,-1.62883 -3.73059,1.06992 -9.99119,-0.24077 -13.67279,-2.86216 -7.0409,-5.01356 -8.4928,-16.4065 -2.96314,-23.2515 6.24165,-7.72641 16.86742,-8.81745 23.90985,-2.455 4.64432,4.19583 6.04478,8.38924 5.28348,15.82008 l -0.59191,5.77737 11.80036,11.77202 c 9.34788,9.32543 11.80032,12.30745 11.80032,14.34835 0,1.58121 -0.70509,2.95366 -1.8255,3.55329 -2.41431,1.29209 -3.13285,1.23679 -5.30832,-0.40866 z m -29.6111,-34.51081 c 2.23731,-1.19737 2.45338,-5.82091 0.35348,-7.56372 -1.04984,-0.87128 -2.2003,-0.96712 -4.01102,-0.33422 -3.43338,1.20019 -3.96723,5.26662 -0.96723,7.36792 2.54863,1.78514 2.3269,1.75971 4.62479,0.52991 z M 69.380487,186.89743 C 51.093256,182.80687 34.638357,172.40778 24.29227,158.40276 19.793783,152.31339 13.93698,139.9563 12.15751,132.80001 10.262613,125.17947 10.539768,104.65268 12.640768,97.007766 19.727544,71.22117 41.522314,50.611283 67.208575,45.406595 c 8.571754,-1.736876 26.226621,-1.407217 33.552235,0.626474 l 4.01102,1.113515 v 6.592567 c 0,5.542973 -0.23114,6.503928 -1.45066,6.035866 -3.19137,-1.224626 -11.454093,-3.33379 -14.121532,-3.604708 l -2.831307,-0.2875 -0.283578,6.567067 c -0.308545,7.145558 -1.209284,9.005141 -4.362085,9.005141 -3.378735,0 -4.320174,-1.857799 -4.320174,-8.525387 0,-3.44319 -0.235778,-6.496075 -0.523885,-6.784218 -0.722032,-0.722029 -12.158481,1.943268 -17.779717,4.143609 -10.385789,4.065342 -21.828943,14.040075 -28.21837,24.597256 -4.083538,6.747151 -8.515467,19.932983 -8.054859,23.964653 0.302125,2.64308 0.470131,2.72181 6.408403,3.00046 6.438936,0.30212 8.530128,1.2656 8.530128,3.93008 0,3.17857 -3.108394,4.74955 -9.397657,4.74955 h -5.945801 l 0.635711,4.79232 c 0.843276,6.35691 4.287749,15.66335 8.217265,22.20188 8.410633,13.99481 29.966271,27.74443 43.495765,27.74443 2.623387,0 2.633017,-0.0249 2.633017,-6.41764 0,-6.79201 0.924782,-8.6827 4.246979,-8.6827 3.322163,0 4.246943,1.89069 4.246943,8.6827 v 6.41764 h 3.104932 c 4.432277,0 13.142892,-2.42453 18.544322,-5.16168 l 4.62973,-2.34601 3.43754,4.78481 c 3.24643,4.51879 3.34235,4.85624 1.72489,6.06833 -2.35842,1.76734 -13.71864,5.93963 -20.57755,7.55748 -5.271055,1.2433 -22.967556,1.71184 -27.379829,0.72488 z M 53.053288,153.37414 c -0.62287,-0.62287 -1.132523,-1.61532 -1.132523,-2.20543 0,-0.59011 4.382739,-7.72844 9.739412,-15.863 9.64139,-14.64125 9.733597,-14.83509 9.16441,-19.26531 -0.468847,-3.64921 -1.918083,-6.28919 -7.851862,-14.30314 -7.319236,-9.885126 -8.228821,-11.964977 -6.144372,-14.049461 2.17323,-2.173199 4.123738,-1.060363 13.739981,7.839061 6.944381,6.42669 10.35982,8.96006 12.079936,8.96006 1.31897,0 3.588081,0.61531 5.042454,1.36741 9.002642,4.65543 7.051206,19.35527 -2.778122,20.92702 -3.385121,0.54131 -4.780888,1.83384 -15.291235,14.16029 -11.548311,13.5437 -13.781288,15.21929 -16.568079,12.4325 z m 34.301711,-32.32837 c 2.972453,-2.97242 3.014687,-7.14806 0.1063,-10.52901 -4.577392,-5.32154 -12.890253,-1.84464 -12.890253,5.39139 0,6.68894 8.012413,9.90901 12.783775,5.13762 z m -8.469381,-1.99785 c -0.815702,-0.8157 -1.483088,-2.27177 -1.483088,-3.23576 0,-2.10775 2.421673,-4.71886 4.376425,-4.71886 2.707818,0 5.06129,1.95888 5.06129,4.21278 0,2.6955 -2.284451,5.22489 -4.718858,5.22489 -0.963982,0 -2.420102,-0.66735 -3.235769,-1.48305 z m 65.749192,15.3115 c -3.6101,-1.47349 -4.81585,-2.41411 -4.41592,-3.44479 0.30248,-0.77982 0.79152,-3.43513 1.0865,-5.90075 l 0.53634,-4.48291 h -6.59156 c -5.18724,0 -6.92433,-0.36768 -8.15349,-1.72588 -3.82668,-4.2284 -1.31227,-6.57835 7.44319,-6.95638 l 6.56706,-0.28357 -0.13161,-4.97953 c -0.0725,-2.73879 -0.6711,-6.28175 -1.33036,-7.873267 -0.99788,-2.409135 -0.97579,-3.034788 0.13163,-3.735866 1.65633,-1.048559 8.46616,-1.105144 10.0753,-0.08378 2.20917,1.402245 4.20629,14.125713 3.72802,23.750663 -0.43516,8.75779 -2.1931,18.02574 -3.3833,17.83726 -0.3278,-0.0521 -2.83051,-1.0065 -5.56184,-2.12131 z M 115.1533,62.961058 V 40.3106 h 33.03188 33.03193 l 0.1149,2.123471 c 0.20653,3.820972 0.21188,6.617822 0.0474,25.00989 l -0.16228,18.167554 H 148.1852 115.1533 Z m 41.5258,12.906193 c 0,-0.687715 -1.0335,-4.288959 -2.29664,-8.00285 -2.14848,-6.316732 -2.20212,-6.941987 -0.83161,-9.689291 1.78784,-3.583802 0.61619,-6.948056 -2.99233,-8.592195 -5.30534,-2.417286 -10.34312,3.372067 -7.64347,8.783705 1.24909,2.503782 1.16595,3.343924 -0.94477,9.54965 -1.27285,3.742384 -2.10734,7.343666 -1.85437,8.002851 0.66928,1.74415 16.56319,1.694395 16.56319,-0.05172 z M 119.32582,29.818483 c 0.94237,-7.103721 3.88236,-12.511471 9.68552,-17.81521 14.19328,-12.97186253 36.39929,-8.7361211 45.19469,8.620804 1.31922,2.603332 2.64618,6.823743 2.94877,9.378639 l 0.55014,4.64527 h -5.21503 -5.21503 l -0.6252,-4.169071 c -1.37749,-9.185818 -10.40132,-16.239418 -19.78043,-15.461633 -8.90684,0.738618 -17.55942,9.16356 -17.55942,17.097382 0,2.448534 -0.17764,2.533322 -5.31235,2.533322 h -5.31228 z"
     style="stroke-width:0.9437691" />
</svg>
