<?xml version="1.0" encoding="UTF-8" standalone="no"?>
<svg
   xmlns:dc="http://purl.org/dc/elements/1.1/"
   xmlns:cc="http://creativecommons.org/ns#"
   xmlns:rdf="http://www.w3.org/1999/02/22-rdf-syntax-ns#"
   xmlns:svg="http://www.w3.org/2000/svg"
   xmlns="http://www.w3.org/2000/svg"
   id="svg6"
   viewBox="0 0 20 20"
   height="20"
   width="20"
   version="1.1">
  <metadata
     id="metadata12">
    <rdf:RDF>
      <cc:Work
         rdf:about="">
        <dc:format>image/svg+xml</dc:format>
        <dc:type
           rdf:resource="http://purl.org/dc/dcmitype/StillImage" />
        <dc:title></dc:title>
      </cc:Work>
    </rdf:RDF>
  </metadata>
  <defs
     id="defs10" />
  <path
     style="stroke-width:0.37295216"
     id="path2"
     d="m 11.493975,8.7772456 c -1.131163,0 -2.0512361,-0.9200734 -2.0512361,-2.0512368 0,-1.1311642 0.9200731,-2.0512367 2.0512361,-2.0512367 1.131165,0 2.051237,0.9200725 2.051237,2.0512367 0,1.1311634 -0.920072,2.0512368 -2.051237,2.0512368 z m 0,-3.7295216 c -0.925294,0 -1.6782846,0.7529904 -1.6782846,1.6782848 0,0.9252944 0.7529906,1.6782851 1.6782846,1.6782851 0.925295,0 1.678284,-0.7529907 1.678284,-1.6782851 0,-0.9252944 -0.752989,-1.6782848 -1.678284,-1.6782848 z" />
  <path
     style="stroke-width:0.37295216"
     id="path4"
     d="M 14.477593,12.133817 H 8.5103588 c -0.3084317,0 -0.5594283,-0.250998 -0.5594283,-0.559429 0,-0.02536 0.00518,-0.628424 0.4568665,-1.230743 C 8.6707281,9.9930693 9.0306267,9.7144749 9.4777965,9.5160642 10.023799,9.273272 10.702197,9.1501984 11.493975,9.1501984 c 0.791777,0 1.470178,0.1230736 2.01618,0.3658658 0.447169,0.1987839 0.807069,0.4770051 1.069999,0.8275808 0.451645,0.602319 0.456867,1.205382 0.456867,1.230743 0,0.308431 -0.250997,0.559429 -0.559428,0.559429 z M 11.493975,9.5231502 c -1.300484,0 -2.2600892,0.3554227 -2.7751362,1.0278568 -0.3860049,0.503858 -0.3945832,1.018905 -0.3949563,1.024126 0,0.102191 0.083541,0.185731 0.1864763,0.185731 h 5.9672342 c 0.102937,0 0.186477,-0.08354 0.186477,-0.186476 0,-0.0044 -0.0086,-0.519523 -0.394958,-1.023381 C 13.753693,9.8785729 12.794087,9.5231502 11.493975,9.5231502 Z" />
  <path
     style="stroke-width:1.13619864"
     d="m 11.519431,0.49830472 c -4.4311737,0 -7.9533898,3.52221588 -7.9533898,7.95339108 0,0.9089597 0.1136206,1.7042972 0.4544797,2.4996362 L 3.225182,11.860293 2.6570818,12.428391 1.5208839,13.564589 c -0.68171918,0.68172 -1.02257908,1.477059 -1.02257908,2.499637 0,1.931536 1.59067848,3.522216 3.52221608,3.522216 0.9089586,0 1.7042974,-0.340859 2.3860173,-0.90896 v 0 L 6.5201587,18.563871 8.2244562,16.85957 9.1334153,16.064232 c 0.7953381,0.227239 1.5906777,0.45448 2.4996357,0.45448 4.431175,0 7.953391,-3.522217 7.953391,-7.9533911 0,-4.4311753 -3.635836,-8.06700998 -8.067011,-8.06700998 z m 0,13.63438428 c -3.1813551,0 -5.680993,-2.499637 -5.680993,-5.6809932 0,-3.1813583 2.4996379,-5.6809935 5.680993,-5.6809935 3.181357,0 5.680993,2.4996352 5.680993,5.6809935 0,3.1813562 -2.499636,5.6809932 -5.680993,5.6809932 z"
     id="path822" />
</svg>
