<?xml version="1.0" encoding="UTF-8" standalone="no"?>
<svg
   xmlns:dc="http://purl.org/dc/elements/1.1/"
   xmlns:cc="http://creativecommons.org/ns#"
   xmlns:rdf="http://www.w3.org/1999/02/22-rdf-syntax-ns#"
   xmlns:svg="http://www.w3.org/2000/svg"
   xmlns="http://www.w3.org/2000/svg"
   id="svg5"
   version="1.1"
   viewBox="0 0 42 36"
   height="36px"
   width="42px">
  <metadata
     id="metadata11">
    <rdf:RDF>
      <cc:Work
         rdf:about="">
        <dc:format>image/svg+xml</dc:format>
        <dc:type
           rdf:resource="http://purl.org/dc/dcmitype/StillImage" />
        <dc:title></dc:title>
      </cc:Work>
    </rdf:RDF>
  </metadata>
  <defs
     id="defs9" />
  <!-- Generator: Sketch 3.3.2 (12043) - http://www.bohemiancoding.com/sketch -->
  <path
     style="fill:#000000;stroke-width:0.29041898;fill-opacity:1"
     d="M 4.6558342,31.957984 C 4.5779,31.755019 4.5493608,28.520473 4.5923865,24.770111 l 0.078152,-6.818833 h 16.6990955 16.69909 v 7.115263 7.115264 h -9.148192 -9.148205 l -0.07903,-5.650037 c -0.05708,-4.074958 -0.178489,-5.713174 -0.435634,-5.876537 -0.606285,-0.385164 -9.3402698,-0.283709 -9.7370818,0.113102 -0.24698,0.246981 -0.348502,1.981307 -0.348502,5.953591 v 5.605089 h -2.187259 c -1.5008881,0 -2.23169,-0.115802 -2.3288673,-0.369029 z m 28.8469108,-7.399675 -0.08079,-3.993261 h -4.356281 -4.356285 l -0.08079,3.993261 -0.08079,3.99326 h 4.517892 4.517879 z M 1.7366961,16.526829 C 1.650532,16.302436 1.6220272,15.681662 1.6732549,15.147339 l 0.09308,-0.971516 2.6781359,-0.08342 c 2.6540114,-0.08265 2.6798064,-0.07673 2.8630694,0.65344 0.101752,0.405263 0.10296,1.063553 0.0023,1.462888 -0.177513,0.707258 -0.249946,0.726039 -2.7995806,0.726039 -1.979792,0 -2.6554811,-0.09934 -2.773908,-0.407973 z M 12.892782,16.281362 c -0.05225,-0.359392 -0.04654,-1.012831 0.01272,-1.452099 l 0.107789,-0.798648 h 2.72603 2.726015 v 1.452099 1.452088 h -2.738782 c -2.618458,0 -2.742964,-0.02876 -2.833804,-0.65344 z m 11.210387,0.256421 c -0.08836,-0.230418 -0.118886,-0.856121 -0.06772,-1.390444 l 0.09308,-0.971516 h 2.758979 2.758978 v 1.306891 1.30688 l -2.691275,0.08353 c -2.132673,0.06619 -2.724656,-0.0033 -2.852049,-0.335386 z m 11.322138,-0.01098 c -0.08606,-0.224391 -0.114684,-0.845166 -0.06345,-1.379489 l 0.09308,-0.971516 2.686379,-0.08353 2.68637,-0.08353 v 1.462999 1.462987 h -2.622881 c -1.984555,0 -2.660993,-0.09934 -2.77945,-0.407974 z M 2.2367075,12.896571 C 1.916733,12.693913 2.1437389,12.065038 3.3617971,9.779013 4.2010468,8.2039893 5.0181898,6.751967 5.1776645,6.5523051 5.5963532,6.028135 9.7528002,6.050461 9.7528002,6.5768891 c 0,0.6566781 -2.309382,6.1035419 -2.69042,6.3455499 -0.488663,0.310382 -4.3272753,0.289801 -4.8256727,-0.02591 z M 13.290418,12.90755 C 12.98167,12.711784 13.06618,12.050671 13.726041,9.4995752 l 0.818679,-3.1650967 2.149993,-0.086275 c 1.182505,-0.047417 2.250614,0.017892 2.373584,0.145208 0.3451,0.3572288 -0.512097,6.2388705 -0.949717,6.5164315 -0.494852,0.313849 -4.332434,0.311984 -4.828162,-0.0022 z m 11.346361,-0.04775 C 24.01449,12.609682 23.983328,12.444387 23.983328,9.3931815 V 6.1892147 h 2.297111 2.297122 l 0.343443,2.1055385 c 0.188905,1.1580507 0.448762,2.5981518 0.577471,3.2002328 0.194943,0.911881 0.145153,1.142266 -0.29812,1.379489 -0.657029,0.351631 -3.676414,0.341928 -4.563576,-0.01471 z m 10.913757,-0.05851 C 35.123431,12.46309 33.27674,7.3872532 33.27674,6.5514942 c 0,-0.258639 0.651221,-0.3623006 2.276003,-0.3623006 h 2.275993 l 1.503127,3.2393307 c 0.826728,1.7816337 1.465228,3.2772327 1.418895,3.3235647 -0.04632,0.04632 -1.130741,0.159181 -2.409807,0.250768 -1.657511,0.1187 -2.459088,0.06081 -2.790415,-0.201561 z M 4.815672,4.4522106 c 0,-0.3560433 0.249046,-0.6357022 0.6534513,-0.7337654 0.3593909,-0.087154 7.8413137,-0.1223223 16.6264827,-0.078153 l 15.973043,0.080348 0.09286,0.6534402 0.09275,0.6534507 H 21.534973 c -16.472076,0 -16.719301,-0.00878 -16.719301,-0.5753096 z"
     id="path851" />
</svg>
