<?xml version="1.0" encoding="UTF-8" standalone="no"?>
<!-- Created with Inkscape (http://www.inkscape.org/) -->

<svg
   xmlns:sketch="http://www.bohemiancoding.com/sketch/ns"
   xmlns:dc="http://purl.org/dc/elements/1.1/"
   xmlns:cc="http://creativecommons.org/ns#"
   xmlns:rdf="http://www.w3.org/1999/02/22-rdf-syntax-ns#"
   xmlns:svg="http://www.w3.org/2000/svg"
   xmlns="http://www.w3.org/2000/svg"
   xmlns:xlink="http://www.w3.org/1999/xlink"
   xmlns:sodipodi="http://sodipodi.sourceforge.net/DTD/sodipodi-0.dtd"
   xmlns:inkscape="http://www.inkscape.org/namespaces/inkscape"
   width="300mm"
   height="107mm"
   viewBox="0 0 300 107"
   version="1.1"
   id="svg8"
   sodipodi:docname="paper-wallet-header.svg"
   inkscape:version="0.92.2 5c3e80d, 2017-08-06">
  <defs
     id="defs2">
    <linearGradient
       gradientUnits="userSpaceOnUse"
       gradientTransform="matrix(0.04864707,0,0,0.07965578,-18.20824,239.54523)"
       x1="699.64471"
       y1="83.421288"
       x2="699.64471"
       y2="720.01819"
       id="linearGradient-1">
      <stop
         stop-color="#00A9E0"
         offset="0%"
         id="stop4595" />
      <stop
         stop-color="#00587C"
         offset="100%"
         id="stop4597" />
    </linearGradient>
    <linearGradient
       gradientUnits="userSpaceOnUse"
       gradientTransform="matrix(0.08879698,0,0,0.14539812,-20.660886,179.50973)"
       x1="699.64471"
       y1="83.421288"
       x2="699.64471"
       y2="720.01819"
       id="linearGradient-1-7"
       xlink:href="#linearGradient-1">
      <stop
         stop-color="#00A9E0"
         offset="0%"
         id="stop4595-5" />
      <stop
         stop-color="#00587C"
         offset="100%"
         id="stop4597-3" />
    </linearGradient>
  </defs>
  <sodipodi:namedview
     id="base"
     pagecolor="#ffffff"
     bordercolor="#666666"
     borderopacity="1.0"
     inkscape:pageopacity="0.0"
     inkscape:pageshadow="2"
     inkscape:zoom="0.9899495"
     inkscape:cx="178.81613"
     inkscape:cy="95.628763"
     inkscape:document-units="mm"
     inkscape:current-layer="layer1"
     showgrid="false"
     inkscape:window-width="2560"
     inkscape:window-height="1025"
     inkscape:window-x="0"
     inkscape:window-y="0"
     inkscape:window-maximized="1" />
  <metadata
     id="metadata5">
    <rdf:RDF>
      <cc:Work
         rdf:about="">
        <dc:format>image/svg+xml</dc:format>
        <dc:type
           rdf:resource="http://purl.org/dc/dcmitype/StillImage" />
        <dc:title></dc:title>
      </cc:Work>
    </rdf:RDF>
  </metadata>
  <g
     inkscape:label="Layer 1"
     inkscape:groupmode="layer"
     id="layer1"
     transform="translate(0,-190)">
    <g
       style="fill:none;fill-rule:evenodd;stroke:none;stroke-width:1"
       id="g4916"
       transform="matrix(0.1136262,0,0,0.1136262,35.791458,-144.1718)" />
    <text
       xml:space="preserve"
       style="font-style:normal;font-weight:normal;font-size:19.3180809px;line-height:1.25;font-family:sans-serif;letter-spacing:0px;word-spacing:0px;fill:#000000;fill-opacity:1;stroke:none;stroke-width:0.48295203"
       x="219.25389"
       y="-123.58757"
       id="text1070"><tspan
         sodipodi:role="line"
         id="tspan1068"
         x="219.25389"
         y="-106.4956"
         style="stroke-width:0.48295203" /></text>
    <path
       sketch:type="MSShapeGroup"
       id="Fill-1"
       d="m 13.466906,257.52281 c 0.438769,6.44858 2.936374,12.3145 6.825071,16.9085 l 12.983715,-13.32294 c -0.690912,-1.07091 -1.191889,-2.28309 -1.449327,-3.58556 z m 22.741914,6.41896 -13.067855,13.23815 c 4.506041,3.96489 10.259654,6.51143 16.5841,6.95814 V 265.4195 c -1.277545,-0.26316 -2.465834,-0.77327 -3.516245,-1.47773 z m 10.717845,0 c -1.050411,0.70446 -2.2387,1.21457 -3.516245,1.47773 v 18.71856 c 6.324444,-0.44671 12.078059,-2.99392 16.5841,-6.95814 z m 4.382453,-6.41896 c -0.257436,1.30247 -0.758413,2.51465 -1.449327,3.58489 l 12.983717,13.32361 c 3.888695,-4.594 6.386302,-10.45992 6.825071,-16.9085 z m 0,-3.91401 h 18.359461 c -0.438769,-6.44816 -2.936376,-12.31434 -6.825071,-16.90852 l -12.983717,13.32349 c 0.690914,1.07096 1.191891,2.28248 1.449327,3.58503 z M 46.926665,246.87671 59.99452,233.639 c -4.506041,-3.96476 -10.259656,-6.5119 -16.5841,-6.95857 v 18.71792 c 1.277545,0.26314 2.465834,0.77392 3.516245,1.47836 z m -33.613317,-23.02487 22.621746,23.18141 c 1.040437,-0.70493 2.217443,-1.21609 3.482857,-1.47875 V 215.50529 L 13.313348,191.76748 Z m 19.753761,26.18083 c -0.688474,1.0683 -1.187684,2.27683 -1.444212,3.57613 H 13.258321 v -23.95374 z"
       inkscape:connector-curvature="0"
       style="font-style:normal;font-weight:normal;font-size:medium;line-height:1.25;font-family:sans-serif;letter-spacing:0px;word-spacing:0px;fill:url(#linearGradient-1-7);fill-opacity:1;fill-rule:evenodd;stroke:#acd7f7;stroke-width:0.11418676;stroke-miterlimit:4;stroke-dasharray:none" />
    <g
       style="font-style:normal;font-weight:normal;font-size:medium;line-height:1.25;font-family:sans-serif;letter-spacing:0px;word-spacing:0px;fill:none;fill-opacity:1;fill-rule:evenodd;stroke:none;stroke-width:1"
       transform="matrix(0.1136262,0,0,0.1136262,55.344516,-208.46554)"
       sketch:type="MSLayerGroup"
       id="g4936" />
    <line
       style="font-style:normal;font-weight:normal;font-size:medium;line-height:1.25;font-family:sans-serif;letter-spacing:0px;word-spacing:0px;fill:#009fe3;fill-opacity:1;stroke:none;stroke-width:0.58793622"
       x1="120.33026"
       y1="220.71448"
       x2="120.33026"
       y2="220.71448"
       id="line5192" />
    <polygon
       style="font-style:normal;font-weight:normal;font-size:medium;line-height:1.25;font-family:sans-serif;letter-spacing:0px;word-spacing:0px;fill:#0079a5;fill-opacity:0.94117647;stroke:none;stroke-width:0.32209849"
       points="351.8,265.7 361.2,273.5 361.2,284.8 351.8,276.9 "
       id="polygon5194"
       transform="matrix(0.48295203,0,0,0.48295203,-53.532417,83.653056)" />
    <path
       style="font-style:normal;font-weight:normal;font-size:medium;line-height:1.25;font-family:sans-serif;letter-spacing:0px;word-spacing:0px;fill:#000000;fill-opacity:1;stroke:none;stroke-width:0.58793622;stroke-opacity:1"
       inkscape:connector-curvature="0"
       d="m 110.91274,228.73184 c -1.25567,-1.35225 -2.75283,-2.46305 -4.44316,-3.23578 -1.69033,-0.77272 -3.62214,-1.20736 -5.65054,-1.20736 -2.994299,0 -5.69883,0.82101 -7.968705,2.46305 -1.352265,0.96591 -2.511351,2.17328 -3.42896,3.57384 v -24.2442 H 86.76514 v 48.63328 h 2.656235 v -5.69884 c 0.917609,1.40056 2.076695,2.60795 3.42896,3.57386 2.269875,1.64202 4.92611,2.46304 7.968705,2.46304 2.0284,0 3.96021,-0.38635 5.65054,-1.15908 1.69033,-0.77272 3.18749,-1.83522 4.44316,-3.1875 1.25568,-1.35226 2.22158,-2.99428 2.89771,-4.8295 0.67614,-1.83523 1.0625,-3.91191 1.0625,-6.1335 0,-2.17328 -0.33807,-4.24997 -1.0625,-6.13349 -0.67613,-1.8352 -1.69033,-3.47726 -2.89771,-4.87782 z m 1.25568,11.05962 c 0,1.88352 -0.28977,3.62215 -0.82102,5.16756 -0.53125,1.54546 -1.35227,2.89772 -2.31817,3.96024 -1.0142,1.11078 -2.22158,1.9318 -3.62214,2.55963 -1.40056,0.57954 -2.94601,0.91762 -4.63634,0.91762 -1.690335,0 -3.235781,-0.28978 -4.636341,-0.91762 -1.400562,-0.57954 -2.607942,-1.44885 -3.62214,-2.55963 -1.014199,-1.11081 -1.786923,-2.41478 -2.366466,-3.96024 -0.531247,-1.54541 -0.821019,-3.28404 -0.821019,-5.16756 0,-1.88352 0.289772,-3.62213 0.821019,-5.16759 0.531248,-1.54545 1.352267,-2.89771 2.366466,-4.0085 1.014198,-1.1108 2.221578,-1.9801 3.62214,-2.60795 1.40056,-0.62783 2.946006,-0.91761 4.588041,-0.91761 1.64204,0 3.23578,0.28978 4.58805,0.91761 1.40056,0.62785 2.60794,1.49715 3.62214,2.60795 1.0142,1.11079 1.78692,2.46305 2.36646,4.0085 0.57955,1.54546 0.86932,3.28407 0.86932,5.16759 z"
       id="path5196" />
    <rect
       style="font-style:normal;font-weight:normal;font-size:medium;line-height:1.25;font-family:sans-serif;letter-spacing:0px;word-spacing:0px;fill:#000000;fill-opacity:1;stroke:none;stroke-width:0.58793622;stroke-opacity:1"
       x="118.54333"
       y="224.52979"
       width="2.6562362"
       height="30.570866"
       id="rect5198" />
    <path
       style="font-style:normal;font-weight:normal;font-size:medium;line-height:1.25;font-family:sans-serif;letter-spacing:0px;word-spacing:0px;fill:#000000;fill-opacity:1;stroke:none;stroke-width:0.58793622;stroke-opacity:1"
       inkscape:connector-curvature="0"
       d="m 137.57169,251.3823 c -0.77272,0.72443 -1.64204,1.06248 -2.70453,1.06248 -1.06249,0 -1.93181,-0.33805 -2.60794,-1.11078 -0.67613,-0.77272 -1.06249,-1.73863 -1.06249,-2.99429 v -20.96012 h 7.82382 v -2.70454 h -7.82382 v -10.0454 h -2.65624 v 10.0454 h -4.20168 v 2.65624 h 4.20168 v 20.96012 c 0,1.9318 0.57954,3.57383 1.78692,4.82952 1.20738,1.30398 2.70453,1.9318 4.53975,1.9318 0.86932,0 1.69033,-0.14499 2.41476,-0.48295 0.72443,-0.28976 1.35227,-0.67613 1.93181,-1.15909 l 0.57954,-0.48293 -1.54545,-2.26987 z"
       id="path5200" />
    <path
       style="font-style:normal;font-weight:normal;font-size:medium;line-height:1.25;font-family:sans-serif;letter-spacing:0px;word-spacing:0px;fill:#0079a5;fill-opacity:0.94117647;stroke:none;stroke-width:0.58793622"
       inkscape:connector-curvature="0"
       d="m 159.88407,240.95053 c -0.82102,-0.62783 -1.73863,-1.11079 -2.75283,-1.44885 -0.96589,-0.33807 -1.9801,-0.62785 -2.946,-0.91761 l -1.83521,-0.53124 c -0.72444,-0.19318 -1.49715,-0.38637 -2.22159,-0.67615 -0.67613,-0.24148 -1.35226,-0.57954 -1.9318,-0.96589 -0.53126,-0.38637 -1.0142,-0.91761 -1.35226,-1.59374 -0.33807,-0.67613 -0.53126,-1.54544 -0.53126,-2.60796 0,-0.8693 0.19319,-1.64202 0.57954,-2.26986 0.38637,-0.62785 0.91761,-1.20739 1.49715,-1.59374 0.62785,-0.43466 1.40057,-0.77272 2.22159,-0.9659 0.82102,-0.24147 1.69032,-0.33808 2.51135,-0.33808 1.44886,0 2.80112,0.19317 3.91191,0.57954 1.11078,0.38637 2.22158,0.96591 3.28408,1.78693 l 0.62783,0.48294 1.54545,-2.12496 -0.57954,-0.48297 c -1.30398,-1.06248 -2.65624,-1.78693 -4.10511,-2.26987 -1.40054,-0.48296 -2.9943,-0.67615 -4.73291,-0.67615 -1.1108,0 -2.26989,0.145 -3.38067,0.43467 -1.11078,0.28978 -2.17328,0.77272 -3.09089,1.44887 -0.91761,0.67613 -1.69035,1.49715 -2.26989,2.46304 -0.57954,1.0142 -0.8693,2.22159 -0.8693,3.57385 0,1.59375 0.28976,2.89771 0.8693,3.91193 0.57954,0.96587 1.25569,1.78689 2.0767,2.41474 0.82102,0.57954 1.69034,1.0625 2.65623,1.35228 0.86933,0.28976 1.73863,0.53124 2.46307,0.72441 l 1.83521,0.53124 c 0.91761,0.24148 1.83522,0.53124 2.65624,0.82102 0.77272,0.28977 1.49715,0.62785 2.0767,1.0625 0.53124,0.38635 1.01419,0.91763 1.30397,1.59374 0.33807,0.67613 0.48294,1.54546 0.48294,2.60794 0,0.91762 -0.19318,1.73863 -0.62783,2.36647 -0.43465,0.67613 -0.96591,1.20739 -1.64204,1.59376 -0.67613,0.43463 -1.49715,0.72441 -2.36646,0.91759 -0.91761,0.19319 -1.83521,0.28976 -2.75282,0.28976 -1.69035,0 -3.28409,-0.33805 -4.78124,-0.96589 -1.49715,-0.62783 -2.84941,-1.54546 -4.0085,-2.70454 l -0.62784,-0.57953 -1.78692,2.0767 0.53124,0.53124 c 1.44887,1.40056 3.09089,2.46306 4.87783,3.23578 1.83521,0.72441 3.76702,1.11078 5.79543,1.11078 1.11078,0 2.26987,-0.145 3.42895,-0.38637 1.20737,-0.24147 2.26987,-0.72441 3.23578,-1.30395 0.9659,-0.62785 1.78692,-1.40057 2.41476,-2.41476 0.62783,-1.0142 0.9659,-2.26989 0.9659,-3.76704 0,-1.54544 -0.24148,-2.80111 -0.77272,-3.81533 -0.38637,-1.01417 -1.0625,-1.8352 -1.88352,-2.51134 z"
       id="path5202" />
    <path
       style="font-style:normal;font-weight:normal;font-size:medium;line-height:1.25;font-family:sans-serif;letter-spacing:0px;word-spacing:0px;fill:#0079a5;fill-opacity:0.94117647;stroke:none;stroke-width:0.58793622"
       inkscape:connector-curvature="0"
       d="m 186.39815,227.95914 c -1.0142,-1.01422 -2.17329,-1.78694 -3.57385,-2.36648 -1.35228,-0.57954 -2.84942,-0.86932 -4.39487,-0.86932 -2.17328,0 -4.20169,0.57954 -5.94032,1.69034 -0.96589,0.62783 -1.8352,1.35228 -2.51133,2.22159 v -22.11921 h -2.65626 v 48.58496 h 2.65626 v -19.12489 c 0,-1.20739 0.24146,-2.36647 0.62783,-3.38067 0.43465,-1.06248 1.01419,-1.98009 1.78693,-2.75282 0.77272,-0.77272 1.64202,-1.40057 2.70452,-1.83522 1.0142,-0.43465 2.17328,-0.62783 3.33237,-0.62783 1.15909,0 2.26987,0.24146 3.28409,0.62783 1.01419,0.43465 1.9318,1.0625 2.65622,1.83522 0.77273,0.77273 1.35228,1.69034 1.78693,2.75282 0.43467,1.0142 0.62783,2.17328 0.62783,3.38067 v 19.12489 h 2.75284 v -19.12489 c 0,-1.59374 -0.28976,-3.09089 -0.86931,-4.44315 -0.48297,-1.40058 -1.30399,-2.55967 -2.26988,-3.57384 z"
       id="path5204" />
    <path
       style="font-style:normal;font-weight:normal;font-size:medium;line-height:1.25;font-family:sans-serif;letter-spacing:0px;word-spacing:0px;fill:#0079a5;fill-opacity:0.94117647;stroke:none;stroke-width:0.58793622"
       inkscape:connector-curvature="0"
       d="m 214.69915,228.34549 c -0.8693,-1.25568 -2.02839,-2.26989 -3.52554,-2.99431 -1.44887,-0.67613 -3.33237,-1.06248 -5.60224,-1.06248 -1.01421,0 -2.36646,0.0966 -3.91191,0.33805 -1.59374,0.2415 -3.38067,0.77274 -5.26419,1.54545 l -0.77272,0.33807 1.11078,2.51135 0.72446,-0.33807 c 1.64202,-0.72441 3.18747,-1.20737 4.58804,-1.40056 1.44885,-0.19318 2.65623,-0.28976 3.52554,-0.28976 1.73863,0 3.18748,0.24145 4.24998,0.72443 1.06248,0.48294 1.8835,1.15908 2.51134,1.98009 0.62783,0.86932 1.0625,1.9801 1.30398,3.23578 0.19318,1.0625 0.33807,2.22158 0.38635,3.47726 -3.23576,-0.67613 -6.08519,-1.0142 -8.59654,-1.0142 -3.9602,0 -7.0511,0.86931 -9.17608,2.51135 -1.44885,1.15908 -2.41478,2.51135 -2.84943,3.96021 -0.43468,1.40055 -0.62787,2.65624 -0.62787,3.76702 0,0.82102 0.145,1.78693 0.43467,2.84942 0.28976,1.06248 0.82104,2.12499 1.54547,3.09089 0.72442,0.96591 1.73863,1.78691 2.99431,2.46306 1.25567,0.67613 2.84941,1.06248 4.78121,1.06248 0.96592,0 1.98011,-0.0966 3.1392,-0.33807 1.11078,-0.24147 2.22158,-0.57954 3.33237,-1.06248 1.11078,-0.48295 2.22158,-1.11078 3.23578,-1.8835 0.67613,-0.53127 1.35226,-1.15908 1.9318,-1.83523 v 4.78121 h 2.65624 v -16.46866 c 0,-1.98009 -0.145,-3.81533 -0.38637,-5.45735 -0.33807,-1.73863 -0.91761,-3.23578 -1.73863,-4.49145 z m -0.57954,10.86642 v 2.60794 c 0,0.91761 -0.0966,1.9318 -0.28976,2.89771 -0.145,0.91761 -0.53124,1.78692 -1.11079,2.60794 -0.62784,0.91761 -1.40056,1.69033 -2.22158,2.36647 -0.86931,0.67614 -1.73863,1.20738 -2.65624,1.59373 -0.91761,0.38636 -1.83522,0.67614 -2.75283,0.86932 -0.91762,0.19319 -1.78693,0.28976 -2.60795,0.28976 -1.40054,0 -2.55963,-0.24146 -3.47724,-0.72441 -0.91763,-0.48294 -1.64204,-1.11079 -2.12498,-1.78694 -0.53127,-0.67613 -0.86932,-1.40054 -1.11082,-2.17326 -0.19317,-0.77274 -0.33804,-1.44887 -0.33804,-2.02841 0,-0.86931 0.14499,-1.83522 0.48295,-2.946 0.28976,-1.01421 0.96591,-1.88352 1.93181,-2.70454 1.69032,-1.30396 4.20169,-1.9318 7.48573,-1.9318 2.51137,-0.0484 5.45739,0.33806 8.78974,1.06249 z"
       id="path5206" />
    <path
       style="font-style:normal;font-weight:normal;font-size:medium;line-height:1.25;font-family:sans-serif;letter-spacing:0px;word-spacing:0px;fill:#0079a5;fill-opacity:0.94117647;stroke:none;stroke-width:0.58793622"
       inkscape:connector-curvature="0"
       d="m 236.48029,226.26879 c -0.72443,-0.48295 -1.54545,-0.8693 -2.46306,-1.15908 -0.91759,-0.28977 -1.8352,-0.43466 -2.80111,-0.43466 -1.8835,0 -3.62213,0.53124 -5.16759,1.54546 -0.72443,0.48293 -1.40056,1.06248 -1.9801,1.73863 v -2.94602 h -2.75283 v 30.0879 h 2.75283 v -19.70443 c 0,-1.15909 0.19317,-2.22158 0.53124,-3.1875 0.38637,-0.96589 0.86932,-1.83519 1.54545,-2.55963 0.62783,-0.72443 1.40057,-1.30397 2.26987,-1.69032 1.49717,-0.67615 3.28407,-0.77272 4.78122,-0.24148 0.67615,0.24148 1.30399,0.57954 1.88354,0.96589 l 0.8693,0.57954 0.96589,-2.65621 z"
       id="path5208" />
    <path
       style="font-style:normal;font-weight:normal;font-size:medium;line-height:1.25;font-family:sans-serif;letter-spacing:0px;word-spacing:0px;fill:#0079a5;fill-opacity:0.94117647;stroke:none;stroke-width:0.58793622"
       inkscape:connector-curvature="0"
       d="m 239.42631,238.72896 h 24.19588 l -0.0484,-0.86931 c -0.145,-2.02841 -0.57954,-3.91193 -1.20735,-5.55395 -0.67615,-1.64204 -1.54546,-3.09089 -2.65624,-4.24998 -1.1108,-1.15908 -2.46308,-2.12499 -3.96023,-2.75284 -1.49714,-0.62783 -3.23577,-0.96591 -5.07098,-0.96591 -2.02841,0 -3.9602,0.38637 -5.65056,1.15909 -1.69033,0.77273 -3.18748,1.83523 -4.44313,3.23578 -1.20739,1.35228 -2.1733,2.99432 -2.84942,4.92612 -0.67615,1.88352 -1.01421,3.96022 -1.01421,6.18178 0,2.22159 0.33806,4.29828 1.01421,6.1335 0.67612,1.8835 1.64203,3.52556 2.84942,4.87782 1.20737,1.35226 2.70452,2.46305 4.44313,3.18748 1.69036,0.72441 3.62215,1.11078 5.65056,1.11078 2.26987,0 4.34656,-0.33806 6.23006,-1.06248 1.93183,-0.67615 3.57385,-1.69033 4.97441,-2.99432 l 0.57955,-0.53124 -1.69033,-1.98009 -0.62785,0.53124 c -1.15908,1.01418 -2.55963,1.83522 -4.15337,2.46305 -1.59375,0.57954 -3.38067,0.8693 -5.31247,0.8693 -1.64204,0 -3.18748,-0.28976 -4.53974,-0.91759 -1.35228,-0.62784 -2.55967,-1.49715 -3.52556,-2.55967 -0.96591,-1.11078 -1.78693,-2.41474 -2.31818,-3.96019 -0.53124,-1.54546 -0.821,-3.28409 -0.821,-5.16759 v -0.91761 c -0.0484,-0.0966 -0.0484,-0.145 -0.0484,-0.19317 z m 0.38635,-2.65624 c 0.2415,-1.15908 0.62783,-2.22157 1.15909,-3.18748 0.62782,-1.20739 1.40056,-2.26987 2.36645,-3.13919 0.96591,-0.86931 2.0767,-1.54545 3.28409,-2.02839 1.20739,-0.48298 2.60793,-0.72443 4.0568,-0.72443 1.64202,0 3.04259,0.28976 4.24997,0.821 1.20738,0.53126 2.17329,1.25569 2.99431,2.1733 0.82102,0.91761 1.44885,1.98011 1.9318,3.13917 0.38637,0.91763 0.67613,1.93181 0.86931,2.94602 z"
       id="path5210" />
    <path
       style="font-style:normal;font-weight:normal;font-size:medium;line-height:1.25;font-family:sans-serif;letter-spacing:0px;word-spacing:0px;fill:#0079a5;fill-opacity:0.94117647;stroke:none;stroke-width:0.58793622"
       inkscape:connector-curvature="0"
       d="m 286.07946,243.41361 c -0.53124,-1.01422 -1.20737,-1.83524 -2.02839,-2.46308 -0.82102,-0.62783 -1.73863,-1.11079 -2.75284,-1.44885 -0.96588,-0.33807 -1.98009,-0.62785 -2.946,-0.91761 l -1.8352,-0.53124 c -0.72445,-0.19318 -1.49717,-0.38637 -2.2216,-0.67615 -0.67611,-0.24148 -1.35226,-0.57954 -1.93181,-0.96589 -0.53124,-0.38637 -1.01417,-0.91761 -1.35226,-1.59374 -0.33806,-0.67613 -0.53124,-1.54544 -0.53124,-2.60796 0,-0.8693 0.19318,-1.64202 0.57955,-2.26986 0.38635,-0.62785 0.91759,-1.20739 1.54543,-1.59374 0.62785,-0.43466 1.40057,-0.77272 2.22159,-0.9659 0.82102,-0.24147 1.69034,-0.33808 2.51134,-0.33808 1.44887,0 2.80113,0.19317 3.91191,0.57954 1.11081,0.38637 2.22159,0.96591 3.28409,1.78693 l 0.62783,0.48294 1.54545,-2.12496 -0.57954,-0.48297 c -1.30398,-1.06248 -2.65624,-1.78693 -4.10509,-2.26987 -1.40056,-0.48296 -2.99432,-0.67615 -4.73295,-0.67615 -1.11078,0 -2.26987,0.145 -3.38065,0.43467 -1.11079,0.28978 -2.17328,0.77272 -3.09091,1.44887 -0.91759,0.67613 -1.69033,1.49715 -2.26987,2.46304 -0.57954,1.0142 -0.86931,2.22159 -0.86931,3.57385 0,1.59375 0.28977,2.89771 0.86931,3.91193 0.57954,0.96587 1.25569,1.78689 2.07669,2.41474 0.82103,0.57954 1.69035,1.0625 2.65624,1.35228 0.86933,0.28976 1.73863,0.53124 2.46306,0.72441 l 1.83522,0.53124 c 0.91761,0.24148 1.83522,0.53124 2.65624,0.82102 0.77272,0.28977 1.49715,0.62785 2.07669,1.0625 0.53124,0.38635 1.0142,0.91763 1.30396,1.59374 0.33808,0.67613 0.48298,1.54546 0.48298,2.60794 0,0.91762 -0.1932,1.73863 -0.62785,2.36647 -0.43467,0.67613 -0.96591,1.20739 -1.64204,1.59376 -0.67613,0.43463 -1.49714,0.72441 -2.36646,0.91759 -2.55965,0.57954 -5.21589,0.33806 -7.53404,-0.67613 -1.49717,-0.62783 -2.84945,-1.54546 -4.00852,-2.70454 l -0.62783,-0.57953 -1.78693,2.0767 0.53124,0.53124 c 1.44887,1.40056 3.09089,2.46306 4.87782,3.23578 1.83522,0.72441 3.76703,1.11078 5.79544,1.11078 1.11078,0 2.26987,-0.145 3.42895,-0.38637 1.20737,-0.24147 2.26987,-0.72441 3.23578,-1.30395 0.96591,-0.62785 1.78692,-1.40057 2.41476,-2.41476 0.62785,-1.0142 0.96589,-2.26989 0.96589,-3.76704 0.0966,-1.54544 -0.14499,-2.84942 -0.67613,-3.86359 z"
       id="path5212" />
    <text
       xml:space="preserve"
       style="font-style:normal;font-weight:normal;font-size:5.79542446px;line-height:125%;font-family:Sans;text-align:center;letter-spacing:0px;word-spacing:0px;text-anchor:middle;fill:#000000;fill-opacity:1;stroke:none;stroke-width:0.48295203px;stroke-linecap:butt;stroke-linejoin:miter;stroke-opacity:1"
       x="219.93147"
       y="277.52765"
       id="text1076"><tspan
         sodipodi:role="line"
         x="219.93147"
         y="277.52765"
         style="font-size:20.60595322px;stroke-width:0.48295203px"
         id="tspan1191">paper  wallet</tspan></text>
    <text
       xml:space="preserve"
       style="font-style:normal;font-weight:normal;font-size:5.79542446px;line-height:125%;font-family:Sans;text-align:center;letter-spacing:0px;word-spacing:0px;text-anchor:middle;fill:#000000;fill-opacity:1;stroke:none;stroke-width:0.48295203px;stroke-linecap:butt;stroke-linejoin:miter;stroke-opacity:1"
       x="229.63815"
       y="-122.3503"
       id="text1076-0"><tspan
         sodipodi:role="line"
         x="229.63815"
         y="-117.22271"
         style="font-size:18.03021049px;stroke-width:0.48295203px"
         id="tspan1191-9" /></text>
    <text
       xml:space="preserve"
       style="font-style:normal;font-weight:normal;font-size:5.79542446px;line-height:125%;font-family:Sans;text-align:center;letter-spacing:0px;word-spacing:0px;text-anchor:middle;fill:#000000;fill-opacity:1;stroke:none;stroke-width:0.48295203px;stroke-linecap:butt;stroke-linejoin:miter;stroke-opacity:1"
       x="192.56985"
       y="-114.91393"
       id="text1076-0-5"><tspan
         sodipodi:role="line"
         x="192.56985"
         y="-109.78634"
         style="font-size:18.03021049px;stroke-width:0.48295203px"
         id="tspan1191-9-3" /></text>
    <path
       style="fill:none;stroke:#005a7e;stroke-width:1.56961465;stroke-linecap:butt;stroke-linejoin:miter;stroke-miterlimit:4;stroke-dasharray:none;stroke-opacity:1"
       d="M 298.40786,285.02382 H 286.4803 69.052982 69.018545 c -0.01396,0.0377 -0.04714,0.004 -0.06656,0.005 -0.05778,0.0535 -0.161656,0.15478 -0.219759,0.20796 -7.109457,6.50856 -16.570491,10.48516 -26.960773,10.50314 -21.502929,0.0373 -39.0844886,-16.8937 -40.0941695,-38.19103"
       id="path1490"
       inkscape:connector-curvature="0"
       sodipodi:nodetypes="cccccssc" />
  </g>
</svg>
