<?xml version="1.0" encoding="UTF-8" standalone="no"?>
<!-- Created with Inkscape (http://www.inkscape.org/) -->

<svg
   xmlns:sketch="http://www.bohemiancoding.com/sketch/ns"
   xmlns:dc="http://purl.org/dc/elements/1.1/"
   xmlns:cc="http://creativecommons.org/ns#"
   xmlns:rdf="http://www.w3.org/1999/02/22-rdf-syntax-ns#"
   xmlns:svg="http://www.w3.org/2000/svg"
   xmlns="http://www.w3.org/2000/svg"
   xmlns:xlink="http://www.w3.org/1999/xlink"
   xmlns:sodipodi="http://sodipodi.sourceforge.net/DTD/sodipodi-0.dtd"
   xmlns:inkscape="http://www.inkscape.org/namespaces/inkscape"
   width="167mm"
   height="60mm"
   viewBox="0 0 167 60"
   version="1.1"
   id="svg8"
   sodipodi:docname="paper-wallet-header.svg"
   inkscape:version="0.92.2 5c3e80d, 2017-08-06">
  <defs
     id="defs2">
    <linearGradient
       gradientUnits="userSpaceOnUse"
       gradientTransform="matrix(0.04864707,0,0,0.07965578,-18.20824,239.54523)"
       x1="699.64471"
       y1="83.421288"
       x2="699.64471"
       y2="720.01819"
       id="linearGradient-1">
      <stop
         stop-color="#00A9E0"
         offset="0%"
         id="stop4595" />
      <stop
         stop-color="#00587C"
         offset="100%"
         id="stop4597" />
    </linearGradient>
    <linearGradient
       gradientUnits="userSpaceOnUse"
       gradientTransform="matrix(0.04899176,0,0,0.08022018,-10.998715,231.96453)"
       x1="699.64471"
       y1="83.421288"
       x2="699.64471"
       y2="720.01819"
       id="linearGradient-1-7"
       xlink:href="#linearGradient-1">
      <stop
         stop-color="#00A9E0"
         offset="0%"
         id="stop4595-5" />
      <stop
         stop-color="#00587C"
         offset="100%"
         id="stop4597-3" />
    </linearGradient>
  </defs>
  <sodipodi:namedview
     id="base"
     pagecolor="#ffffff"
     bordercolor="#666666"
     borderopacity="1.0"
     inkscape:pageopacity="0.0"
     inkscape:pageshadow="2"
     inkscape:zoom="1.979899"
     inkscape:cx="245.96653"
     inkscape:cy="137.01823"
     inkscape:document-units="mm"
     inkscape:current-layer="layer1"
     showgrid="false"
     inkscape:window-width="2560"
     inkscape:window-height="1025"
     inkscape:window-x="0"
     inkscape:window-y="0"
     inkscape:window-maximized="1" />
  <metadata
     id="metadata5">
    <rdf:RDF>
      <cc:Work
         rdf:about="">
        <dc:format>image/svg+xml</dc:format>
        <dc:type
           rdf:resource="http://purl.org/dc/dcmitype/StillImage" />
        <dc:title></dc:title>
      </cc:Work>
    </rdf:RDF>
  </metadata>
  <g
     inkscape:label="Layer 1"
     inkscape:groupmode="layer"
     id="layer1"
     transform="translate(0,-237)">
    <g
       style="fill:none;fill-rule:evenodd;stroke:none;stroke-width:1"
       id="g4916"
       transform="matrix(0.06269073,0,0,0.06269073,20.14761,53.380442)" />
    <text
       xml:space="preserve"
       style="font-style:normal;font-weight:normal;font-size:10.65832138px;line-height:1.25;font-family:sans-serif;letter-spacing:0px;word-spacing:0px;fill:#000000;fill-opacity:1;stroke:none;stroke-width:0.26645803"
       x="121.36893"
       y="64.737335"
       id="text1070"><tspan
         sodipodi:role="line"
         id="tspan1068"
         x="121.36893"
         y="74.16745"
         style="stroke-width:0.26645803" /></text>
    <path
       sketch:type="MSShapeGroup"
       id="Fill-1"
       d="m 7.8305348,275.00651 c 0.242081,3.55786 1.620079,6.79425 3.7655812,9.32889 l 7.163476,-7.35064 c -0.381195,-0.59085 -0.657598,-1.25964 -0.799634,-1.97825 z m 12.5473452,3.54152 -7.209898,7.30385 c 2.486108,2.18754 5.660536,3.59254 9.149908,3.839 v -10.32755 c -0.704857,-0.14519 -1.360469,-0.42663 -1.94001,-0.8153 z m 5.913333,0 c -0.579541,0.38867 -1.235153,0.67011 -1.94001,0.8153 v 10.32755 c 3.489371,-0.24646 6.6638,-1.65183 9.149908,-3.839 z m 2.417921,-3.54152 c -0.142035,0.71861 -0.418438,1.3874 -0.799634,1.97788 l 7.163477,7.35101 c 2.145501,-2.53464 3.5235,-5.77103 3.765581,-9.32889 z m 0,-2.15947 h 10.129424 c -0.242081,-3.55763 -1.62008,-6.79416 -3.765581,-9.3289 l -7.163477,7.35094 c 0.381196,0.59088 0.657599,1.25931 0.799634,1.97796 z m -2.417921,-3.71428 7.209898,-7.30361 c -2.486108,-2.18747 -5.660537,-3.5928 -9.149908,-3.83924 v 10.3272 c 0.704857,0.14518 1.360469,0.42699 1.94001,0.81565 z M 7.7458128,256.4293 20.226858,269.21913 c 0.574038,-0.38893 1.223425,-0.67095 1.921589,-0.81587 V 251.82428 L 7.7458128,238.72747 Z m 10.8986982,14.44469 c -0.37985,0.58941 -0.655278,1.25619 -0.796812,1.97305 H 7.7154528 V 259.6311 Z"
       inkscape:connector-curvature="0"
       style="font-style:normal;font-weight:normal;font-size:medium;line-height:1.25;font-family:sans-serif;letter-spacing:0px;word-spacing:0px;fill:url(#linearGradient-1-7);fill-opacity:1;fill-rule:evenodd;stroke:#acd7f7;stroke-width:0.063;stroke-miterlimit:4;stroke-dasharray:none" />
    <g
       style="font-style:normal;font-weight:normal;font-size:medium;line-height:1.25;font-family:sans-serif;letter-spacing:0px;word-spacing:0px;fill:none;fill-opacity:1;fill-rule:evenodd;stroke:none;stroke-width:1"
       transform="matrix(0.06269073,0,0,0.06269073,30.935575,17.907805)"
       sketch:type="MSLayerGroup"
       id="g4936" />
    <line
       style="font-style:normal;font-weight:normal;font-size:medium;line-height:1.25;font-family:sans-serif;letter-spacing:0px;word-spacing:0px;fill:#009fe3;fill-opacity:1;stroke:none;stroke-width:0.32438073"
       x1="66.790016"
       y1="254.69833"
       x2="66.790016"
       y2="254.69833"
       id="line5192" />
    <polygon
       style="font-style:normal;font-weight:normal;font-size:medium;line-height:1.25;font-family:sans-serif;letter-spacing:0px;word-spacing:0px;fill:#0079a5;fill-opacity:0.94117647;stroke:none;stroke-width:0.32209849"
       points="361.2,273.5 361.2,284.8 351.8,276.9 351.8,265.7 "
       id="polygon5194"
       transform="matrix(0.26645804,0,0,0.26645804,-29.134851,179.07774)" />
    <path
       style="font-style:normal;font-weight:normal;font-size:medium;line-height:1.25;font-family:sans-serif;letter-spacing:0px;word-spacing:0px;fill:#000000;fill-opacity:1;stroke:none;stroke-width:0.32438073;stroke-opacity:1"
       inkscape:connector-curvature="0"
       d="m 61.594107,259.12173 c -0.692791,-0.74607 -1.518811,-1.35893 -2.451415,-1.78527 -0.932602,-0.42633 -1.998435,-0.66613 -3.117559,-0.66613 -1.652039,0 -3.144204,0.45297 -4.396557,1.35893 -0.746082,0.53292 -1.385582,1.19906 -1.891852,1.97179 v -13.3762 h -1.465519 v 26.83233 h 1.465519 v -3.14421 c 0.50627,0.77273 1.14577,1.43888 1.891852,1.9718 1.252353,0.90595 2.717872,1.35893 4.396557,1.35893 1.119124,0 2.184957,-0.21316 3.117559,-0.6395 0.932604,-0.42633 1.758624,-1.01254 2.451415,-1.75863 0.692791,-0.74608 1.225706,-1.65203 1.598748,-2.66457 0.373042,-1.01255 0.586207,-2.15831 0.586207,-3.38402 0,-1.19906 -0.18652,-2.34483 -0.586207,-3.38402 -0.373042,-1.01253 -0.932603,-1.9185 -1.598748,-2.69123 z m 0.692791,6.1019 c 0,1.03919 -0.159875,1.99844 -0.452979,2.85109 -0.293104,0.85267 -0.746082,1.59875 -1.278999,2.18497 -0.559561,0.61285 -1.225706,1.06583 -1.998435,1.41222 -0.772729,0.31975 -1.625394,0.50628 -2.557997,0.50628 -0.932604,0 -1.785269,-0.15988 -2.557997,-0.50628 -0.772729,-0.31975 -1.438874,-0.79937 -1.998435,-1.41222 -0.559562,-0.61286 -0.985895,-1.3323 -1.305645,-2.18497 -0.293104,-0.85265 -0.452979,-1.8119 -0.452979,-2.85109 0,-1.03919 0.159875,-1.99843 0.452979,-2.8511 0.293104,-0.85267 0.746083,-1.59875 1.305645,-2.2116 0.559561,-0.61286 1.225706,-1.09248 1.998435,-1.43888 0.772728,-0.34639 1.625393,-0.50627 2.531351,-0.50627 0.905957,0 1.785269,0.15988 2.531351,0.50627 0.772729,0.3464 1.438874,0.82602 1.998435,1.43888 0.559562,0.61285 0.985896,1.35893 1.305646,2.2116 0.319749,0.85267 0.479624,1.81191 0.479624,2.8511 z"
       id="path5196" />
    <rect
       style="font-style:normal;font-weight:normal;font-size:medium;line-height:1.25;font-family:sans-serif;letter-spacing:0px;word-spacing:0px;fill:#000000;fill-opacity:1;stroke:none;stroke-width:0.32438073;stroke-opacity:1"
       x="65.804115"
       y="256.80334"
       width="1.4655192"
       height="16.866795"
       id="rect5198" />
    <path
       style="font-style:normal;font-weight:normal;font-size:medium;line-height:1.25;font-family:sans-serif;letter-spacing:0px;word-spacing:0px;fill:#000000;fill-opacity:1;stroke:none;stroke-width:0.32438073;stroke-opacity:1"
       inkscape:connector-curvature="0"
       d="m 76.302591,271.61862 c -0.426334,0.39969 -0.905959,0.5862 -1.492166,0.5862 -0.586207,0 -1.065832,-0.18651 -1.438873,-0.61285 -0.373042,-0.42633 -0.586208,-0.95925 -0.586208,-1.65203 v -11.56428 h 4.316624 v -1.49217 h -4.316624 v -5.54233 h -1.465519 v 5.54233 H 69.00164 v 1.46552 h 2.318185 v 11.56428 c 0,1.06583 0.319749,1.97178 0.985895,2.66458 0.666145,0.71944 1.492164,1.06583 2.504705,1.06583 0.479625,0 0.932604,-0.08 1.332291,-0.26646 0.399687,-0.15987 0.746082,-0.37304 1.065832,-0.6395 l 0.31975,-0.26645 -0.852667,-1.25235 z"
       id="path5200" />
    <path
       style="font-style:normal;font-weight:normal;font-size:medium;line-height:1.25;font-family:sans-serif;letter-spacing:0px;word-spacing:0px;fill:#0079a5;fill-opacity:0.94117647;stroke:none;stroke-width:0.32438073"
       inkscape:connector-curvature="0"
       d="m 88.612948,265.86312 c -0.45298,-0.34639 -0.95925,-0.61285 -1.51881,-0.79937 -0.53291,-0.18652 -1.09248,-0.3464 -1.62539,-0.50627 l -1.01254,-0.2931 c -0.39969,-0.10658 -0.82602,-0.21317 -1.22571,-0.37305 -0.37304,-0.13323 -0.74608,-0.31975 -1.06583,-0.53291 -0.29311,-0.21317 -0.55956,-0.50627 -0.74608,-0.87931 -0.18652,-0.37304 -0.29311,-0.85266 -0.29311,-1.43888 0,-0.47962 0.10659,-0.90595 0.31975,-1.25235 0.21317,-0.3464 0.50627,-0.66615 0.82602,-0.87931 0.3464,-0.23981 0.77273,-0.42633 1.22571,-0.53291 0.45298,-0.13323 0.9326,-0.18653 1.38558,-0.18653 0.79938,0 1.54546,0.10658 2.15831,0.31975 0.61285,0.21317 1.22571,0.53292 1.81192,0.9859 l 0.34639,0.26645 0.85267,-1.1724 -0.31975,-0.26647 c -0.71944,-0.5862 -1.46552,-0.9859 -2.2649,-1.25235 -0.77272,-0.26646 -1.65204,-0.37305 -2.61128,-0.37305 -0.61286,0 -1.25236,0.08 -1.86521,0.23982 -0.61285,0.15988 -1.19906,0.42633 -1.70533,0.79938 -0.50627,0.37304 -0.93261,0.82602 -1.25236,1.35893 -0.31975,0.55956 -0.47962,1.22571 -0.47962,1.97179 0,0.87932 0.15987,1.59875 0.47962,2.15832 0.31975,0.5329 0.6928,0.98588 1.14577,1.33228 0.45298,0.31975 0.93261,0.58621 1.46552,0.74609 0.47963,0.15987 0.95925,0.2931 1.35894,0.39968 l 1.01254,0.2931 c 0.50627,0.13323 1.01254,0.2931 1.46552,0.45298 0.42633,0.15987 0.82602,0.3464 1.14577,0.58621 0.2931,0.21316 0.55956,0.50628 0.71944,0.87931 0.18652,0.37304 0.26645,0.85267 0.26645,1.43887 0,0.50628 -0.10658,0.95925 -0.34639,1.30565 -0.23981,0.37304 -0.53292,0.66615 -0.90596,0.87932 -0.37304,0.2398 -0.82602,0.39968 -1.30564,0.50626 -0.50627,0.10659 -1.01254,0.15987 -1.51881,0.15987 -0.93261,0 -1.81192,-0.18651 -2.63794,-0.53291 -0.82602,-0.34639 -1.5721,-0.85267 -2.2116,-1.49217 l -0.3464,-0.31974 -0.98589,1.14577 0.2931,0.2931 c 0.79938,0.77273 1.70533,1.35894 2.69123,1.78527 1.01254,0.39968 2.07837,0.61285 3.1975,0.61285 0.61285,0 1.25235,-0.08 1.89185,-0.21317 0.66614,-0.13323 1.25235,-0.39968 1.78527,-0.71943 0.53291,-0.3464 0.98589,-0.77273 1.33229,-1.33229 0.34639,-0.55956 0.53291,-1.25236 0.53291,-2.07838 0,-0.85266 -0.13323,-1.54545 -0.42633,-2.10502 -0.21317,-0.55955 -0.58621,-1.01253 -1.03919,-1.38558 z"
       id="path5202" />
    <path
       style="font-style:normal;font-weight:normal;font-size:medium;line-height:1.25;font-family:sans-serif;letter-spacing:0px;word-spacing:0px;fill:#0079a5;fill-opacity:0.94117647;stroke:none;stroke-width:0.32438073"
       inkscape:connector-curvature="0"
       d="m 103.2415,258.69541 c -0.55956,-0.55957 -1.19906,-0.9859 -1.97179,-1.30565 -0.74609,-0.31975 -1.572102,-0.47963 -2.424772,-0.47963 -1.19906,0 -2.31819,0.31975 -3.27744,0.93261 -0.53291,0.34639 -1.01253,0.74609 -1.38557,1.22571 v -12.20378 h -1.46553 v 26.80567 h 1.46553 v -10.55173 c 0,-0.66615 0.13322,-1.30565 0.34639,-1.86521 0.23981,-0.5862 0.55956,-1.09247 0.9859,-1.51881 0.42633,-0.42633 0.90595,-0.77273 1.49216,-1.01254 0.55956,-0.23981 1.19906,-0.34639 1.83856,-0.34639 0.6395,0 1.252352,0.13322 1.811922,0.34639 0.55956,0.23981 1.06583,0.58621 1.46551,1.01254 0.42634,0.42634 0.74609,0.93261 0.9859,1.51881 0.23982,0.55956 0.34639,1.19906 0.34639,1.86521 v 10.55173 h 1.51882 v -10.55173 c 0,-0.87931 -0.15987,-1.70533 -0.47962,-2.45141 -0.26647,-0.77274 -0.71945,-1.41224 -1.25236,-1.97179 z"
       id="path5204" />
    <path
       style="font-style:normal;font-weight:normal;font-size:medium;line-height:1.25;font-family:sans-serif;letter-spacing:0px;word-spacing:0px;fill:#0079a5;fill-opacity:0.94117647;stroke:none;stroke-width:0.32438073"
       inkscape:connector-curvature="0"
       d="m 118.85595,258.90857 c -0.47962,-0.69279 -1.11912,-1.25236 -1.94514,-1.65204 -0.79938,-0.37304 -1.83856,-0.5862 -3.09091,-0.5862 -0.55957,0 -1.30564,0.0533 -2.15831,0.18651 -0.87931,0.13324 -1.86521,0.42634 -2.9044,0.85267 l -0.42633,0.18652 0.61285,1.38558 0.3997,-0.18652 c 0.90595,-0.39968 1.75862,-0.66614 2.53135,-0.77273 0.79937,-0.10658 1.46552,-0.15987 1.94514,-0.15987 0.95925,0 1.75862,0.13322 2.34483,0.39969 0.5862,0.26645 1.03918,0.6395 1.38558,1.09247 0.34639,0.47963 0.58621,1.09248 0.71944,1.78527 0.10658,0.58621 0.18652,1.22571 0.21316,1.9185 -1.78526,-0.37304 -3.35737,-0.55956 -4.74295,-0.55956 -2.18495,0 -3.89029,0.47962 -5.0627,1.38558 -0.79937,0.6395 -1.3323,1.38558 -1.57211,2.18496 -0.23982,0.77272 -0.34641,1.46552 -0.34641,2.07837 0,0.45298 0.08,0.9859 0.23982,1.5721 0.15987,0.5862 0.45299,1.17242 0.85268,1.70533 0.39968,0.53292 0.95925,0.98589 1.65204,1.35894 0.69279,0.37304 1.5721,0.5862 2.63793,0.5862 0.53292,0 1.09248,-0.0533 1.73198,-0.18652 0.61285,-0.13323 1.22571,-0.31975 1.83856,-0.5862 0.61285,-0.26646 1.22571,-0.61285 1.78527,-1.03918 0.37304,-0.29312 0.74608,-0.6395 1.06583,-1.01255 v 2.63793 h 1.46552 v -9.08622 c 0,-1.09247 -0.08,-2.10502 -0.21317,-3.01097 -0.18652,-0.95925 -0.50627,-1.78527 -0.95925,-2.47806 z m -0.31975,5.99531 v 1.43887 c 0,0.50627 -0.0533,1.06583 -0.15987,1.59875 -0.08,0.50627 -0.2931,0.98589 -0.61285,1.43887 -0.3464,0.50627 -0.77273,0.9326 -1.22571,1.30565 -0.47962,0.37304 -0.95925,0.66614 -1.46552,0.8793 -0.50627,0.21317 -1.01254,0.37305 -1.51881,0.47963 -0.50628,0.10659 -0.9859,0.15987 -1.43888,0.15987 -0.77272,0 -1.41222,-0.13322 -1.91849,-0.39968 -0.50628,-0.26645 -0.90596,-0.61285 -1.17241,-0.9859 -0.29312,-0.37304 -0.47963,-0.77272 -0.61287,-1.19905 -0.10658,-0.42634 -0.18651,-0.79938 -0.18651,-1.11913 0,-0.47962 0.08,-1.01254 0.26646,-1.62539 0.15987,-0.55957 0.53292,-1.03919 1.06583,-1.49217 0.9326,-0.71943 2.31819,-1.06583 4.13009,-1.06583 1.38559,-0.0267 3.01099,0.18652 4.84954,0.58621 z"
       id="path5206" />
    <path
       style="font-style:normal;font-weight:normal;font-size:medium;line-height:1.25;font-family:sans-serif;letter-spacing:0px;word-spacing:0px;fill:#0079a5;fill-opacity:0.94117647;stroke:none;stroke-width:0.32438073"
       inkscape:connector-curvature="0"
       d="m 130.87321,257.7628 c -0.39969,-0.26646 -0.85267,-0.47962 -1.35894,-0.6395 -0.50626,-0.15987 -1.01253,-0.23981 -1.54545,-0.23981 -1.03918,0 -1.99843,0.2931 -2.8511,0.85267 -0.39969,0.26645 -0.77273,0.5862 -1.09248,0.95925 v -1.6254 h -1.51881 v 16.60033 h 1.51881 v -10.87148 c 0,-0.6395 0.10658,-1.22571 0.2931,-1.75863 0.21317,-0.53291 0.47963,-1.01253 0.85267,-1.41222 0.34639,-0.39969 0.77273,-0.71944 1.25235,-0.9326 0.82603,-0.37305 1.81191,-0.42633 2.63793,-0.13323 0.37305,0.13323 0.71945,0.31975 1.0392,0.53291 l 0.47962,0.31975 0.53291,-1.46551 z"
       id="path5208" />
    <path
       style="font-style:normal;font-weight:normal;font-size:medium;line-height:1.25;font-family:sans-serif;letter-spacing:0px;word-spacing:0px;fill:#0079a5;fill-opacity:0.94117647;stroke:none;stroke-width:0.32438073"
       inkscape:connector-curvature="0"
       d="m 132.49861,264.63742 h 13.34954 l -0.0267,-0.47962 c -0.08,-1.11913 -0.31975,-2.15832 -0.66613,-3.06427 -0.37305,-0.90596 -0.85267,-1.70533 -1.46552,-2.34483 -0.61286,-0.6395 -1.35895,-1.17242 -2.18497,-1.51882 -0.82601,-0.34639 -1.78526,-0.53292 -2.7978,-0.53292 -1.11913,0 -2.18495,0.21317 -3.11757,0.6395 -0.9326,0.42634 -1.75862,1.01255 -2.4514,1.78527 -0.66615,0.74609 -1.19907,1.65205 -1.5721,2.71788 -0.37305,1.03919 -0.55957,2.18496 -0.55957,3.41066 0,1.22571 0.18652,2.37148 0.55957,3.38402 0.37303,1.03918 0.90595,1.94515 1.5721,2.69123 0.66614,0.74608 1.49216,1.35893 2.4514,1.75862 0.93262,0.39968 1.99844,0.61285 3.11757,0.61285 1.25235,0 2.39812,-0.18652 3.4373,-0.5862 1.06584,-0.37305 1.97179,-0.9326 2.74452,-1.65205 l 0.31975,-0.2931 -0.9326,-1.09247 -0.3464,0.2931 c -0.6395,0.55955 -1.41222,1.01254 -2.29153,1.35893 -0.87932,0.31975 -1.86521,0.47962 -2.93104,0.47962 -0.90596,0 -1.75862,-0.15987 -2.5047,-0.50626 -0.74609,-0.3464 -1.41224,-0.82602 -1.94515,-1.41224 -0.53292,-0.61285 -0.9859,-1.33228 -1.279,-2.18495 -0.2931,-0.85267 -0.45297,-1.81192 -0.45297,-2.8511 V 264.744 c -0.0267,-0.0533 -0.0267,-0.08 -0.0267,-0.10658 z m 0.21316,-1.46552 c 0.13324,-0.6395 0.34639,-1.2257 0.6395,-1.75862 0.34639,-0.66615 0.77273,-1.25235 1.30564,-1.73198 0.53292,-0.47962 1.14577,-0.85267 1.81192,-1.11912 0.66615,-0.26647 1.43887,-0.39969 2.23825,-0.39969 0.90595,0 1.67868,0.15987 2.34483,0.45297 0.66614,0.29311 1.19906,0.6928 1.65204,1.19907 0.45298,0.50627 0.79937,1.09248 1.06583,1.73197 0.21317,0.50628 0.37304,1.06583 0.47962,1.6254 z"
       id="path5210" />
    <path
       style="font-style:normal;font-weight:normal;font-size:medium;line-height:1.25;font-family:sans-serif;letter-spacing:0px;word-spacing:0px;fill:#0079a5;fill-opacity:0.94117647;stroke:none;stroke-width:0.32438073"
       inkscape:connector-curvature="0"
       d="m 158.23845,267.22207 c -0.2931,-0.55957 -0.66614,-1.01255 -1.11912,-1.35895 -0.45298,-0.34639 -0.95925,-0.61285 -1.51882,-0.79937 -0.5329,-0.18652 -1.09247,-0.3464 -1.62539,-0.50627 l -1.01253,-0.2931 c -0.3997,-0.10658 -0.82603,-0.21317 -1.22572,-0.37305 -0.37303,-0.13323 -0.74608,-0.31975 -1.06583,-0.53291 -0.2931,-0.21317 -0.55955,-0.50627 -0.74608,-0.87931 -0.18652,-0.37304 -0.2931,-0.85266 -0.2931,-1.43888 0,-0.47962 0.10658,-0.90595 0.31975,-1.25235 0.21316,-0.3464 0.50626,-0.66615 0.85266,-0.87931 0.3464,-0.23981 0.77273,-0.42633 1.22571,-0.53291 0.45298,-0.13323 0.93261,-0.18653 1.38558,-0.18653 0.79938,0 1.54546,0.10658 2.15831,0.31975 0.61286,0.21317 1.22571,0.53292 1.81192,0.9859 l 0.34639,0.26645 0.85267,-1.1724 -0.31975,-0.26647 c -0.71944,-0.5862 -1.46552,-0.9859 -2.26489,-1.25235 -0.77273,-0.26646 -1.65205,-0.37305 -2.6113,-0.37305 -0.61285,0 -1.25235,0.08 -1.8652,0.23982 -0.61285,0.15988 -1.19906,0.42633 -1.70534,0.79938 -0.50626,0.37304 -0.9326,0.82602 -1.25235,1.35893 -0.31975,0.55956 -0.47962,1.22571 -0.47962,1.97179 0,0.87932 0.15987,1.59875 0.47962,2.15832 0.31975,0.5329 0.6928,0.98588 1.14577,1.33228 0.45298,0.31975 0.93261,0.58621 1.46552,0.74609 0.47963,0.15987 0.95925,0.2931 1.35894,0.39968 l 1.01254,0.2931 c 0.50627,0.13323 1.01254,0.2931 1.46552,0.45298 0.42633,0.15987 0.82602,0.3464 1.14577,0.58621 0.2931,0.21316 0.55956,0.50628 0.71943,0.87931 0.18653,0.37304 0.26647,0.85267 0.26647,1.43887 0,0.50628 -0.10659,0.95925 -0.3464,1.30565 -0.23982,0.37304 -0.53292,0.66615 -0.90596,0.87932 -0.37304,0.2398 -0.82601,0.39968 -1.30564,0.50626 -1.41223,0.31975 -2.87775,0.18652 -4.15674,-0.37304 -0.82603,-0.34639 -1.57212,-0.85267 -2.21161,-1.49217 l -0.34639,-0.31974 -0.9859,1.14577 0.2931,0.2931 c 0.79938,0.77273 1.70533,1.35894 2.69123,1.78527 1.01254,0.39968 2.07837,0.61285 3.1975,0.61285 0.61285,0 1.25235,-0.08 1.89185,-0.21317 0.66614,-0.13323 1.25235,-0.39968 1.78527,-0.71943 0.53292,-0.3464 0.98589,-0.77273 1.33229,-1.33229 0.3464,-0.55956 0.53291,-1.25236 0.53291,-2.07838 0.0533,-0.85266 -0.08,-1.5721 -0.37304,-2.13165 z"
       id="path5212" />
    <text
       xml:space="preserve"
       style="font-style:normal;font-weight:normal;font-size:3.19749641px;line-height:125%;font-family:Sans;text-align:center;letter-spacing:0px;word-spacing:0px;text-anchor:middle;fill:#000000;fill-opacity:1;stroke:none;stroke-width:0.26645803px;stroke-linecap:butt;stroke-linejoin:miter;stroke-opacity:1"
       x="121.74277"
       y="286.04373"
       id="text1076"><tspan
         sodipodi:role="line"
         x="121.74277"
         y="286.04373"
         style="font-size:11.36887646px;stroke-width:0.26645803px"
         id="tspan1191">paper  wallet</tspan></text>
    <text
       xml:space="preserve"
       style="font-style:normal;font-weight:normal;font-size:3.19749641px;line-height:125%;font-family:Sans;text-align:center;letter-spacing:0px;word-spacing:0px;text-anchor:middle;fill:#000000;fill-opacity:1;stroke:none;stroke-width:0.26645803px;stroke-linecap:butt;stroke-linejoin:miter;stroke-opacity:1"
       x="127.09821"
       y="65.419968"
       id="text1076-0"><tspan
         sodipodi:role="line"
         x="127.09821"
         y="68.249001"
         style="font-size:9.94776726px;stroke-width:0.26645803px"
         id="tspan1191-9" /></text>
    <text
       xml:space="preserve"
       style="font-style:normal;font-weight:normal;font-size:3.19749641px;line-height:125%;font-family:Sans;text-align:center;letter-spacing:0px;word-spacing:0px;text-anchor:middle;fill:#000000;fill-opacity:1;stroke:none;stroke-width:0.26645803px;stroke-linecap:butt;stroke-linejoin:miter;stroke-opacity:1"
       x="106.64661"
       y="69.52282"
       id="text1076-0-5"><tspan
         sodipodi:role="line"
         x="106.64661"
         y="72.351852"
         style="font-size:9.94776726px;stroke-width:0.26645803px"
         id="tspan1191-9-3" /></text>
    <path
       style="fill:none;stroke:#005a7e;stroke-width:0.866;stroke-linecap:butt;stroke-linejoin:miter;stroke-miterlimit:4;stroke-dasharray:none;stroke-opacity:1"
       d="m 165.04037,290.17958 h -6.58077 -119.960684 -0.019 c -0.0077,0.0208 -0.02601,0.002 -0.03672,0.003 -0.03188,0.0295 -0.08919,0.0854 -0.121247,0.11474 -3.922485,3.59095 -9.1424,5.78495 -14.875007,5.79487 -11.863763,0.0206 -21.5639972,-9.32072 -22.1210662,-21.07105"
       id="path1490"
       inkscape:connector-curvature="0"
       sodipodi:nodetypes="cccccssc" />
  </g>
</svg>
