<?xml version="1.0" standalone="no"?>
<!DOCTYPE svg PUBLIC "-//W3C//DTD SVG 20010904//EN"
 "http://www.w3.org/TR/2001/REC-SVG-20010904/DTD/svg10.dtd">
<svg version="1.0" xmlns="http://www.w3.org/2000/svg"
 width="120.000000pt" height="108.000000pt" viewBox="0 0 120.000000 108.000000"
 preserveAspectRatio="xMidYMid meet">
<metadata>
Created by potrace 1.10, written by Peter Selinger 2001-2011
</metadata>
<g transform="translate(0.000000,108.000000) scale(0.100000,-0.100000)"
fill="#ffffff" stroke="none">
<path d="M550 994 c-25 -14 -75 -43 -112 -65 l-68 -40 0 -133 c0 -116 2 -135
18 -149 10 -10 23 -17 29 -17 11 0 53 -42 53 -53 0 -15 -63 -6 -87 13 -14 11
-34 20 -45 20 -11 0 -57 -22 -104 -50 -47 -27 -88 -50 -93 -50 -4 0 -15 -8
-24 -18 -14 -15 -17 -41 -17 -146 0 -122 8 -166 31 -166 6 0 55 -27 109 -59
l99 -60 103 61 c138 81 137 80 140 147 3 48 6 56 23 56 17 0 20 -8 23 -55 2
-30 8 -60 13 -67 14 -16 213 -133 227 -133 12 0 54 22 143 76 31 19 61 34 67
34 24 0 32 44 32 168 0 135 -3 145 -50 166 -8 3 -42 22 -75 41 -33 19 -70 40
-83 45 -27 12 -66 4 -83 -16 -13 -16 -45 -19 -54 -4 -6 10 24 42 69 73 26 18
26 19 26 143 l0 124 -54 35 c-29 19 -72 44 -95 57 -23 13 -52 29 -64 35 -30
17 -45 15 -97 -13z m110 -58 c8 -6 35 -22 60 -35 80 -42 80 -42 80 -156 0
-107 -4 -117 -46 -127 -45 -11 -53 12 -38 110 9 64 -1 87 -50 116 -25 14 -51
26 -58 26 -7 0 -34 -14 -60 -30 l-48 -30 0 -60 c0 -45 4 -62 15 -66 41 -16 -4
-80 -49 -68 -39 9 -46 32 -46 137 0 101 5 113 60 136 14 6 39 20 55 31 62 41
88 44 125 16z m-12 -142 c15 -10 22 -25 22 -48 0 -27 -6 -36 -35 -52 -34 -18
-34 -18 -60 6 -30 28 -32 63 -5 90 24 24 48 25 78 4z m33 -189 c10 -16 25 -41
33 -55 8 -14 20 -36 26 -50 6 -13 14 -27 18 -30 4 -3 15 -21 26 -41 18 -36 18
-37 -2 -57 -11 -11 -22 -26 -24 -33 -3 -10 -38 -13 -153 -14 l-148 0 -18 32
c-19 35 -18 42 31 118 11 17 24 39 30 50 14 26 31 53 52 85 15 22 25 26 65 25
41 0 49 -4 64 -30z m-303 -105 c17 -11 32 -28 32 -38 0 -27 -35 -55 -59 -47
-12 4 -39 -4 -70 -21 l-51 -26 0 -62 c0 -56 3 -64 28 -82 66 -47 76 -49 129
-20 27 15 53 37 58 49 8 17 18 22 45 22 33 0 35 -2 38 -36 4 -45 -10 -56 -154
-130 l-40 -21 -67 41 c-37 23 -70 41 -74 41 -3 0 -15 7 -25 17 -15 13 -18 32
-18 113 0 107 3 112 80 154 19 11 51 30 70 42 43 28 38 28 78 4z m513 7 c13
-7 43 -25 66 -40 24 -15 46 -27 51 -27 5 0 18 -11 31 -24 20 -21 22 -32 19
-121 l-3 -99 -90 -54 -90 -53 -40 20 c-64 33 -124 67 -140 81 -20 17 -20 89 0
96 27 11 64 -5 70 -29 4 -15 25 -34 58 -52 l52 -28 53 33 52 32 0 64 c0 57 -3
66 -22 75 -13 5 -34 16 -48 24 -14 8 -35 15 -47 15 -22 0 -53 33 -53 57 0 9
36 37 56 43 1 0 12 -6 25 -13z m-521 -152 c17 -9 33 -27 36 -42 6 -22 2 -31
-22 -50 -34 -27 -47 -28 -79 -7 -39 25 -33 77 10 102 25 14 21 15 55 -3z m525
3 c46 -21 46 -84 0 -108 -21 -11 -29 -11 -51 0 -52 28 -55 78 -6 105 33 18 26
17 57 3z"/>
<path d="M556 534 c-8 -21 -9 -20 19 -38 22 -15 31 -15 60 -5 37 14 52 36 35
53 -7 7 -19 7 -40 -1 -18 -7 -32 -7 -36 -2 -9 14 -31 10 -38 -7z"/>
<path d="M500 458 c0 -17 40 -98 49 -98 14 0 31 25 31 46 0 13 -12 32 -26 43
-30 23 -54 27 -54 9z"/>
<path d="M652 447 c-25 -27 -28 -59 -7 -77 17 -14 35 -5 35 17 0 9 9 27 21 39
12 12 18 27 14 33 -11 18 -40 12 -63 -12z"/>
</g>
</svg>
