<?xml version="1.0" encoding="UTF-8" standalone="no"?>
<!-- Created with Inkscape (http://www.inkscape.org/) -->

<svg
   xmlns:dc="http://purl.org/dc/elements/1.1/"
   xmlns:cc="http://creativecommons.org/ns#"
   xmlns:rdf="http://www.w3.org/1999/02/22-rdf-syntax-ns#"
   xmlns:svg="http://www.w3.org/2000/svg"
   xmlns="http://www.w3.org/2000/svg"
   xmlns:sodipodi="http://sodipodi.sourceforge.net/DTD/sodipodi-0.dtd"
   xmlns:inkscape="http://www.inkscape.org/namespaces/inkscape"
   width="93mm"
   height="93mm"
   viewBox="0 0 93 93"
   version="1.1"
   id="svg8"
   sodipodi:docname="prediction.svg"
   inkscape:version="0.92.4 (5da689c313, 2019-01-14)">
  <defs
     id="defs2">
    <linearGradient
       id="linearGradient-1"
       y2="720.01819"
       x2="699.64471"
       y1="83.421288"
       x1="699.64471"
       gradientTransform="matrix(0.78148328,0,0,1.2796179,904.71904,-1936.9488)"
       gradientUnits="userSpaceOnUse">
      <stop
         id="stop4595"
         offset="0%"
         stop-color="#00A9E0" />
      <stop
         id="stop4597"
         offset="100%"
         stop-color="#00587C" />
    </linearGradient>
  </defs>
  <sodipodi:namedview
     id="base"
     pagecolor="#ffffff"
     bordercolor="#666666"
     borderopacity="1.0"
     inkscape:pageopacity="0.0"
     inkscape:pageshadow="2"
     inkscape:zoom="1"
     inkscape:cx="40.666087"
     inkscape:cy="229.87292"
     inkscape:document-units="mm"
     inkscape:current-layer="layer1"
     showgrid="false"
     inkscape:window-width="1920"
     inkscape:window-height="998"
     inkscape:window-x="-9"
     inkscape:window-y="-9"
     inkscape:window-maximized="1" />
  <metadata
     id="metadata5">
    <rdf:RDF>
      <cc:Work
         rdf:about="">
        <dc:format>image/svg+xml</dc:format>
        <dc:type
           rdf:resource="http://purl.org/dc/dcmitype/StillImage" />
        <dc:title></dc:title>
      </cc:Work>
    </rdf:RDF>
  </metadata>
  <g
     inkscape:label="Layer 1"
     inkscape:groupmode="layer"
     id="layer1"
     transform="translate(0,-204)">
    <path
       style="fill:#000000;stroke-width:0.2431266"
       d="m 47.219377,292.50721 c -8.528596,-0.72414 -14.039973,-1.92691 -17.211266,-3.7561 -1.718606,-0.99129 -2.236799,-1.88176 -2.237954,-3.84576 l -9.09e-4,-1.54472 0.854225,0.75002 c 1.064899,0.93499 1.94988,1.39619 4.049312,2.11025 8.875121,3.01862 27.861929,3.29663 38.24641,0.56001 2.592576,-0.68323 5.73746,-2.1573 6.400284,-2.99994 l 0.533846,-0.67867 v 1.63637 c 0,1.97653 -0.358731,2.67511 -1.910575,3.72067 -2.240325,1.50941 -7.02048,2.83666 -12.920146,3.58739 -2.870695,0.36529 -13.333639,0.67017 -15.803227,0.46048 z"
       id="path3744"
       inkscape:connector-curvature="0" />
    <path
       style="fill:#000000;stroke-width:0.2431266"
       d="m 45.639053,286.66471 c -6.723108,-0.6633 -11.604293,-1.68871 -14.145868,-2.9717 -2.02992,-1.02469 -2.508305,-1.68536 -2.508305,-3.46401 0,-1.30766 0.361483,-2.65305 0.71283,-2.65305 0.08169,0 0.891696,0.54181 1.800015,1.20401 3.643084,2.65594 8.603279,3.62964 19.490115,3.82595 7.377477,0.13303 11.604892,-0.16049 16.407837,-1.13927 3.263302,-0.66502 5.029206,-1.40449 6.939965,-2.9061 l 1.560776,-1.22656 0.37064,0.71672 c 0.5593,1.08158 0.489519,3.4417 -0.12486,4.22275 -1.174387,1.493 -6.190646,3.12041 -12.147081,3.94083 -2.891571,0.39829 -15.699122,0.71256 -18.356064,0.45043 z"
       id="path3742"
       inkscape:connector-curvature="0" />
    <path
       sodipodi:type="inkscape:offset"
       inkscape:radius="0.8018136"
       inkscape:original="M 43.019531 209.07812 C 37.485391 209.27444 32.006974 210.63172 27.023438 213.13672 C 19.734104 216.80073 13.406538 223.14817 9.7519531 230.46094 C 7.0797194 235.80805 5.9129179 240.52076 5.6855469 246.89258 C 5.5278199 251.3127 5.6711753 252.58136 6.9257812 257.8457 C 8.601105 264.87538 13.324472 272.44288 19.109375 277.36914 C 21.965944 279.80171 23.78697 280.85555 26.341797 281.55664 C 29.471162 282.4154 29.796415 282.31597 27.560547 281.18555 C 20.372558 277.55143 14.645222 271.7748 11.003906 264.49023 C 9.7400408 261.96182 8.1997452 257.51725 7.7382812 255.06055 C 5.3429455 242.30844 9.4884625 229.55768 18.935547 220.61523 C 25.47487 214.42521 33.724052 210.96852 42.945312 210.55859 C 50.049581 210.24277 56.682324 211.8499 62.902344 215.39453 C 64.746144 216.44526 65.072426 216.55257 65.597656 216.27148 C 65.926396 216.09554 66.195312 215.86296 66.195312 215.75586 C 66.195312 215.39987 61.924309 213.05036 59.349609 211.99023 C 54.143651 209.84669 48.553672 208.88181 43.019531 209.07812 z "
       style="fill:#000000;stroke-width:0.26458332"
       id="path3740"
       d="m 42.990234,208.27734 c -5.646256,0.2003 -11.235797,1.58388 -16.326172,4.14258 -7.454977,3.74727 -13.891817,10.20378 -17.6289058,17.68164 -2.7147289,5.43215 -3.9200358,10.30628 -4.1503906,16.76172 -0.1585394,4.44289 0.00357,5.88877 1.2617188,11.16797 1.7240301,7.23405 6.5138856,14.89985 12.4433596,19.94922 2.897603,2.46751 4.880261,3.61999 7.539062,4.34961 0.789568,0.21667 1.405872,0.37488 1.869141,0.47461 0.231634,0.0499 0.422897,0.0843 0.595703,0.10547 0.172806,0.0212 0.280708,0.073 0.603516,-0.0254 0.161403,-0.0492 0.509369,-0.24798 0.591796,-0.63477 0.08243,-0.38679 -0.08667,-0.60202 -0.169921,-0.71094 -0.166512,-0.21783 -0.276733,-0.27026 -0.423829,-0.36718 -0.294191,-0.19386 -0.703261,-0.4129 -1.273437,-0.70118 -7.035713,-3.55713 -12.634402,-9.2044 -16.201172,-16.33984 -1.212332,-2.42532 -2.7612188,-6.90776 -3.1953124,-9.21875 -2.3464464,-12.49184 1.7051544,-24.95348 10.9609374,-33.71484 6.403066,-6.06105 14.451472,-9.4359 23.494141,-9.83789 6.961582,-0.30948 13.427828,1.25757 19.52539,4.73242 0.929375,0.52962 1.47532,0.83617 1.990235,1.0039 0.514915,0.16773 1.119527,0.076 1.480468,-0.11718 0.213771,-0.11441 0.400576,-0.23964 0.566407,-0.38282 0.08291,-0.0716 0.161616,-0.14678 0.242187,-0.25195 0.08057,-0.10517 0.212891,-0.22557 0.212891,-0.58789 0,-0.42307 -0.162442,-0.5185 -0.244141,-0.61328 -0.0817,-0.0948 -0.154594,-0.15921 -0.236328,-0.22656 -0.163467,-0.13471 -0.357273,-0.26918 -0.591797,-0.42188 -0.469047,-0.30539 -1.09447,-0.67201 -1.800781,-1.06055 -1.412622,-0.77706 -3.134853,-1.63551 -4.470703,-2.18554 -5.314481,-2.18823 -11.017783,-3.17099 -16.664063,-2.97071 z"
       transform="matrix(0.91890375,0,0,0.91890375,11.920319,19.975702)" />
    <path
       sodipodi:type="inkscape:offset"
       inkscape:radius="0.83804119"
       inkscape:original="M 74.994141 224.01953 C 74.843308 223.97927 74.708512 224.09524 74.451172 224.32812 C 73.926692 224.80276 73.933161 224.8243 75.363281 226.90039 C 78.005401 230.73596 80.239595 236.09758 81.203125 240.91211 C 81.953655 244.66228 82.328075 250.4753 80.84375 257.28125 C 80.467275 258.56732 80.478074 258.53444 79.998047 259.71289 C 76.997697 268.69438 70.497944 276.21264 62.027344 280.80664 C 59.803234 282.01283 59.594833 282.18051 60.507812 282.0293 C 63.231092 281.57825 65.655439 280.5737 67.730469 279.03516 C 74.477849 274.03228 79.452604 266.7738 81.802734 258.50586 C 82.943254 254.49337 83.238469 252.2814 83.230469 247.79102 C 83.220459 241.86928 82.140541 236.85231 79.738281 231.57617 C 78.835031 229.59236 76.62815 225.87145 75.625 224.64062 C 75.31087 224.2552 75.144973 224.05979 74.994141 224.01953 z "
       style="fill:#000000;stroke-width:0.26458332"
       id="path3738"
       d="m 75.210938,223.20898 c -0.32923,-0.0879 -0.704294,0.0344 -0.892579,0.15235 -0.188285,0.11794 -0.298356,0.22685 -0.429687,0.3457 -0.134094,0.12135 -0.31197,0.24626 -0.466797,0.55469 -0.154827,0.30843 -0.138844,0.74398 -0.03711,1.03125 0.203469,0.57454 0.573569,1.04336 1.289062,2.08203 2.56035,3.71686 4.768926,9.01368 5.707031,13.70117 0.727021,3.6327 1.097958,9.32775 -0.349609,15.99219 -0.364784,1.24647 -0.332937,1.1604 -0.808594,2.32812 a 0.83812499,0.83812499 0 0 0 -0.01953,0.0508 c -2.929636,8.7698 -9.284469,16.12607 -17.576172,20.62304 -1.116718,0.60563 -1.666141,0.88578 -2.060547,1.20313 -0.0986,0.0793 -0.243856,0.0763 -0.371094,0.52344 -0.06362,0.22358 0.02842,0.66995 0.236329,0.86718 0.207909,0.19723 0.365114,0.21417 0.466797,0.23242 0.406728,0.073 0.498287,3e-5 0.746093,-0.041 2.84207,-0.47073 5.400239,-1.52589 7.585938,-3.14649 6.900595,-5.11648 11.979004,-12.53156 14.378906,-20.9746 1.152268,-4.05383 1.467051,-6.41772 1.458984,-10.94532 -0.01018,-6.02282 -1.120375,-11.18827 -3.566406,-16.56054 -0.952809,-2.09266 -3.08113,-5.71179 -4.226562,-7.11719 -0.317779,-0.3899 -0.408735,-0.72732 -1.064453,-0.90235 z"
       transform="matrix(0.91890375,0,0,0.91890375,11.920319,19.975702)" />
    <path
       style="fill:#000000;stroke-width:0.2431266"
       d="m 65.959488,275.81577 c 2.618012,-1.94898 6.026106,-5.38931 7.882255,-7.9568 0.802313,-1.1098 1.622867,-2.22081 1.823445,-2.46892 0.306133,-0.37867 3.600238,-1.31377 3.827492,-1.08651 0.03547,0.0355 -0.500445,0.87549 -1.190946,1.8667 -1.828425,2.6247 -5.528244,6.2234 -8.228452,8.00356 -1.95177,1.28674 -5.511851,3.15902 -6.006791,3.15902 -0.07967,0 0.772201,-0.68267 1.892997,-1.51705 z"
       id="path3736"
       inkscape:connector-curvature="0" />
    <path
       style="fill:#000000;stroke-width:0.2431266"
       d="m 78.117559,260.61786 c 0.269532,-0.63516 0.699037,-1.56036 0.954447,-2.05599 0.556681,-1.08027 1.841198,-6.41751 2.217562,-9.21407 0.160285,-1.19106 0.217073,-3.68977 0.139885,-6.1561 -0.136751,-4.36998 -0.625479,-7.36773 -1.74702,-10.71575 -0.313557,-0.93603 -0.532027,-1.74059 -0.485493,-1.78791 0.0465,-0.0473 0.744284,1.26556 1.550558,2.91752 3.568002,7.31039 4.305735,14.38872 2.328778,22.34399 -0.184397,0.74199 -0.467143,1.67195 -0.628319,2.06658 -0.161185,0.39462 -0.317638,0.82691 -0.347667,0.96063 -0.03005,0.13372 -0.221805,0.64231 -0.426188,1.1302 -0.348154,0.83114 -0.479539,0.91162 -2.083394,1.27641 -0.94149,0.21414 -1.768375,0.38935 -1.837513,0.38935 -0.0691,0 0.09482,-0.51969 0.364364,-1.15486 z"
       id="path3734"
       inkscape:connector-curvature="0" />
    <path
       style="fill:#000000;stroke-width:0.2431266"
       d="m 22.432731,256.99668 c -0.906955,-3.00183 -1.243085,-5.02105 -1.390459,-8.3528 -0.275985,-6.23936 1.056135,-11.89203 4.015356,-17.0386 1.579212,-2.74651 1.440012,-2.63558 3.528762,-2.81214 1.021488,-0.0864 1.857251,-0.0813 1.857251,0.0112 0,0.0925 -0.533471,0.95878 -1.185491,1.92503 -1.540304,2.28263 -3.423302,6.05056 -4.384018,8.77254 -1.679145,4.75748 -2.529319,11.91602 -1.977693,16.65235 0.146254,1.25575 0.215061,2.33404 0.152905,2.39619 -0.06215,0.0621 -0.339633,-0.63705 -0.616613,-1.55381 z"
       id="path3732"
       inkscape:connector-curvature="0" />
    <path
       style="fill:#000000;stroke-width:0.2431266"
       d="m 61.506289,234.66409 c -0.08571,-0.26743 -0.228933,-1.21504 -0.31828,-2.10581 -0.280103,-2.79253 -1.414948,-3.93454 -4.20696,-4.23355 -2.784332,-0.29817 -3.035771,-0.49384 -0.88755,-0.69069 2.148431,-0.19688 3.656563,-0.79882 4.327889,-1.72741 0.240827,-0.33312 0.546448,-1.28885 0.679167,-2.12383 0.542896,-3.41566 0.516476,-3.38552 0.833194,-0.95059 0.455095,3.49876 1.267187,4.30988 4.767053,4.76134 2.446526,0.3156 2.410753,0.34687 -0.88224,0.77139 -1.50872,0.19451 -2.682528,0.88299 -3.214729,1.88557 -0.223842,0.42168 -0.5273,1.69665 -0.67435,2.83326 -0.164415,1.27085 -0.327368,1.87935 -0.423194,1.58032 z"
       id="path3730"
       inkscape:connector-curvature="0" />
    <path
       style="fill:#000000;stroke-width:0.2431266"
       d="m 76.088083,230.39671 c -0.436635,-3.52233 -0.747868,-4.47561 -1.848623,-5.66229 -1.113683,-1.20061 -2.290992,-1.61941 -5.909856,-2.10231 -1.874885,-0.25019 -3.449555,-0.49556 -3.499259,-0.54526 -0.04971,-0.0497 1.462344,-0.27832 3.360128,-0.50802 6.235424,-0.75469 7.274226,-1.84316 7.988646,-8.37066 0.164649,-1.50434 0.366918,-2.73517 0.449491,-2.73517 0.08261,0 0.288545,1.23083 0.457715,2.73517 0.442406,3.9341 0.829485,5.12016 2.078708,6.36938 1.292612,1.29261 1.914104,1.50059 6.135924,2.05331 3.713787,0.48621 3.72054,0.47918 -1.075742,1.119 -2.920837,0.38964 -4.143613,0.85728 -5.189279,1.98456 -1.131943,1.2203 -1.461691,2.22676 -1.871054,5.71086 -0.217642,1.85233 -0.453662,3.36787 -0.524492,3.36787 -0.07085,0 -0.319374,-1.5374 -0.552307,-3.41644 z"
       id="path3728"
       inkscape:connector-curvature="0" />
    <path
       style="fill:#000000;stroke-width:0.2431266"
       d="m 29.580263,225.49083 c 1.10791,-1.58177 5.909273,-5.14006 9.087989,-6.73511 1.695184,-0.85062 5.932931,-2.31873 7.457055,-2.5834 0.756129,-0.1313 0.323376,0.16136 -1.945012,1.3154 -3.413825,1.73675 -6.403375,3.8333 -9.378727,6.57723 l -2.134135,1.96816 h -1.733499 -1.733499 z"
       id="path3724"
       inkscape:connector-curvature="0" />
    <path
       id="path3777"
       style="fill:#000000;fill-opacity:1;fill-rule:evenodd;stroke:none;stroke-width:0.04392926;stroke-opacity:1"
       d="m 16.018151,284.37863 c -0.406106,0.27234 -0.865361,0.46963 -1.359277,0.57137 v 7.23686 c 2.445109,-0.17269 4.669537,-1.1574 6.411632,-2.69002 z m -4.143429,0 -5.0523543,5.11821 c 1.742089,1.53288 3.9665233,2.51733 6.4116323,2.69002 V 284.95 c -0.493911,-0.10178 -0.953172,-0.29903 -1.359278,-0.57137 z m 5.837791,-2.48146 c -0.09953,0.50357 -0.29328,0.97215 -0.560395,1.3859 l 5.0197,5.15117 c 1.503408,-1.7761 2.469058,-4.04395 2.638692,-6.53707 z m -14.6301553,0 c 0.169638,2.49312 1.135278,4.76097 2.6386981,6.53707 l 5.0197002,-5.15089 c -0.267116,-0.41403 -0.460868,-0.88261 -0.560396,-1.38618 z m 19.0894603,-8.05028 -5.0197,5.15088 c 0.267115,0.41404 0.460863,0.8826 0.560395,1.38618 h 7.097997 c -0.169634,-2.49294 -1.135284,-4.76089 -2.638692,-6.53706 z M 3.0016787,271.12313 v 9.26082 h 7.0999203 c 0.09918,-0.50233 0.292303,-0.9696 0.558472,-1.38261 z m 11.6571953,-1.15016 v 7.23658 c 0.493916,0.10177 0.953171,0.29931 1.359277,0.57164 l 5.052355,-5.11793 c -1.742095,-1.53283 -3.966523,-2.51761 -6.411632,-2.69029 z M 3.0230797,256.4754 v 12.4042 l 8.7457113,8.96197 c 0.402244,-0.27254 0.857156,-0.4701 1.346383,-0.57164 v -11.61741 z"
       inkscape:connector-curvature="0" />
  </g>
</svg>
