<?xml version="1.0" encoding="UTF-8" standalone="no"?>
<svg
   id="svg8"
   version="1.1"
   viewBox="0 0 93 93"
   height="93mm"
   width="93mm"
   xmlns="http://www.w3.org/2000/svg"
   xmlns:svg="http://www.w3.org/2000/svg"
   xmlns:rdf="http://www.w3.org/1999/02/22-rdf-syntax-ns#"
   xmlns:cc="http://creativecommons.org/ns#"
   xmlns:dc="http://purl.org/dc/elements/1.1/">
  <defs
     id="defs2">
    <linearGradient
       gradientUnits="userSpaceOnUse"
       gradientTransform="matrix(0.78148328,0,0,1.2796179,904.71904,-1936.9488)"
       x1="699.64471"
       y1="83.421288"
       x2="699.64471"
       y2="720.01819"
       id="linearGradient-1">
      <stop
         stop-color="#00A9E0"
         offset="0%"
         id="stop4595" />
      <stop
         stop-color="#00587C"
         offset="100%"
         id="stop4597" />
    </linearGradient>
  </defs>
  <metadata
     id="metadata5">
    <rdf:RDF>
      <cc:Work
         rdf:about="">
        <dc:format>image/svg+xml</dc:format>
        <dc:type
           rdf:resource="http://purl.org/dc/dcmitype/StillImage" />
      </cc:Work>
    </rdf:RDF>
  </metadata>
  <g
     transform="translate(0,-204)"
     id="layer1">
    <path
       transform="translate(0,1.0583333)"
       d="m 72.677734,283.55664 a 0.92038441,0.92038441 0 0 0 -0.695312,0.35156 l -0.576172,0.73242 c -0.08209,0.10436 -1.104841,0.83932 -2.34375,1.41993 -1.238909,0.5806 -2.753864,1.14896 -4.085938,1.5 -10.941802,2.88349 -31.576557,2.55341 -40.80664,-0.58594 -2.229802,-0.75841 -2.993043,-1.15719 -4.066406,-2.09961 l -0.923828,-0.81055 a 0.92038441,0.92038441 0 0 0 -1.527344,0.69141 v 1.66797 c 6.72e-4,1.14239 0.15496,2.10441 0.638672,2.93555 0.483711,0.83113 1.244682,1.44416 2.242187,2.01953 3.676222,2.12043 9.712157,3.39062 18.982422,4.17773 2.962609,0.25156 13.958493,-0.0799 17.275391,-0.50195 6.449534,-0.8207 11.646,-2.19462 14.363281,-4.02539 0.890209,-0.59978 1.558507,-1.18108 1.966797,-1.97657 0.40829,-0.79548 0.503906,-1.68484 0.503906,-2.80859 v -1.76758 a 0.92038441,0.92038441 0 0 0 -0.947266,-0.91992 z"
       id="path3744"
       style="stroke-width:0.26278079" />
    <path
       transform="translate(0,1.0583333)"
       d="m 70.587891,277.83203 a 0.40889677,0.40889677 0 0 0 -0.25,0.0859 l -1.6875,1.32617 c -2.020296,1.58769 -3.832787,2.3498 -7.330079,3.0625 -5.160936,1.05174 -9.684354,1.36815 -17.644531,1.22461 -11.744803,-0.21178 -17.000748,-1.26207 -20.833984,-4.05664 -0.494614,-0.36059 -0.961251,-0.68912 -1.320313,-0.92969 -0.17953,-0.12028 -0.331568,-0.21889 -0.451172,-0.29101 -0.0598,-0.0361 -0.110675,-0.0647 -0.160156,-0.0899 -0.02474,-0.0126 -0.04844,-0.0248 -0.08008,-0.0371 -0.03164,-0.0123 -0.05506,-0.0332 -0.173828,-0.0332 -0.177906,0 -0.320848,0.0838 -0.416016,0.16992 -0.09517,0.0861 -0.161605,0.1811 -0.220703,0.28516 -0.118195,0.20812 -0.206912,0.45837 -0.285156,0.75 -0.156487,0.58326 -0.255859,1.32604 -0.255859,2.07031 0,0.99787 0.140404,1.77023 0.609375,2.41797 0.46897,0.64774 1.209133,1.12753 2.326171,1.69141 2.856717,1.44207 8.143276,2.53482 15.431641,3.2539 3.031206,0.29905 16.679262,-0.0395 19.9375,-0.48828 3.239814,-0.44624 6.22305,-1.1108 8.572266,-1.87305 2.349216,-0.76224 4.05736,-1.56663 4.822265,-2.53906 0.451126,-0.5735 0.601214,-1.46203 0.628907,-2.40039 0.02769,-0.93836 -0.09195,-1.90506 -0.453125,-2.60352 l -0.400391,-0.77539 a 0.40889677,0.40889677 0 0 0 -0.365234,-0.2207 z"
       id="path3742"
       style="stroke-width:0.26278079" />
    <path
       id="path3740"
       d="m 42.953125,207.20117 c -5.796787,0.20564 -11.539619,1.62701 -16.773437,4.25781 -7.677375,3.85906 -14.259561,10.4626 -18.1074224,18.16211 -2.7717843,5.54631 -4.0293109,10.63738 -4.2636718,17.20508 -0.1596303,4.47346 0.02616,6.15593 1.2890624,11.45508 1.7894248,7.50845 6.6693908,15.30291 12.7929688,20.51758 2.952698,2.51443 5.154725,3.80043 7.953125,4.56836 0.799269,0.21933 1.427348,0.38056 1.927734,0.48828 0.250193,0.0539 0.464561,0.0953 0.691407,0.12305 0.226845,0.0278 0.355438,0.14625 1.046875,-0.0645 0.345718,-0.10535 1.143265,-0.55368 1.332031,-1.43945 0.188765,-0.88578 -0.195718,-1.36553 -0.367188,-1.58984 -0.342938,-0.44863 -0.500688,-0.48824 -0.6875,-0.61133 -0.373623,-0.24619 -0.793679,-0.46779 -1.378906,-0.76367 -6.831262,-3.45377 -12.257926,-8.92417 -15.724609,-15.85938 -1.143141,-2.2869 -2.7022644,-6.82215 -3.0996096,-8.9375 -2.2808064,-12.14239 1.6436416,-24.21613 10.6425776,-32.73437 6.220124,-5.88788 13.999848,-9.15164 22.802735,-9.54297 6.770006,-0.30096 11.944619,0.67785 17.877766,4.05899 0.939412,0.53535 1.490309,0.86406 2.189453,1.0918 0.699145,0.22774 1.829309,0.0724 2.322266,-0.19141 0.280098,-0.1499 0.520627,-0.30773 0.763672,-0.51757 0.121522,-0.10493 0.242622,-0.21696 0.390625,-0.41016 0.148002,-0.1932 0.435547,-0.43131 0.435547,-1.24414 0,-0.96123 -0.355361,-1.14406 -0.503907,-1.31641 -0.148545,-0.17234 -0.259444,-0.26311 -0.36914,-0.35351 -0.219393,-0.1808 -0.435857,-0.32903 -0.689453,-0.49414 -0.507192,-0.33023 -1.147366,-0.70257 -1.869141,-1.09961 -1.443549,-0.79408 -2.111565,-1.12864 -3.512532,-1.70548 -5.460186,-2.24822 -11.314487,-3.25837 -17.111328,-3.05274 z"
       style="stroke-width:0.26458332"
       transform="matrix(0.99318724,0,0,0.99318724,1.4420808,0.07812013)" />
    <path
       id="path3738"
       d="m 76.048421,223.13395 c -0.687308,-0.18346 -1.491778,0.0815 -1.826172,0.29102 -0.334393,0.20946 -0.458665,0.34845 -0.59375,0.4707 -0.138289,0.12515 -0.428885,0.30156 -0.730469,0.90234 -0.301583,0.60079 -0.259969,1.49124 -0.0957,1.95508 0.328532,0.92768 0.713583,1.31981 1.429688,2.35938 2.444989,3.54939 4.088404,7.68786 4.990641,12.19612 0.694447,3.46994 1.057738,9.00135 -0.341797,15.47266 -0.339206,1.16077 -0.287589,1.02513 -0.753906,2.16992 -0.01626,0.0399 -0.03124,0.0803 -0.04492,0.1211 -2.829872,8.47116 -8.978262,15.59889 -17.017578,19.95898 -1.123297,0.60919 -1.594122,0.80239 -2.240234,1.32227 -0.161528,0.12997 -0.468373,0.0764 -0.765625,1.12109 -0.148626,0.52235 0.06837,1.58182 0.558594,2.04687 0.490225,0.46505 0.853264,0.49975 1.072265,0.53907 0.876003,0.15726 0.873033,0.009 1.148438,-0.0371 3.009657,-0.49848 5.753873,-1.62888 8.095703,-3.36524 7.116752,-5.27675 12.34238,-12.90953 14.8125,-21.59961 1.168841,-4.11213 1.512066,-6.69137 1.503906,-11.27148 -0.01042,-6.16544 -1.166045,-11.54093 -3.673828,-17.04883 -1.022728,-2.24622 -2.505804,-4.65771 -3.85197,-6.30941 -0.322927,-0.39621 -0.307768,-0.92977 -1.675781,-1.29492 z"
       style="stroke-width:0.26458332"
       transform="matrix(0.99318724,0,0,0.99318724,1.4420808,0.07812013)" />
    <path
       id="path3736"
       d="m 57.73307,275.54178 c 2.82965,-2.10655 6.513252,-5.82499 8.51945,-8.60003 0.867172,-1.19952 1.754059,-2.40034 1.970851,-2.6685 0.330881,-0.40928 3.89128,-1.41998 4.136904,-1.17435 0.03834,0.0384 -0.5409,0.94627 -1.287221,2.01761 -1.976234,2.83688 -5.975143,6.72649 -8.893634,8.65056 -2.10955,1.39076 -5.957425,3.41439 -6.492376,3.41439 -0.08611,0 0.834626,-0.73785 2.046026,-1.63968 z"
       style="stroke-width:0.26278079" />
    <path
       id="path3734"
       d="m 70.87399,259.11528 c 0.291321,-0.68651 0.755547,-1.6865 1.031604,-2.2222 0.601683,-1.1676 1.990039,-6.9363 2.396828,-9.95893 0.173243,-1.28735 0.234621,-3.98804 0.151194,-6.65376 -0.147806,-4.72324 -0.146876,-5.3175 -1.359081,-8.93617 -0.338905,-1.01169 -0.575036,-1.8813 -0.52474,-1.93244 0.05025,-0.0511 0.804451,1.36787 1.675904,3.15337 3.856436,7.90135 4.12464,12.90606 1.987868,21.50443 -0.199304,0.80198 -0.504907,1.80711 -0.679112,2.23364 -0.174215,0.42652 -0.343316,0.89376 -0.375772,1.03829 -0.03248,0.14453 -0.239736,0.69423 -0.460641,1.22156 -0.376299,0.89833 -0.518304,0.98532 -2.251814,1.3796 -1.017599,0.23145 -1.911329,0.42082 -1.986057,0.42082 -0.07468,0 0.102486,-0.5617 0.393819,-1.24821 z"
       style="stroke-width:0.26278079" />
    <path
       id="path3732"
       d="m 14.920977,257.84721 c -0.980273,-3.2445 -1.343575,-5.42694 -1.502863,-9.02803 -0.298295,-6.74375 1.141513,-12.85337 4.339954,-18.41599 1.706874,-2.96854 1.556422,-2.84864 3.814025,-3.03947 1.104064,-0.0934 2.00739,-0.0879 2.00739,0.0121 0,0.1 -0.576597,1.03629 -1.281325,2.08065 -1.664821,2.46715 -3.700039,6.53969 -4.738419,9.4817 -1.814886,5.14208 -2.733788,12.87931 -2.137569,17.99852 0.158077,1.35726 0.232447,2.52273 0.165267,2.5899 -0.06717,0.0671 -0.367089,-0.68856 -0.66646,-1.67942 z"
       style="stroke-width:0.26278079" />
    <path
       d="m 55.140625,217.47656 c -0.108999,0.12436 -0.249577,1.03888 -0.542969,2.88477 -0.143448,0.90249 -0.474079,1.93487 -0.734375,2.29492 -0.725595,1.00366 -2.355625,1.6544 -4.677734,1.86719 -2.321881,0.21277 -2.050431,0.42382 0.958984,0.74609 3.017716,0.32318 4.246081,1.55789 4.548828,4.57617 0.09657,0.96278 0.25111,1.98635 0.34375,2.27539 0.103573,0.3232 0.279326,-0.33344 0.457032,-1.70703 0.158937,-1.22849 0.486578,-2.60673 0.728515,-3.0625 0.575224,-1.08363 1.843925,-1.82882 3.47461,-2.03906 3.559196,-0.45884 3.597427,-0.49091 0.953125,-0.83203 -3.782792,-0.48795 -4.660459,-1.3649 -5.152344,-5.14649 -0.171161,-1.31588 -0.248423,-1.98178 -0.357422,-1.85742 z"
       id="path3730"
       style="stroke-width:0.26278079" />
    <path
       id="path3728"
       d="m 70.797121,227.50941 c -0.471932,-3.80708 -0.808325,-4.83742 -1.998064,-6.12003 -1.203713,-1.29767 -2.476195,-1.75032 -6.387605,-2.27226 -2.026449,-0.27041 -3.728415,-0.53561 -3.782136,-0.58933 -0.05373,-0.0537 1.580558,-0.30082 3.631758,-0.54909 6.739491,-0.8157 7.862269,-1.99216 8.634442,-9.04734 0.177959,-1.62595 0.39658,-2.95628 0.485828,-2.95628 0.08929,0 0.31187,1.33033 0.494716,2.95628 0.47817,4.25213 0.89654,5.53407 2.24675,6.88428 1.397106,1.3971 2.068838,1.62189 6.631948,2.21929 4.014006,0.52552 4.021305,0.51792 -1.162705,1.20947 -3.156955,0.42113 -4.47858,0.92658 -5.608777,2.14498 -1.223448,1.31895 -1.579853,2.40677 -2.022308,6.17252 -0.235236,2.00207 -0.490336,3.64013 -0.566892,3.64013 -0.07658,0 -0.345191,-1.66168 -0.596955,-3.69262 z"
       style="stroke-width:0.26278079" />
    <path
       id="path3724"
       d="m 22.64631,223.79445 c 1.197473,-1.70964 6.386975,-5.55558 9.822656,-7.27958 1.832221,-0.91938 6.412545,-2.50616 8.059878,-2.79223 0.817253,-0.14192 0.349517,0.17441 -2.102246,1.42173 -3.689796,1.87715 -6.921019,4.14318 -10.136897,7.10893 l -2.306656,2.12727 h -1.873634 -1.873633 z"
       style="stroke-width:0.26278079" />
  </g>
</svg>
