<?xml version="1.0" encoding="UTF-8" standalone="no"?>
<!-- Created with Inkscape (http://www.inkscape.org/) -->

<svg
   width="240"
   height="240"
   viewBox="0 0 63.5 63.5"
   version="1.1"
   id="svg5"
   xmlns="http://www.w3.org/2000/svg"
   xmlns:svg="http://www.w3.org/2000/svg">
  <defs
     id="defs2" />
  <path
     style="stroke-width:0.288731"
     d="M 5.050155,63.10626 C 2.7107024,62.204877 1.1329136,60.598972 0.34873254,58.321066 -0.13552723,56.914376 -0.10674613,39.845858 0.38095774,39.210643 1.362806,37.931821 2.7881553,37.782488 4.0309536,38.828232 c 0.8883483,0.747498 0.8883483,0.747498 0.8883483,9.109392 0,9.075437 0.082937,9.616045 1.5799571,10.29813 0.5310971,0.241987 3.2446113,0.344946 9.091039,0.344946 8.333973,0 8.333973,0 9.081468,0.88835 1.045745,1.242797 0.896413,2.668145 -0.38241,3.649994 -0.634546,0.487189 -17.9714704,0.47567 -19.2391999,-0.01279 z m 34.203215,0.01949 c -1.280477,-1.00188 -1.428146,-2.41392 -0.382411,-3.656705 0.747499,-0.888344 0.747499,-0.888344 9.109392,-0.888344 9.075438,0 9.616044,-0.08295 10.298131,-1.579958 0.241986,-0.531097 0.344945,-3.244613 0.344945,-9.091041 0,-8.333971 0,-8.333971 0.88835,-9.081469 0.970789,-0.816866 1.599418,-0.917163 2.67549,-0.42687 1.326897,0.604573 1.373737,0.993152 1.284352,10.654501 -0.09321,10.073854 -0.127115,10.270417 -2.114863,12.258166 -1.994626,1.994624 -2.163268,2.023179 -12.405847,2.100458 -7.007716,0.05287 -9.350073,-0.01686 -9.697539,-0.288732 z M 10.942472,52.831932 c -0.681633,-0.551593 -0.681633,-0.551593 -0.772129,-8.878505 -0.09999,-9.200793 0.02622,-10.216326 1.337241,-10.759367 0.570518,-0.236315 3.302208,-0.310795 9.208331,-0.251058 7.784739,0.07874 8.441474,0.125044 9.004485,0.634958 0.592636,0.536745 0.607303,0.768625 0.607303,9.600335 0,8.665329 -0.02457,9.074866 -0.577463,9.627768 -0.552128,0.552127 -0.962439,0.577463 -9.3518,0.577463 -8.206806,0 -8.818423,-0.03567 -9.455968,-0.551594 z M 26.574189,43.27791 c 0,-6.3521 0,-6.3521 -6.207735,-6.3521 -6.207735,0 -6.207735,0 -6.207735,6.3521 0,6.352102 0,6.352102 6.207735,6.352102 6.207735,0 6.207735,0 6.207735,-6.352102 z m -8.675819,2.382039 c -0.0075,-0.0397 -0.02013,-1.144101 -0.02807,-2.454222 -0.01444,-2.382037 -0.01444,-2.382037 2.479377,-2.465629 2.493815,-0.08359 2.493815,-0.08359 2.410225,2.408282 -0.08359,2.491871 -0.08359,2.491871 -2.465742,2.537811 -1.310183,0.02526 -2.388287,0.01346 -2.395786,-0.02625 z m 16.47158,3.970063 c 0,-2.598587 0,-2.598587 2.45422,-2.598587 2.454222,0 2.454222,0 2.454222,2.598587 0,2.598586 0,2.598586 -2.454222,2.598586 -2.45422,0 -2.45422,0 -2.45422,-2.598586 z m 12.704202,0.01123 c 0,-2.609818 0,-2.609818 2.609828,-2.609818 2.60983,0 2.60983,0 2.526403,2.526403 -0.08343,2.526404 -0.08343,2.526404 -2.609828,2.609827 -2.526403,0.08343 -2.526403,0.08343 -2.526403,-2.526403 z m -6.232023,-4.029426 c -0.06604,-0.06615 -0.120078,-1.208098 -0.120078,-2.537636 0,-2.417341 0,-2.417341 2.482407,-2.333915 2.482409,0.08343 2.482409,0.08343 2.481719,2.491142 -5.77e-4,2.407717 -5.77e-4,2.407717 -2.362329,2.45422 -1.2989,0.02558 -2.415675,-0.0076 -2.481719,-0.0738 z M 34.36995,36.781444 c 0,-2.45422 0,-2.45422 2.45422,-2.45422 2.454222,0 2.454222,0 2.454222,2.45422 0,2.454222 0,2.454222 -2.454222,2.454222 -2.45422,0 -2.45422,0 -2.45422,-2.454222 z m 12.704202,0 c 0,-2.45422 0,-2.45422 2.598586,-2.45422 2.598587,0 2.598587,0 2.598587,2.45422 0,2.454222 0,2.454222 -2.598587,2.454222 -2.598586,0 -2.598586,0 -2.598586,-2.454222 z M 11.492816,30.246055 c -1.291176,-0.482159 -1.422394,-1.548019 -1.322473,-10.742211 0.0905,-8.32691 0.0905,-8.32691 0.772129,-8.878505 0.637545,-0.515916 1.249162,-0.551593 9.455968,-0.551593 8.389361,0 8.799672,0.02534 9.3518,0.577464 0.552901,0.5529 0.577463,0.962439 0.577463,9.627767 0,8.831765 -0.01467,9.063588 -0.607315,9.600334 -0.564792,0.51152 -1.196545,0.553932 -9.02287,0.605734 -5.15964,0.03416 -8.720871,-0.05832 -9.204702,-0.23899 z M 26.574189,20.179361 c 0,-6.352101 0,-6.352101 -6.207735,-6.352101 -6.207735,0 -6.207735,0 -6.207735,6.352101 0,6.352101 0,6.352101 6.207735,6.352101 6.207735,0 6.207735,0 6.207735,-6.352101 z m -8.675705,2.454221 c -0.0075,-0.0794 -0.01994,-1.196175 -0.0275,-2.48172 -0.01375,-2.337353 -0.01375,-2.337353 2.395787,-2.338041 2.409537,-6.89e-4 2.409537,-6.89e-4 2.492961,2.481719 0.08343,2.482408 0.08343,2.482408 -2.382038,2.482408 -1.356004,0 -2.471649,-0.06496 -2.47921,-0.144366 z m 16.760197,7.735288 c -0.238203,-0.08759 -0.660474,-0.357323 -0.938379,-0.599418 -0.461109,-0.401693 -0.505279,-1.231309 -0.505279,-9.490475 0,-8.665328 0.02456,-9.074867 0.577463,-9.627767 0.552128,-0.552128 0.962439,-0.577464 9.351801,-0.577464 8.206665,0 8.818434,0.03568 9.455968,0.55157 0.681632,0.551571 0.681632,0.551571 0.774174,8.878505 0.104358,9.390077 -0.01158,10.256726 -1.438413,10.754127 -0.929735,0.324107 -16.426955,0.423602 -17.277335,0.110922 z M 49.384007,20.179361 c 0,-6.352101 0,-6.352101 -6.207735,-6.352101 -6.207736,0 -6.207736,0 -6.207736,6.352101 0,6.352101 0,6.352101 6.207736,6.352101 6.207735,0 6.207735,0 6.207735,-6.352101 z m -8.601181,0.127587 c 0.08359,-2.493816 0.08359,-2.493816 2.493128,-2.493127 2.409536,6.93e-4 2.409536,6.93e-4 2.410223,2.410224 5.78e-4,2.409537 5.78e-4,2.409537 -2.493127,2.493128 -2.493815,0.08359 -2.493815,0.08359 -2.410224,-2.410225 z M 1.2710444,25.038898 C 0.03786134,24.441768 -0.01726196,23.953104 0.07110904,14.401408 0.16431444,4.3275541 0.19822344,4.1309924 2.1859728,2.1432429 4.1737212,0.15549463 4.3702829,0.12158233 14.444136,0.02838023 c 9.66135,-0.089386 10.049927,-0.042549 10.654501,1.28435057 0.490292,1.0760719 0.389995,1.7047024 -0.426872,2.6754929 -0.747496,0.8883483 -0.747496,0.8883483 -9.081468,0.8883483 -5.8464277,0 -8.559942,0.1029614 -9.0910391,0.344944 -1.4970162,0.6820863 -1.5799571,1.2226927 -1.5799571,10.29813 0,8.361896 0,8.361896 -0.8883483,9.109394 -0.9346477,0.786453 -1.7363066,0.905503 -2.7599081,0.409858 z M 59.511777,24.62904 c -0.88835,-0.747498 -0.88835,-0.747498 -0.88835,-9.109394 0,-9.0754373 -0.08294,-9.6160437 -1.579958,-10.29813 -0.531096,-0.2419848 -3.244614,-0.344944 -9.091041,-0.344944 -8.33397,0 -8.33397,0 -9.081469,-0.8883483 -0.816865,-0.9707905 -0.917163,-1.599421 -0.42687,-2.6754929 0.604573,-1.32689477 0.993151,-1.37373647 10.654501,-1.28435057 10.073855,0.093205 10.270418,0.1271144 12.258166,2.11486267 1.987748,1.9877495 2.02166,2.1843112 2.114863,12.2581651 0.08939,9.66135 0.04255,10.049928 -1.284352,10.654502 -1.076072,0.490292 -1.704701,0.389996 -2.67549,-0.42687 z"
     id="path1107" />
</svg>
