<svg xmlns="http://www.w3.org/2000/svg" xmlns:xlink="http://www.w3.org/1999/xlink" width="16" height="16" viewBox="0 0 16 16"><defs><path id="bhf1a" d="M809 308a8 8 0 1 1 16 0 8 8 0 0 1-16 0z"/><path id="bhf1c" d="M816.3 312v-1.15h1.17V312zm.02-2.29v-.56c0-1.79 2-2.05 2-3.4 0-.67-.56-1.18-1.34-1.18-.74 0-1.34.5-1.34.5l-.64-.81s.78-.76 2.07-.76c1.33 0 2.46.85 2.46 2.16 0 1.95-2.09 2.15-2.09 3.57v.48z"/><clipPath id="bhf1b"><use fill="#fff" xlink:href="#bhf1a"/></clipPath></defs><g><g opacity=".4" transform="translate(-809 -300)"><g opacity=".4"><use fill-opacity=".3" xlink:href="#bhf1a"/><use fill="#fff" fill-opacity="0" stroke="#fff" stroke-miterlimit="50" stroke-width="2" clip-path="url(&quot;#bhf1b&quot;)" xlink:href="#bhf1a"/></g><g opacity=".4"><use fill="#fff" xlink:href="#bhf1c"/></g></g></g></svg>