<?xml version="1.0" encoding="UTF-8" standalone="no"?>
<!-- Created with Inkscape (http://www.inkscape.org/) -->

<svg
   width="100mm"
   height="100mm"
   viewBox="0 0 100 100"
   version="1.1"
   id="svg8"
   xmlns="http://www.w3.org/2000/svg"
   xmlns:svg="http://www.w3.org/2000/svg"
   xmlns:rdf="http://www.w3.org/1999/02/22-rdf-syntax-ns#"
   xmlns:cc="http://creativecommons.org/ns#"
   xmlns:dc="http://purl.org/dc/elements/1.1/">
  <defs
     id="defs2" />
  <metadata
     id="metadata5">
    <rdf:RDF>
      <cc:Work
         rdf:about="">
        <dc:format>image/svg+xml</dc:format>
        <dc:type
           rdf:resource="http://purl.org/dc/dcmitype/StillImage" />
      </cc:Work>
    </rdf:RDF>
  </metadata>
  <g
     id="layer1"
     transform="translate(0,-197)">
    <path
       style="stroke-width:0.26458332"
       id="path869"
       d="m 130.66602,56.730469 c -1.09895,0.802178 -0.35702,0.144867 -1.10547,1.064453 -0.30643,0.387292 -0.66505,0.866232 -1.00586,1.349609 -0.66737,0.946538 -1.69934,2.349277 -2.2793,3.097657 -0.59135,0.763077 -1.60811,2.106585 -2.26562,2.99414 -0.65242,0.880691 -1.66734,2.224221 -2.25,2.978516 -0.58921,0.762759 -1.23486,1.628246 -1.46875,1.970703 -1.51895,2.223976 -8.12737,10.683428 -17.42383,22.289062 -3.002005,3.747682 -5.745407,7.191834 -7.748049,9.720701 -1.001322,1.26444 -1.817692,2.29941 -2.388672,3.03125 -0.28549,0.36592 -0.509519,0.6555 -0.666016,0.86133 -0.07825,0.10292 -0.138485,0.18598 -0.183594,0.24805 -0.02255,0.031 -0.04027,0.0559 -0.05664,0.0801 -0.01637,0.0242 -0.02276,0.0101 -0.06445,0.11328 -0.07044,0.17429 -0.0358,0.27476 -0.01563,0.35937 0.02017,0.0846 0.04904,0.15811 0.08398,0.23633 0.06988,0.15643 0.166107,0.32765 0.289063,0.52344 0.24591,0.39157 0.593301,0.8696 0.992187,1.35547 0.775144,0.94416 2.126897,2.61524 2.998047,3.70898 0.873294,1.09642 2.038015,2.5586 2.591797,3.25 0.552648,0.69001 1.24364,1.55368 1.531251,1.91602 0.29056,0.36606 1.00514,1.25827 1.58984,1.98632 0.58371,0.7268 1.29641,1.62014 1.58399,1.98243 0.29055,0.36606 1.00514,1.25827 1.58984,1.98632 0.58399,0.72716 1.29895,1.62087 1.58594,1.98243 0.29056,0.36606 1.00514,1.25827 1.58984,1.98632 1.7358,2.16131 2.07563,2.5875 2.96289,3.72461 0.46737,0.59898 1.20424,1.53356 1.64258,2.08204 0.4359,0.54541 1.15197,1.44559 1.58789,1.99609 0.4372,0.55208 1.15067,1.449 1.58789,1.99609 0.43462,0.54383 1.1732,1.48077 1.63867,2.07617 0.47182,0.60352 1.18299,1.4766 1.59571,1.95899 0.50494,0.59018 0.75627,1.05846 0.88867,1.41992 -0.14784,-0.009 -0.2756,-0.0108 -0.51367,-0.0508 -0.70794,-0.1188 -1.75879,-0.37699 -3.02344,-0.75195 -1.26508,-0.3751 -3.40374,-0.86863 -4.81055,-1.11329 -1.3705,-0.23834 -3.28154,-0.63279 -4.20312,-0.86523 -1.52986,-0.38584 -3.81544,-0.46245 -14.193362,-0.53906 -11.312747,-0.0835 -12.771476,-0.041 -16.464844,0.45703 -5.623983,0.75832 -9.76439,1.6204 -12.888672,2.69531 -0.660867,0.22737 -1.179222,0.36623 -1.53125,0.41797 -0.288612,0.0424 -0.346429,0.007 -0.355468,0.0195 0.01035,-0.0375 0.01048,-0.0537 0.04297,-0.12109 0.11307,-0.23442 0.371855,-0.60815 0.769532,-1.07422 0.514517,-0.603 1.170163,-1.38937 1.46875,-1.76367 0.290623,-0.36433 1.001066,-1.25669 1.580078,-1.98438 0.578332,-0.72681 1.29394,-1.62131 1.585937,-1.98242 0.297285,-0.36767 1.006988,-1.25794 1.583985,-1.98633 0.574793,-0.72559 1.340871,-1.6781 1.695312,-2.10937 0.361483,-0.43986 1.049644,-1.2916 1.533203,-1.89649 3.006987,-3.76146 3.580644,-4.48063 5.771485,-7.23828 0.944927,-1.1894 2.374741,-2.97647 3.173828,-3.9668 0.801829,-0.99374 2.229066,-2.77877 3.175781,-3.9707 1.577826,-1.98652 3.52192,-4.4068 5.583985,-6.95312 0.240285,-0.29672 0.442274,-0.60193 0.583984,-0.875 0.07085,-0.13654 0.126107,-0.26475 0.164062,-0.39453 0.03796,-0.12978 0.09058,-0.25937 0.002,-0.48047 -0.03627,-0.0905 -0.04334,-0.0863 -0.05859,-0.10938 -0.01526,-0.0231 -0.03271,-0.0463 -0.05273,-0.0742 -0.04005,-0.0559 -0.09225,-0.12863 -0.160156,-0.21875 -0.135819,-0.18023 -0.330248,-0.43123 -0.576172,-0.74804 -0.491847,-0.63363 -1.192739,-1.52628 -2.052734,-2.61524 -1.71999,-2.1779 -4.073446,-5.138418 -6.646485,-8.353514 -5.144824,-6.428599 -9.848427,-12.326625 -10.408203,-13.052734 -0.583241,-0.756533 -1.416237,-1.827554 -1.855468,-2.382813 -2.09248,-2.645278 -4.376103,-5.508319 -5.763672,-7.228515 -0.839924,-1.041259 -2.27025,-2.818346 -3.175781,-3.947266 -0.908761,-1.132947 -2.480763,-3.057975 -3.501954,-4.285156 -1.01139,-1.215393 -2.560678,-3.17645 -3.425781,-4.335938 -0.441441,-0.591665 -0.869556,-1.12992 -1.208984,-1.527343 -0.169714,-0.198712 -0.315052,-0.361635 -0.4375,-0.484375 -0.06122,-0.06137 -0.115334,-0.111701 -0.173828,-0.158204 -0.0585,-0.0465 -0.05863,-0.126216 -0.330079,-0.136718 -0.120026,-0.0047 -0.259721,0.05092 -0.339843,0.123047 -0.08012,0.07213 -0.116103,0.144887 -0.140625,0.205078 -0.04904,0.120382 -0.05753,0.216507 -0.06641,0.332031 -0.01776,0.231049 -0.0094,0.529532 0.02148,0.953125 0.06175,0.847186 0.215054,2.172909 0.470703,4.150391 0.120865,0.934941 0.354598,3.020732 0.513672,4.617187 0.161064,1.616327 0.460327,3.750585 0.679687,4.806641 0.203411,0.979315 0.500301,3.130721 0.648438,4.714844 0.257887,2.75782 0.528279,5.47809 1.449219,14.6875 0.21827,2.182712 0.574677,5.754589 0.792968,7.9375 0.218295,2.182972 0.576657,5.754842 0.794922,7.937502 0.21827,2.18272 0.574679,5.75459 0.792969,7.9375 0.21827,2.18272 0.574679,5.75459 0.792969,7.9375 0.218298,2.183 0.574104,5.72673 0.789062,7.87304 0.214812,2.14495 0.562275,5.74554 0.775391,8 0.228916,2.42165 0.366396,3.73688 0.554687,4.51954 0.09415,0.39132 0.196061,0.67212 0.408203,0.88671 0.150895,0.15265 0.342637,0.16546 0.523438,0.19532 -0.01824,0.0282 -0.02224,0.0367 -0.04297,0.0684 -0.266318,0.40645 -0.440672,0.80915 -0.486328,1.22265 -0.04566,0.41351 0.0514,0.82893 0.275391,1.19532 0.447989,0.73277 1.32742,1.30375 2.65625,1.9121 3.08741,1.41347 10.11199,2.76995 16.896484,3.32422 3.948185,0.32252 19.028511,0.33636 22.824222,0.0195 4.79262,-0.40003 9.16103,-1.08047 12.59961,-1.91796 3.43857,-0.83749 5.93146,-1.77717 7.08984,-2.93555 0.38436,-0.38436 0.66636,-0.78674 0.64062,-1.27734 -0.0257,-0.49061 -0.28968,-0.9173 -0.70898,-1.53516 -0.0532,-0.0783 -0.069,-0.11474 -0.11328,-0.1836 0.0658,0.0279 0.13822,0.0675 0.19922,0.0879 0.0759,0.0254 0.1458,0.0474 0.23047,0.0586 0.0423,0.006 0.0892,0.01 0.15625,0.002 0.0671,-0.008 0.17344,-0.0253 0.2832,-0.13672 3.7e-4,-3.7e-4 0.0357,-0.0406 0.0469,-0.0566 0.0111,-0.016 0.0191,-0.0295 0.0254,-0.041 0.0125,-0.0229 0.02,-0.0391 0.0254,-0.0527 0.0109,-0.0273 0.015,-0.0441 0.0195,-0.0605 0.009,-0.033 0.0154,-0.0606 0.0215,-0.0918 0.0121,-0.0623 0.0237,-0.13756 0.0371,-0.23047 0.0269,-0.18581 0.0581,-0.43999 0.0937,-0.75 0.0714,-0.62001 0.15836,-1.45884 0.24219,-2.37109 0.16698,-1.81691 0.46899,-4.97202 0.67187,-7.00782 0.20306,-2.03742 0.55205,-5.54895 0.77539,-7.80468 0.22331,-2.2553 0.59107,-5.9477 0.81641,-8.20313 0.22536,-2.25563 0.57577,-5.76745 0.7793,-7.80469 0.20361,-2.03813 0.55613,-5.61046 0.78125,-7.93945 0.11236,-1.16253 0.22781,-2.29482 0.32422,-3.179686 0.0964,-0.884867 0.18104,-1.559786 0.20312,-1.677735 0.0262,-0.140034 0.0526,-0.377001 0.0957,-0.767578 0.0431,-0.390577 0.0969,-0.910951 0.15821,-1.523437 0.12266,-1.224973 0.27581,-2.821404 0.42773,-4.496094 0.30338,-3.344211 0.66277,-6.932279 0.79297,-7.919922 0.13956,-1.058724 0.37314,-3.960262 0.52734,-6.513672 0.37337,-6.182818 0.778,-11.572152 1.0625,-14.132812 0.12932,-1.163883 0.3081,-2.762232 0.39649,-3.550782 0.037,-0.329634 0.0631,-0.584461 0.0762,-0.787109 0.013,-0.202647 0.0266,-0.337814 -0.0195,-0.517578 -0.0231,-0.09001 -0.0697,-0.221662 -0.2168,-0.320313 -0.14704,-0.09865 -0.33573,-0.08994 -0.43554,-0.05859 z"
       transform="matrix(0.80047128,0,0,0.80047128,-22.6323,162.39624)" />
  </g>
</svg>
