<?xml version="1.0" encoding="UTF-8" standalone="no"?>
<!-- Generator: Adobe Illustrator 19.0.0, SVG Export Plug-In . SVG Version: 6.00 Build 0)  -->

<svg
   xmlns:dc="http://purl.org/dc/elements/1.1/"
   xmlns:cc="http://creativecommons.org/ns#"
   xmlns:rdf="http://www.w3.org/1999/02/22-rdf-syntax-ns#"
   xmlns:svg="http://www.w3.org/2000/svg"
   xmlns="http://www.w3.org/2000/svg"
   xmlns:sodipodi="http://sodipodi.sourceforge.net/DTD/sodipodi-0.dtd"
   xmlns:inkscape="http://www.inkscape.org/namespaces/inkscape"
   version="1.1"
   id="Layer_1"
   x="0px"
   y="0px"
   viewBox="0 0 512 512"
   style="enable-background:new 0 0 512 512;"
   xml:space="preserve"
   sodipodi:docname="wallet.svg"
   inkscape:version="0.92.2 5c3e80d, 2017-08-06"><metadata
     id="metadata85"><rdf:RDF><cc:Work
         rdf:about=""><dc:format>image/svg+xml</dc:format><dc:type
           rdf:resource="http://purl.org/dc/dcmitype/StillImage" /></cc:Work></rdf:RDF></metadata><defs
     id="defs83" /><sodipodi:namedview
     pagecolor="#ffffff"
     bordercolor="#666666"
     borderopacity="1"
     objecttolerance="10"
     gridtolerance="10"
     guidetolerance="10"
     inkscape:pageopacity="0"
     inkscape:pageshadow="2"
     inkscape:window-width="2560"
     inkscape:window-height="1025"
     id="namedview81"
     showgrid="false"
     inkscape:zoom="0.65186406"
     inkscape:cx="-20.158852"
     inkscape:cy="86.607956"
     inkscape:window-x="0"
     inkscape:window-y="0"
     inkscape:window-maximized="1"
     inkscape:current-layer="g48" /><g
     id="g6"
     transform="translate(1.0847458,-53.152542)"><g
       id="g4"><path
         d="M 470,320 H 338 c -2.212,0 -4,1.792 -4,4 v 56 c 0,2.208 1.788,4 4,4 h 132 c 2.212,0 4,-1.792 4,-4 v -56 c 0,-2.208 -1.788,-4 -4,-4 z m -98.6,47.768 c -8.836,0 -16,-7.168 -16,-16 0,-8.836 7.164,-16 16,-16 8.836,0 16,7.164 16,16 0,8.832 -7.164,16 -16,16 z"
         id="path2"
         inkscape:connector-curvature="0" /></g></g><g
     id="g12"
     transform="translate(1.0847458,-53.152542)"><g
       id="g10"><path
         d="m 406,408 v 43.96 C 406,462.988 399.156,472 388.132,472 H 138.632 118.6 60.24 c -0.024,0 -1.072,-0.028 -1.096,-0.028 C 51.892,471.96 46,462.384 38,459.248 v 8.96 C 38,488.06 56.196,512 76.048,512 h 37.22 12.148 294.516 c 19.852,0 34.072,-16.192 34.072,-36.044 V 408 Z"
         id="path8"
         inkscape:connector-curvature="0" /></g></g><g
     id="g18"
     transform="translate(1.0847458,-53.152542)"><g
       id="g16"><path
         d="m 339.4,296 h 43.832 L 383.4,248 H 95.712 C 60.22,248 59.172,247.816 59.144,247.816 51.892,247.804 46,245.82 38,242.684 v 175.548 c 0,0.648 1.224,1.324 1.224,1.996 0,11.032 9.996,27.772 21.02,27.772 0.016,0 0.028,0 0.04,0 H 382 V 408 H 339.4 C 323.96,408 310,395.084 310,379.644 V 323.896 C 310,308.456 323.956,296 339.4,296 Z"
         id="path14"
         inkscape:connector-curvature="0" /></g></g><g
     id="g42"
     transform="translate(1.0847458,-53.152542)"><g
       id="g40" /></g><g
     id="g48"><g
       id="g46"
       transform="translate(1.0847458,-53.152542)"><path
         id="path44"
         d="m 331.084,224 h 57.048 C 399.156,224 406,232.62 406,243.648 V 296 h 48 v -76.356 c 0,-20.096 -12,-37.056 -32,-42.292 V 151.644 C 422,127.384 404.196,108 379.928,108 H 371.86 140.24 84.056 C 59.796,108 38,127.384 38,151.644 v 50.14 c 0,0.608 1.216,1.404 1.216,2.036 0,11.032 10.004,20.18 21.028,20.18 h 0.04 121.24 z M 174,176 H 84.056 C 73.032,176 62,166.672 62,155.644 v -4 C 62,140.616 73.032,132 84.056,132 h 64.504 214.984 16.388 C 390.96,132 398,140.616 398,151.644 V 176 h -64 z"
         inkscape:connector-curvature="0"
         sodipodi:nodetypes="cssccscssccsssssccccssssccssccc"
         style="fill:#000000;fill-opacity:1;stroke:none;stroke-opacity:1" /></g></g><g
     id="g50" /><g
     id="g52" /><g
     id="g54" /><g
     id="g56" /><g
     id="g58" /><g
     id="g60" /><g
     id="g62" /><g
     id="g64" /><g
     id="g66" /><g
     id="g68" /><g
     id="g70" /><g
     id="g72" /><g
     id="g74" /><g
     id="g76" /><g
     id="g78" /></svg>