<?xml version="1.0" encoding="utf-8"?>
<!-- Generator: Adobe Illustrator 22.1.0, SVG Export Plug-In . SVG Version: 6.00 Build 0)  -->
<svg version="1.1" id="Layer_1" xmlns="http://www.w3.org/2000/svg" xmlns:xlink="http://www.w3.org/1999/xlink" x="0px" y="0px"
	 viewBox="0 0 24 24" style="enable-background:new 0 0 24 24;" xml:space="preserve">
<path d="M13,4c-3.9,0-7,3.1-7,7c0,0.8,0.1,1.5,0.4,2.2l-0.7,0.8l-0.5,0.5l-1,1c-0.6,0.6-0.9,1.3-0.9,2.2c0,1.7,1.4,3.1,3.1,3.1
	c0.8,0,1.5-0.3,2.1-0.8L8.5,20l0.1-0.1l1.5-1.5l0.8-0.7c0.7,0.2,1.4,0.4,2.2,0.4c3.9,0,7-3.1,7-7S16.9,4,13,4z M13,16
	c-2.8,0-5-2.2-5-5s2.2-5,5-5s5,2.2,5,5S15.8,16,13,16z"/>
</svg>
