
<svg width="350px" height="393px" viewBox="0 0 350 393" version="1.1" xmlns="http://www.w3.org/2000/svg" xmlns:xlink="http://www.w3.org/1999/xlink">
    <!-- Generator: Sketch 50.2 (55047) - http://www.bohemiancoding.com/sketch -->
    <desc>Created with Sketch.</desc>
    <defs>
        <circle id="path-1" cx="175" cy="175" r="175"></circle>
    </defs>
    <g id="UI" stroke="none" stroke-width="1" fill="none" fill-rule="evenodd" opacity="0.699999988">
        <g id="illustration/men-active" transform="translate(0.000000, 1.000000)">
            <g id="men" transform="translate(0.000000, -1.000000)">
                <g id="illustration/men-active">
                    <g id="Group" transform="translate(0.000000, 43.000000)">
                        <mask id="mask-2" fill="white">
                            <use xlink:href="#path-1"></use>
                        </mask>
                        <use id="Oval-2" fill="#171A25" opacity="0.2" xlink:href="#path-1"></use>
                        <polygon id="Fill-1" fill="#186974" mask="url(#mask-2)" points="119 189 35 231 -21 366 367 366 317 231 234 189"></polygon>
                        <polygon id="Fill-2" fill="#E7E7E8" mask="url(#mask-2)" points="198 221 156 221 130 191.035117 126 135 228 135 223 191.035117"></polygon>
                        <polygon id="Fill-3" fill="#B31749" mask="url(#mask-2)" points="146 195 169 366 188 366 211 195 178 204"></polygon>
                    </g>
                    <path d="M241,110 C240.864698,110.411214 241.354432,63.7181603 236,47.1996126 C214.072926,16.4363772 140.640831,16.4363772 119,47.1996126 C113.641358,63.7181603 114,110 114,110 C114,110 111.28523,107.307989 107,105 C104.697426,103.758549 98.9116014,103.253491 99,109 C99.2820338,127.63456 103.916318,144.165023 106,148.985777 C108.041588,153.70841 112.542182,157.947086 117,157 C119.538304,168.194388 122.800811,178.439482 126,183 C130.689338,189.685063 157.020209,209.548097 162,211.984071 C166.807203,214.338988 171.658196,215.038395 177,215 C182.632257,215.038395 188.188588,214.338988 193,211.984071 C197.975581,209.548097 223.310662,189.685063 228,183 C231.19498,178.439482 234.465905,168.194388 237,157 C241.462027,157.947086 245.954203,153.70841 248,148.985777 C250.083682,144.165023 255.717966,127.63456 256,109 C256.092608,103.253491 250.302574,103.758549 248,105 C243.71898,107.307989 241.135302,109.588786 241,110 Z" id="Fill-4" fill="#FFFFFF"></path>
                    <path d="M179.364916,1.05177323 C178.817686,0.945119385 176.84345,0.945119385 176.338315,0.940853231 C124.338862,3.18485015 107.349484,39.9164348 103.695673,51.0468302 C99.9829297,62.3905332 103.064155,89.0403185 107,105 C107,105 117,126 117,126 C115.493014,70.1603123 126,49 126,49 C126,49 158.899169,79.3148015 193,76 C218.488277,73.5256308 230,58 230,58 C230,58 241.289946,77.13974 239,126 L248,105 C251.935845,89.0403185 255.686626,62.3905332 251.965464,51.0468302 C248.320072,39.9164348 231.330693,3.18485015 179.364916,1.05177323 Z" id="Fill-6" fill="#186974"></path>
                    <polygon id="Fill-9" fill="#FF276D" points="126 217 118 230 147 281 178 247"></polygon>
                    <polygon id="Fill-11" fill="#FF276D" points="227 217 178 247 210 281 235 230"></polygon>
                </g>
            </g>
        </g>
    </g>
</svg>