
<svg width="100px" height="100px" viewBox="0 0 100 100" version="1.1" xmlns="http://www.w3.org/2000/svg" xmlns:xlink="http://www.w3.org/1999/xlink">
    <!-- Generator: Sketch 50.2 (55047) - http://www.bohemiancoding.com/sketch -->
    <desc>Created with Sketch.</desc>
    <defs>
        <circle id="path-1" cx="50" cy="50.6902667" r="50"></circle>
    </defs>
    <g id="UI" stroke="none" stroke-width="1" fill="none" fill-rule="evenodd">
        <g id="ico-men/active">
            <g id="ico-men/-active" transform="translate(0.000000, -1.000000)">
                <g id="mask" transform="translate(0.000000, 0.309733)">
                    <mask id="mask-2" fill="white">
                        <use xlink:href="#path-1"></use>
                    </mask>
                    <use id="Oval-2" fill="#171A25" opacity="0.2" xlink:href="#path-1"></use>
                    <polygon id="Fill-1" fill="#186974" mask="url(#mask-2)" points="35 76.6902667 13 89.6902667 13 114.690267 88 114.690267 88 89.6902667 66 76.6902667"></polygon>
                    <polygon id="Fill-2" fill="#E7E7E8" mask="url(#mask-2)" points="57 86.6902667 44 86.6902667 37 78.6902667 36 62.6902667 65 62.6902667 64 78.6902667"></polygon>
                    <polygon id="Fill-3" fill="#B31749" mask="url(#mask-2)" points="38 80.6902667 47 114.690267 55 114.690267 64 80.6902667 50.5 81.6902667"></polygon>
                </g>
                <path d="M68.8184851,43.3433125 C68.8184851,43.3433125 68.8846338,30.021283 67.3547959,25.3083641 C61.0899176,16.5312828 40.0991473,16.5312828 33.9160527,25.3083641 C32.3850122,30.021283 32.4511608,43.3433125 32.4511608,43.3433125 C32.4511608,43.3433125 31.2243514,42.6584941 30,42 C29.3421216,41.6458008 27.9747432,41.4384266 28,43.0779674 C28.0805811,48.3946074 29.8196473,52.9736366 30.4149851,54.3490494 C30.9982959,55.6964671 32.6423905,57.2702138 33.9160527,57 C34,59 35.0859459,62.6721228 36,63.9732876 C37.3398108,65.8806079 44,71 46,72 C48,73 53,73 55,72 C57,71 63.6601892,65.8806079 65,63.9732876 C65.9128514,62.6721228 68,60 68,57 C69.2748649,57.2702138 70.27135,55.6964671 70.8558635,54.3490494 C71.4512014,52.9736366 72.9194189,48.3946074 73,43.0779674 C73.0264595,41.4384266 71.6578784,41.6458008 71,42 C69.5456568,42.8955417 68.8184851,43.3433125 68.8184851,43.3433125 Z" id="Fill-4" fill="#FFFFFF"></path>
                <path d="M51,12 C36,12 30.6712811,23.2303952 29.6273351,26.4060165 C28.5665514,29.6424968 28.875473,37.4465315 30,42 C30,42 33,48 33,48 C32.5694324,32.0683377 36,26 36,26 C36,26 45.2569054,34.9457485 55,34 C62.2823649,33.2940359 66,29 66,29 C66,29 68.6542703,34.0596433 68,48 L71,42 C72.124527,37.4465315 73.0533216,29.6424968 71.9901324,26.4060165 C70.9485919,23.2303952 65.8473649,12.6085897 51,12 Z" id="Fill-6" fill="#186974"></path>
                <polygon id="Fill-9" fill="#FF276D" points="36 74 34 77 42 92 50.5 82"></polygon>
                <polygon id="Fill-11" fill="#FF276D" points="65 74 50.5 82 60 92 67 77"></polygon>
            </g>
        </g>
    </g>
</svg>