
<svg width="100px" height="100px" viewBox="0 0 100 100" version="1.1" xmlns="http://www.w3.org/2000/svg" xmlns:xlink="http://www.w3.org/1999/xlink">
    <!-- Generator: Sketch 50.2 (55047) - http://www.bohemiancoding.com/sketch -->
    <desc>Created with Sketch.</desc>
    <defs>
        <circle id="path-1" cx="50" cy="50.6933333" r="50"></circle>
    </defs>
    <g id="UI" stroke="none" stroke-width="1" fill="none" fill-rule="evenodd">
        <g id="Group" transform="translate(0.000000, -0.693333)">
            <mask id="mask-2" fill="white">
                <use xlink:href="#path-1"></use>
            </mask>
            <use id="Oval-2" fill="#171A25" opacity="0.2" xlink:href="#path-1"></use>
            <path d="M24.296,40.6933333 L75.704,40.6933333 C76.419761,40.6933333 77,41.2735723 77,41.9893333 L77,107.693333 L23,107.693333 L23,41.9893333 C23,41.2735723 23.580239,40.6933333 24.296,40.6933333 Z" id="Rectangle-4" fill="#186974" mask="url(#mask-2)"></path>
        </g>
        <path d="M50.5,49 L47.5,56 L49.5,56 L49.5,75.5 L44.641658,70.325871 C44.1965152,69.8412887 43.951627,69.2140711 43.951627,68.5589876 L43.951627,67.4717475 C45.1304798,67.0752496 45.9799507,65.973368 45.9799507,64.6726472 C45.9799507,63.0389531 44.6411807,61.714381 42.9899753,61.714381 C41.3385313,61.714381 40,63.0389531 40,64.6726472 C40,65.9558929 40.8272735,67.0450222 41.9817806,67.4547446 L41.9817806,68.5589876 C41.9817806,69.699598 42.4087835,70.792978 43.1840242,71.6365102 L48.3935078,77.3079176 C49.0701726,78.0447093 49.4863951,78.9949818 49.5,79.9889422 C47.4294295,80.4362126 45.838412,82.2581192 45.838412,84.4408648 C45.838412,86.958709 47.9551675,89 50.5,89 C53.0450712,89 55.0544196,86.958709 55.0544196,84.4408648 C55.0544196,82.2682737 53.5560108,80.4470756 51.5,79.9889422 L51.5,76 C51.5,74.6640926 52.0140823,73.5316236 52.9688122,72.5867826 L57.8047577,67.8025953 C58.6203357,66.9956666 59.0881534,65.8784353 59.0881534,64.7371165 L59.0881534,63.5242439 L61,63.5242439 L61,57.7470407 L55.160872,57.7470407 L55.160872,63.5242439 L57.1183069,63.5242439 L57.1183069,64.7371165 C57.1183069,65.3652787 56.8607686,65.9802164 56.4118068,66.424653 C53.1627284,69.4484354 51.5254595,70.9735511 51.5,71 L51.5,56 L53.5,56 L50.5,49 Z" id="Fill-1" fill="#FFFFFF" opacity="0.5"></path>
        <rect id="Rectangle-5" fill="#00FFFF" x="33" y="14" width="34" height="22"></rect>
        <rect id="Rectangle-5-Copy" fill="#FF276D" x="30" y="36" width="40" height="4"></rect>
        <rect id="Rectangle-3" fill="#000000" x="38" y="22" width="6" height="3"></rect>
        <rect id="Rectangle-3-Copy" fill="#000000" x="56" y="22" width="6" height="3"></rect>
        <polyline id="Path-2" stroke="#000000" stroke-width="0.5" opacity="0.200000003" points="49 14 49 22 52 22 52 27 49 27 49 36"></polyline>
    </g>
</svg>