<?xml version="1.0" encoding="utf-8"?>
<!-- Generator: Adobe Illustrator 17.1.0, SVG Export Plug-In . SVG Version: 6.00 Build 0)  -->
<!DOCTYPE svg PUBLIC "-//W3C//DTD SVG 1.1//EN" "http://www.w3.org/Graphics/SVG/1.1/DTD/svg11.dtd">
<svg version="1.1" id="Ebene_1" xmlns="http://www.w3.org/2000/svg" xmlns:xlink="http://www.w3.org/1999/xlink" x="0px" y="0px"
	 viewBox="0 0 49.5 65.5" enable-background="new 0 0 49.5 65.5" xml:space="preserve">
<g>
	<path fill="#5D7995" d="M19.4,40.7L6.5,27.9c0,6.5,0,11.1,0,15.4h11.8C18.5,42.3,18.9,41.5,19.4,40.7z"/>
	<path fill="#5D7995" d="M18.3,45.8H6.5c0.3,4.1,1.9,7.9,4.5,10.9l8.4-8.4C18.8,47.6,18.5,46.7,18.3,45.8z"/>
	<path fill="#5D7995" d="M37,30.6c-2.9-2.6-6.7-4.2-10.9-4.5v11.8c0.9,0.2,1.8,0.5,2.5,1L37,30.6z"/>
	<path fill="#5D7995" d="M30.6,48.1l8.4,8.4c2.5-2.9,4.1-6.6,4.4-10.7H31.5C31.3,46.6,31,47.4,30.6,48.1z"/>
	<path fill="#5D7995" d="M31.5,43.3h11.8c-0.3-4.1-1.9-7.9-4.5-10.9l-8.4,8.4C31,41.5,31.3,42.4,31.5,43.3z"/>
	<path fill="#5D7995" d="M12.8,58.4c2.9,2.6,6.7,4.2,10.9,4.5V51.1c-0.9-0.2-1.8-0.5-2.5-1L12.8,58.4z"/>
	<path fill="#5D7995" d="M26.2,51.1v11.8c4.2-0.3,7.9-1.9,10.9-4.5l-8.3-8.3C27.9,50.6,27.1,50.9,26.2,51.1z"/>
	<path fill="#5D7995" d="M6.5,24c3.1,3.5,12.9,13.8,14.8,14.8c0.7,0.4,1.5-0.8,2.3-0.9c0-3.3,0-19.3,0-19.3L6.5,3.4
		C6.5,3.4,6.5,23.5,6.5,24z"/>
</g>
</svg>
