<?xml version="1.0" encoding="UTF-8" standalone="no"?>
<svg width="40px" height="30px" viewBox="0 0 40 30" version="1.1" xmlns="http://www.w3.org/2000/svg" xmlns:xlink="http://www.w3.org/1999/xlink" xmlns:sketch="http://www.bohemiancoding.com/sketch/ns">
    <!-- Generator: Sketch 3.3.2 (12043) - http://www.bohemiancoding.com/sketch -->
    <title>Fill 119</title>
    <desc>Created with Sketch.</desc>
    <defs></defs>
    <g id="Page-1" stroke="none" stroke-width="1" fill="none" fill-rule="evenodd" sketch:type="MSPage">
        <g id="outline" sketch:type="MSLayerGroup" transform="translate(-951.000000, -483.000000)" fill="#5B5B58">
            <path d="M956.605,491.552 L952.506,491.552 C952.091,491.552 951.756,491.888 951.756,492.302 L951.756,496.399 C951.756,496.813 952.091,497.149 952.506,497.149 L956.605,497.149 C957.019,497.149 957.355,496.813 957.355,496.399 L957.355,492.302 C957.355,491.888 957.019,491.552 956.605,491.552 L956.605,491.552 Z M953.256,493.052 L955.856,493.052 L955.856,495.65 L953.256,495.65 L953.256,493.052 Z M956.605,499.397 L952.506,499.397 C952.091,499.397 951.756,499.732 951.756,500.147 L951.756,504.24 C951.756,504.654 952.091,504.99 952.506,504.99 L956.605,504.99 C957.019,504.99 957.355,504.654 957.355,504.24 L957.355,500.147 C957.355,499.732 957.019,499.397 956.605,499.397 L956.605,499.397 Z M953.256,500.897 L955.856,500.897 L955.856,503.491 L953.256,503.491 L953.256,500.897 Z M956.605,507.237 L952.506,507.237 C952.091,507.237 951.756,507.573 951.756,507.987 L951.756,512.084 C951.756,512.498 952.091,512.834 952.506,512.834 L956.605,512.834 C957.019,512.834 957.355,512.498 957.355,512.084 L957.355,507.987 C957.355,507.573 957.019,507.237 956.605,507.237 L956.605,507.237 Z M953.256,508.737 L955.856,508.737 L955.856,511.334 L953.256,511.334 L953.256,508.737 Z M956.605,483.709 L952.506,483.709 C952.091,483.709 951.756,484.045 951.756,484.459 L951.756,488.556 C951.756,488.97 952.091,489.306 952.506,489.306 L956.605,489.306 C957.019,489.306 957.355,488.97 957.355,488.556 L957.355,484.459 C957.355,484.045 957.019,483.709 956.605,483.709 L956.605,483.709 Z M953.256,485.209 L955.856,485.209 L955.856,487.806 L953.256,487.806 L953.256,485.209 Z M990.172,499.397 L986.076,499.397 C985.662,499.397 985.325,499.732 985.325,500.147 L985.325,504.24 C985.325,504.654 985.662,504.99 986.076,504.99 L990.172,504.99 C990.586,504.99 990.922,504.654 990.922,504.24 L990.922,500.147 C990.922,499.732 990.586,499.397 990.172,499.397 L990.172,499.397 Z M986.825,500.897 L989.421,500.897 L989.421,503.491 L986.825,503.491 L986.825,500.897 Z M978.984,483.709 L974.887,483.709 C974.473,483.709 974.137,484.045 974.137,484.459 L974.137,488.556 C974.137,488.97 974.473,489.306 974.887,489.306 L978.984,489.306 C979.398,489.306 979.734,488.97 979.734,488.556 L979.734,484.459 C979.734,484.045 979.398,483.709 978.984,483.709 L978.984,483.709 Z M975.637,485.209 L978.234,485.209 L978.234,487.806 L975.637,487.806 L975.637,485.209 Z M967.793,507.237 L963.697,507.237 C963.283,507.237 962.946,507.573 962.946,507.987 L962.946,512.084 C962.946,512.498 963.283,512.834 963.697,512.834 L967.793,512.834 C968.207,512.834 968.543,512.498 968.543,512.084 L968.543,507.987 C968.543,507.573 968.207,507.237 967.793,507.237 L967.793,507.237 Z M964.447,508.737 L967.043,508.737 L967.043,511.334 L964.447,511.334 L964.447,508.737 Z M990.172,491.552 L986.076,491.552 C985.662,491.552 985.325,491.888 985.325,492.302 L985.325,496.399 C985.325,496.813 985.662,497.149 986.076,497.149 L990.172,497.149 C990.586,497.149 990.922,496.813 990.922,496.399 L990.922,492.302 C990.922,491.888 990.586,491.552 990.172,491.552 L990.172,491.552 Z M986.825,493.052 L989.421,493.052 L989.421,495.65 L986.825,495.65 L986.825,493.052 Z M990.172,507.237 L986.076,507.237 C985.662,507.237 985.325,507.573 985.325,507.987 L985.325,512.084 C985.325,512.498 985.662,512.834 986.076,512.834 L990.172,512.834 C990.586,512.834 990.922,512.498 990.922,512.084 L990.922,507.987 C990.922,507.573 990.586,507.237 990.172,507.237 L990.172,507.237 Z M986.825,508.737 L989.421,508.737 L989.421,511.334 L986.825,511.334 L986.825,508.737 Z M967.793,499.397 L963.697,499.397 C963.283,499.397 962.946,499.732 962.946,500.147 L962.946,504.24 C962.946,504.654 963.283,504.99 963.697,504.99 L967.793,504.99 C968.207,504.99 968.543,504.654 968.543,504.24 L968.543,500.147 C968.543,499.732 968.207,499.397 967.793,499.397 L967.793,499.397 Z M964.447,500.897 L967.043,500.897 L967.043,503.491 L964.447,503.491 L964.447,500.897 Z M978.984,507.237 L974.887,507.237 C974.473,507.237 974.137,507.573 974.137,507.987 L974.137,512.084 C974.137,512.498 974.473,512.834 974.887,512.834 L978.984,512.834 C979.398,512.834 979.734,512.498 979.734,512.084 L979.734,507.987 C979.734,507.573 979.398,507.237 978.984,507.237 L978.984,507.237 Z M975.637,508.737 L978.234,508.737 L978.234,511.334 L975.637,511.334 L975.637,508.737 Z M978.984,491.552 L974.887,491.552 C974.473,491.552 974.137,491.888 974.137,492.302 L974.137,496.399 C974.137,496.813 974.473,497.149 974.887,497.149 L978.984,497.149 C979.398,497.149 979.734,496.813 979.734,496.399 L979.734,492.302 C979.734,491.888 979.398,491.552 978.984,491.552 L978.984,491.552 Z M975.637,493.052 L978.234,493.052 L978.234,495.65 L975.637,495.65 L975.637,493.052 Z M978.984,499.397 L974.887,499.397 C974.473,499.397 974.137,499.732 974.137,500.147 L974.137,504.24 C974.137,504.654 974.473,504.99 974.887,504.99 L978.984,504.99 C979.398,504.99 979.734,504.654 979.734,504.24 L979.734,500.147 C979.734,499.732 979.398,499.397 978.984,499.397 L978.984,499.397 Z M975.637,500.897 L978.234,500.897 L978.234,503.491 L975.637,503.491 L975.637,500.897 Z" id="Fill-119" sketch:type="MSShapeGroup"></path>
        </g>
    </g>
</svg>