<?xml version="1.0" encoding="UTF-8" standalone="no"?>
<svg width="52px" height="41px" viewBox="0 0 52 41" version="1.1" xmlns="http://www.w3.org/2000/svg" xmlns:xlink="http://www.w3.org/1999/xlink" xmlns:sketch="http://www.bohemiancoding.com/sketch/ns">
    <!-- Generator: Sketch 3.3.2 (12043) - http://www.bohemiancoding.com/sketch -->
    <title>Fill 92</title>
    <desc>Created with Sketch.</desc>
    <defs></defs>
    <g id="Page-1" stroke="none" stroke-width="1" fill="none" fill-rule="evenodd" sketch:type="MSPage">
        <g id="outline" sketch:type="MSLayerGroup" transform="translate(-39.000000, -702.000000)" fill="#5B5B58">
            <path d="M64.719,722.931 C70.467,722.931 75.144,718.255 75.144,712.507 C75.144,706.762 70.467,702.087 64.719,702.087 C58.974,702.087 54.3,706.762 54.3,712.507 C54.3,718.255 58.974,722.931 64.719,722.931 L64.719,722.931 Z M64.719,703.587 C69.64,703.587 73.644,707.589 73.644,712.507 C73.644,717.428 69.64,721.431 64.719,721.431 C59.801,721.431 55.8,717.428 55.8,712.507 C55.8,707.589 59.801,703.587 64.719,703.587 L64.719,703.587 Z M80.44,719.401 C79.014,719.401 77.678,718.923 76.575,718.019 C76.256,717.756 75.782,717.802 75.52,718.123 C75.257,718.443 75.304,718.916 75.624,719.179 C76.978,720.289 78.688,720.901 80.44,720.901 C84.641,720.901 88.058,717.485 88.058,713.286 C88.058,709.088 84.641,705.673 80.44,705.673 C78.686,705.673 76.976,706.284 75.623,707.394 C75.304,707.656 75.257,708.129 75.52,708.449 C75.782,708.769 76.256,708.816 76.576,708.554 C77.66,707.663 79.033,707.173 80.44,707.173 C83.813,707.173 86.558,709.915 86.558,713.286 C86.558,716.658 83.813,719.401 80.44,719.401 L80.44,719.401 Z M75.503,728.374 C72.794,723.859 67.107,724.424 66.946,724.448 L62.313,724.448 C62.109,724.444 57.533,724.324 54.844,728.189 C53.353,730.327 51.163,738.531 50.393,741.945 C50.301,742.35 50.555,742.751 50.959,742.842 C51.363,742.935 51.764,742.68 51.855,742.275 C52.665,738.69 54.801,730.874 56.075,729.047 C58.287,725.867 62.23,725.955 62.287,725.948 L67.026,725.944 C67.076,725.938 72.037,725.461 74.238,729.18 C74.255,729.209 74.274,729.237 74.295,729.264 C75.646,730.969 77.908,738.643 78.741,742.278 C78.821,742.625 79.13,742.86 79.472,742.86 C79.527,742.86 79.583,742.854 79.64,742.842 C80.043,742.749 80.296,742.347 80.203,741.942 C79.549,739.091 77.231,730.623 75.503,728.374 L75.503,728.374 Z M48.996,720.901 C50.749,720.901 52.461,720.289 53.815,719.179 C54.135,718.916 54.182,718.443 53.919,718.123 C53.656,717.802 53.184,717.756 52.864,718.019 C51.761,718.923 50.424,719.401 48.996,719.401 C45.623,719.401 42.879,716.658 42.879,713.286 C42.879,709.915 45.623,707.173 48.996,707.173 C50.424,707.173 51.76,707.65 52.86,708.554 C53.181,708.816 53.654,708.769 53.916,708.449 C54.179,708.129 54.132,707.656 53.812,707.394 C52.46,706.284 50.749,705.673 48.996,705.673 C44.796,705.673 41.379,709.088 41.379,713.286 C41.379,717.485 44.796,720.901 48.996,720.901 L48.996,720.901 Z M90.03,731.435 C89.231,727.831 88.424,725.427 87.632,724.288 C85.662,721.451 82.285,721.539 82.17,721.542 L78.946,721.547 C78.783,721.525 74.912,721.141 72.838,724.076 C72.599,724.414 72.68,724.883 73.018,725.121 C73.355,725.359 73.824,725.28 74.063,724.941 C75.62,722.736 78.752,723.032 78.864,723.042 L82.197,723.042 C82.223,723.023 84.891,722.97 86.401,725.144 C86.868,725.816 87.623,727.51 88.565,731.759 C88.643,732.108 88.953,732.347 89.297,732.347 C89.351,732.347 89.405,732.341 89.459,732.329 C89.864,732.239 90.119,731.839 90.03,731.435 L90.03,731.435 Z M55.556,725.223 C55.768,725.581 56.227,725.699 56.583,725.486 C56.94,725.275 57.058,724.815 56.847,724.459 C54.863,721.11 50.669,721.527 50.573,721.542 L47.295,721.542 C47.159,721.542 43.776,721.448 41.805,724.288 C41.009,725.433 40.203,727.838 39.409,731.435 C39.32,731.84 39.576,732.24 39.98,732.329 C40.035,732.341 40.089,732.347 40.142,732.347 C40.486,732.347 40.797,732.108 40.874,731.758 C41.604,728.449 42.372,726.1 43.037,725.144 C44.532,722.989 47.129,723.042 47.269,723.042 L50.652,723.038 C50.687,723.034 54.07,722.714 55.556,725.223 L55.556,725.223 Z" id="Fill-92" sketch:type="MSShapeGroup"></path>
        </g>
    </g>
</svg>