<?xml version="1.0" ?><!DOCTYPE svg  PUBLIC '-//W3C//DTD SVG 1.1//EN'  'http://www.w3.org/Graphics/SVG/1.1/DTD/svg11.dtd'>
<svg enable-background="new 0 0 32 32" height="32px" id="Layer_1" version="1.1" viewBox="0 0 32 32" width="32px" xml:space="preserve" xmlns="http://www.w3.org/2000/svg" xmlns:xlink="http://www.w3.org/1999/xlink"><g id="key"><path d="M23.004,0c-5.523,0-10,4.478-10,10c0,1.285,0.269,2.501,0.713,3.629L1.568,25.777   C1.217,26.129,1,26.463,1,27v3c0,1.07,0.929,2,2,2h3c0.536,0,0.875-0.215,1.226-0.564L8.661,30h2.343c1.104,0,2-0.896,2-2v-2h2   c1.104,0,2-0.896,2-2v-2.344l2.369-2.371C20.502,19.73,21.717,20,23.004,20c5.521,0,10-4.478,10-10S28.525,0,23.004,0z M23.004,18   c-1.48,0-2.852-0.43-4.041-1.132l-0.344,0.343l-1.125,1.125l-1.905,1.906c-0.375,0.375-0.586,0.883-0.586,1.414V24h-2   c-1.104,0-2,0.895-2,2v2H8.661c-0.53,0-1.039,0.211-1.414,0.586l-1.418,1.418L3.003,30L3,27.15l11.665-11.644   c0,0,0,0.001,0.001,0.002l1.469-1.469c-0.702-1.189-1.132-2.56-1.132-4.04c0-4.418,3.583-8,8-8s8,3.582,8,8S27.422,18,23.004,18z" fill="#ffffff"/><path d="M28.82,8.239c-1.121-1.562-2.486-2.925-4.055-4.054C24.51,4,24.18,3.954,23.883,4.058   c-1.389,0.489-2.34,1.439-2.826,2.828c-0.037,0.104-0.055,0.212-0.055,0.319c0,0.199,0.062,0.396,0.182,0.563   c1.125,1.564,2.488,2.928,4.053,4.053c0.256,0.184,0.584,0.231,0.881,0.128c1.391-0.486,2.342-1.438,2.83-2.828   c0.037-0.104,0.055-0.212,0.055-0.319C29.002,8.603,28.939,8.406,28.82,8.239z M25.82,11.01C24.342,9.947,23.055,8.66,22,7.217   c0.387-1.103,1.111-1.827,2.182-2.221c1.479,1.065,2.764,2.349,3.816,3.811C27.607,9.902,26.885,10.622,25.82,11.01z" fill="#ffffff"/></g></svg>
