<?xml version="1.0" encoding="utf-8"?>
<!-- Generator: Adobe Illustrator 19.1.0, SVG Export Plug-In . SVG Version: 6.00 Build 0)  -->
<svg version="1.1" id="Ebene_1" xmlns:sketch="http://www.bohemiancoding.com/sketch/ns"
	 xmlns="http://www.w3.org/2000/svg" xmlns:xlink="http://www.w3.org/1999/xlink" x="0px" y="0px" viewBox="-728 233 42 36"
	 style="enable-background:new -728 233 42 36;" xml:space="preserve">
<path d="M-703.6,254c0,0,0,13.1,0,13.9l-1.1,0c0-7.1,0-6.5,0-13.9H-703.6z"/>
<path d="M-693.8,249.7c0-8-6.5-14.6-14.6-14.6c-8,0-14.6,6.5-14.6,14.6s6.5,14.6,14.6,14.6V263c-7.3,0-13.3-5.9-13.3-13.3
	s5.9-13.3,13.3-13.3s13.3,5.9,13.3,13.3H-693.8z"/>
<path d="M-704.7,267.9c8,0,14.6-6.5,14.6-14.6h-1.3c0,7.3-5.9,13.3-13.3,13.3V267.9z"/>
<path d="M-693.8,249.7c0,0.8-1.3,0.8-1.3,0S-693.8,248.8-693.8,249.7"/>
<path d="M-707.7,263.6c0,0.8-1.3,0.8-1.3,0S-707.7,262.8-707.7,263.6"/>
<path d="M-703.4,254c0,0.8-1.3,0.8-1.3,0S-703.4,253.1-703.4,254"/>
<path d="M-690.2,254.4c0,0-13.1,0-13.9,0v-1.1c0.7,0,13.9,0,13.9,0L-690.2,254.4"/>
</svg>
