<?xml version="1.0" encoding="UTF-8" standalone="no"?>
<svg width="43px" height="38px" viewBox="0 0 43 38" version="1.1" xmlns="http://www.w3.org/2000/svg" xmlns:xlink="http://www.w3.org/1999/xlink" xmlns:sketch="http://www.bohemiancoding.com/sketch/ns">
    <!-- Generator: Sketch 3.3.2 (12043) - http://www.bohemiancoding.com/sketch -->
    <title>Fill 87</title>
    <desc>Created with Sketch.</desc>
    <defs></defs>
    <g id="Page-1" stroke="none" stroke-width="1" fill="none" fill-rule="evenodd" sketch:type="MSPage">
        <g id="outline" sketch:type="MSLayerGroup" transform="translate(-421.000000, -703.000000)" fill="#5B5B58">
            <path d="M453.807,729.009 C457.432,729.009 460.381,726.06 460.381,722.436 C460.381,718.813 457.432,715.866 453.807,715.866 C450.183,715.866 447.234,718.813 447.234,722.436 C447.234,726.06 450.183,729.009 453.807,729.009 L453.807,729.009 Z M453.807,717.366 C456.603,717.366 458.88,719.641 458.88,722.436 C458.88,725.233 456.603,727.509 453.807,727.509 C451.01,727.509 448.734,725.233 448.734,722.436 C448.734,719.641 451.01,717.366 453.807,717.366 L453.807,717.366 Z M463.418,740.089 C463.124,738.805 461.695,733.342 460.545,731.82 C458.812,728.955 455.219,729.313 455.146,729.327 L452.37,729.327 C452.247,729.328 449.326,729.248 447.613,731.709 C447.357,732.08 447.073,732.698 446.744,733.6 C446.729,733.64 446.733,733.681 446.726,733.722 C445.914,731.133 444.958,728.548 444.146,727.485 C441.695,723.411 436.563,723.923 436.428,723.942 L432.285,723.942 C432.102,723.94 427.965,723.83 425.536,727.32 C424.193,729.247 422.23,736.598 421.541,739.654 C421.45,740.059 421.704,740.46 422.108,740.551 C422.518,740.644 422.913,740.388 423.004,739.984 C423.727,736.784 425.631,729.808 426.767,728.178 C428.723,725.368 432.197,725.445 432.258,725.442 L436.509,725.437 C436.553,725.435 440.928,724.995 442.881,728.292 C442.898,728.32 442.917,728.349 442.937,728.375 C444.137,729.891 446.156,736.74 446.901,739.987 C446.981,740.334 447.29,740.569 447.632,740.569 C447.687,740.569 447.744,740.563 447.8,740.551 C448.204,740.458 448.456,740.056 448.363,739.651 C448.111,738.553 447.582,736.523 446.937,734.406 C447.009,734.473 447.095,734.526 447.191,734.561 C447.58,734.7 448.012,734.503 448.153,734.113 C448.52,733.105 448.746,732.709 448.846,732.565 C450.082,730.788 452.227,730.824 452.343,730.827 L455.227,730.823 C455.344,730.81 458.055,730.559 459.278,732.625 C459.296,732.654 459.315,732.683 459.336,732.709 C460.121,733.7 461.459,738.259 461.956,740.425 C462.035,740.771 462.345,741.007 462.686,741.007 C462.741,741.007 462.799,741.001 462.854,740.988 C463.258,740.895 463.511,740.493 463.418,740.089 L463.418,740.089 Z M434.435,722.741 C439.62,722.741 443.838,718.523 443.838,713.339 C443.838,708.155 439.62,703.938 434.435,703.938 C429.251,703.938 425.033,708.155 425.033,713.339 C425.033,718.523 429.251,722.741 434.435,722.741 L434.435,722.741 Z M434.435,705.438 C438.793,705.438 442.338,708.982 442.338,713.339 C442.338,717.696 438.793,721.241 434.435,721.241 C430.078,721.241 426.533,717.696 426.533,713.339 C426.533,708.982 430.078,705.438 434.435,705.438 L434.435,705.438 Z" id="Fill-87" sketch:type="MSShapeGroup"></path>
        </g>
    </g>
</svg>