<?xml version="1.0" encoding="UTF-8" standalone="no"?>
<svg width="40px" height="42px" viewBox="0 0 40 42" version="1.1" xmlns="http://www.w3.org/2000/svg" xmlns:xlink="http://www.w3.org/1999/xlink" xmlns:sketch="http://www.bohemiancoding.com/sketch/ns">
    <!-- Generator: Sketch 3.3.2 (12043) - http://www.bohemiancoding.com/sketch -->
    <title>Fill 178</title>
    <desc>Created with Sketch.</desc>
    <defs></defs>
    <g id="Page-1" stroke="none" stroke-width="1" fill="none" fill-rule="evenodd" sketch:type="MSPage">
        <g id="outline" sketch:type="MSLayerGroup" transform="translate(-422.000000, -178.000000)" fill="#5B5B58">
            <path d="M437.193,190.915 L447.726,190.915 C448.14,190.915 448.476,190.579 448.476,190.165 L448.476,179.633 C448.476,179.219 448.14,178.883 447.726,178.883 L437.193,178.883 C436.779,178.883 436.443,179.219 436.443,179.633 L436.443,190.165 C436.443,190.579 436.779,190.915 437.193,190.915 L437.193,190.915 Z M437.943,180.383 L446.975,180.383 L446.975,189.415 L437.943,189.415 L437.943,180.383 Z M461.244,207.757 L450.712,207.757 C450.297,207.757 449.962,208.093 449.962,208.507 L449.962,219.039 C449.962,219.453 450.297,219.789 450.712,219.789 L461.244,219.789 C461.658,219.789 461.994,219.453 461.994,219.039 L461.994,208.507 C461.994,208.093 461.658,207.757 461.244,207.757 L461.244,207.757 Z M451.462,209.257 L460.494,209.257 L460.494,218.289 L451.462,218.289 L451.462,209.257 Z M434.25,207.757 L423.716,207.757 C423.303,207.757 422.966,208.093 422.966,208.507 L422.966,219.039 C422.966,219.453 423.303,219.789 423.716,219.789 L434.25,219.789 C434.663,219.789 435,219.453 435,219.039 L435,208.507 C435,208.093 434.663,207.757 434.25,207.757 L434.25,207.757 Z M424.466,209.257 L433.5,209.257 L433.5,218.289 L424.466,218.289 L424.466,209.257 Z M428.941,206.435 C429.354,206.435 429.691,206.099 429.691,205.685 L429.691,200.627 L455.227,200.627 L455.227,205.685 C455.227,206.099 455.562,206.435 455.977,206.435 C456.392,206.435 456.727,206.099 456.727,205.685 L456.727,199.877 C456.727,199.463 456.392,199.127 455.977,199.127 L443.269,199.127 L443.269,193.003 C443.269,192.589 442.934,192.253 442.519,192.253 C442.105,192.253 441.769,192.589 441.769,193.003 L441.769,199.127 L428.941,199.127 C428.527,199.127 428.191,199.463 428.191,199.877 L428.191,205.685 C428.191,206.099 428.527,206.435 428.941,206.435 L428.941,206.435 Z" id="Fill-178" sketch:type="MSShapeGroup"></path>
        </g>
    </g>
</svg>