<?xml version="1.0" encoding="UTF-8" standalone="no"?>
<svg width="42px" height="36px" viewBox="0 0 42 36" version="1.1" xmlns="http://www.w3.org/2000/svg" xmlns:xlink="http://www.w3.org/1999/xlink" xmlns:sketch="http://www.bohemiancoding.com/sketch/ns">
    <!-- Generator: Sketch 3.3.2 (12043) - http://www.bohemiancoding.com/sketch -->
    <title>Fill 166</title>
    <desc>Created with Sketch.</desc>
    <defs></defs>
    <g id="Page-1" stroke="none" stroke-width="1" fill="none" fill-rule="evenodd" sketch:type="MSPage">
        <g id="outline" sketch:type="MSLayerGroup" transform="translate(-346.000000, -256.000000)" fill="#5B5B58">
            <path d="M386.835,289.911 L379.586,289.911 L379.586,274.106 C379.586,273.692 379.25,273.356 378.836,273.356 C378.421,273.356 378.086,273.692 378.086,274.106 L378.086,289.911 L372.053,289.911 L372.053,265.818 C372.053,265.404 371.717,265.068 371.303,265.068 C370.888,265.068 370.553,265.404 370.553,265.818 L370.553,289.911 L364.517,289.911 L364.517,271.093 C364.517,270.679 364.181,270.343 363.767,270.343 C363.352,270.343 363.017,270.679 363.017,271.093 L363.017,289.911 L356.982,289.911 L356.982,280.345 C356.982,279.931 356.645,279.595 356.232,279.595 C355.818,279.595 355.482,279.931 355.482,280.345 L355.482,289.911 L347.77,289.911 L347.77,257.477 C347.77,257.063 347.435,256.727 347.02,256.727 C346.607,256.727 346.271,257.063 346.271,257.477 L346.271,290.661 C346.271,291.075 346.607,291.411 347.02,291.411 L386.835,291.411 C387.249,291.411 387.584,291.075 387.584,290.661 C387.584,290.247 387.249,289.911 386.835,289.911" id="Fill-166" sketch:type="MSShapeGroup"></path>
        </g>
    </g>
</svg>