<?xml version="1.0" standalone="no"?>
<!DOCTYPE svg PUBLIC "-//W3C//DTD SVG 20010904//EN"
        "http://www.w3.org/TR/2001/REC-SVG-20010904/DTD/svg10.dtd">
<svg version="1.0" xmlns="http://www.w3.org/2000/svg"
     width="837.000000pt" height="837.000000pt" viewBox="0 0 837.000000 837.000000"
     preserveAspectRatio="xMidYMid meet">

    <g transform="translate(0.000000,837.000000) scale(0.100000,-0.100000)"
       fill="#ffffff" stroke="none">
        <path d="M4430 7594 c-340 -37 -622 -105 -915 -221 -232 -92 -409 -185 -625
-329 -154 -102 -215 -154 -100 -83 143 88 180 109 293 165 1493 749 3312 240
4199 -1175 646 -1029 661 -2329 40 -3379 -74 -124 -208 -314 -299 -422 -74
-88 -261 -278 -355 -361 -312 -276 -732 -514 -1133 -642 -718 -230 -1494 -206
-2189 70 -206 81 -403 183 -591 305 -54 35 -57 36 -25 8 44 -39 258 -181 365
-242 389 -221 833 -365 1300 -420 143 -17 586 -17 730 0 243 29 487 82 707
156 1083 362 1919 1259 2201 2361 78 303 102 503 102 845 0 269 -8 373 -46
590 -166 957 -760 1815 -1601 2316 -529 314 -1124 476 -1743 473 -104 -1 -246
-7 -315 -15z"/>
        <path d="M2565 5210 c-4 -11 -151 -312 -327 -668 -176 -356 -337 -683 -358
-728 -21 -45 -86 -176 -144 -293 l-106 -211 182 0 183 0 54 120 53 120 476 -2
475 -3 61 -117 61 -118 178 0 177 0 -39 78 c-21 42 -59 120 -84 172 -25 52
-219 445 -431 874 -212 428 -386 783 -386 787 0 17 -19 9 -25 -11z m78 -803
c31 -67 94 -198 138 -292 45 -93 91 -190 102 -215 12 -25 23 -48 25 -52 2 -5
-150 -8 -337 -8 -188 0 -341 3 -341 6 0 10 345 684 350 683 3 0 31 -55 63
-122z"/>
        <path d="M5968 5176 c-144 -26 -288 -85 -412 -169 -80 -54 -209 -179 -262
-253 -216 -303 -214 -722 6 -1044 132 -193 354 -351 575 -410 114 -31 320 -38
439 -16 98 19 211 58 297 102 l57 29 -80 110 c-44 61 -86 118 -93 128 -13 18
-15 18 -52 -7 -94 -65 -291 -92 -442 -62 -153 31 -268 100 -373 222 -109 127
-160 269 -160 444 -1 170 49 294 171 422 116 124 264 202 408 216 114 11 307
-2 376 -26 l58 -19 94 106 c81 92 92 108 78 118 -27 21 -161 73 -241 94 -100
27 -334 34 -444 15z"/>
        <path d="M200 4230 l0 -920 278 0 c303 0 399 8 540 45 165 44 299 116 415 225
82 77 125 135 176 236 69 137 85 221 86 429 0 159 -3 189 -23 259 -69 238
-226 414 -475 531 -197 93 -332 115 -714 115 l-283 0 0 -920z m580 605 c335
-50 526 -204 575 -461 48 -249 -27 -481 -198 -609 -129 -98 -274 -143 -489
-152 l-138 -6 0 622 0 621 78 0 c42 0 120 -7 172 -15z"/>
        <path d="M3740 4231 l0 -921 165 0 165 0 0 760 0 760 53 0 c76 0 180 -25 238
-57 155 -84 215 -300 132 -476 -57 -119 -159 -198 -303 -231 -34 -8 -64 -17
-67 -20 -3 -2 109 -169 249 -370 l253 -365 198 -1 c108 0 197 2 197 5 0 3 -50
76 -112 163 -262 368 -304 428 -312 439 -4 9 22 43 76 97 100 102 144 171 175
279 65 224 -4 512 -160 671 -46 47 -83 73 -147 104 -141 67 -187 74 -512 79
l-288 5 0 -921z"/>
    </g>
</svg>
