<?xml version="1.0" encoding="UTF-8" standalone="no"?>
<svg
   xmlns:dc="http://purl.org/dc/elements/1.1/"
   xmlns:cc="http://creativecommons.org/ns#"
   xmlns:rdf="http://www.w3.org/1999/02/22-rdf-syntax-ns#"
   xmlns:svg="http://www.w3.org/2000/svg"
   xmlns="http://www.w3.org/2000/svg"
   id="svg4"
   viewBox="0 0 24 24"
   height="24"
   width="24"
   version="1.2">
  <metadata
     id="metadata10">
    <rdf:RDF>
      <cc:Work
         rdf:about="">
        <dc:format>image/svg+xml</dc:format>
        <dc:type
           rdf:resource="http://purl.org/dc/dcmitype/StillImage" />
        <dc:title></dc:title>
      </cc:Work>
    </rdf:RDF>
  </metadata>
  <defs
     id="defs8" />
  <path
     style="stroke-width:1.27344429"
     id="path2"
     d="m 20.705449,3.3171408 c -0.547581,-0.547581 -1.433898,-0.547581 -1.981479,0 L 16.532372,5.5100119 16.140151,5.117791 c -1.487383,-1.4873829 -4.095396,-1.4873829 -5.58278,0 l -5.3128091,5.31281 c -0.7436915,0.743691 -1.1537405,1.735704 -1.1537405,2.791389 0,1.055686 0.410049,2.047699 1.1537405,2.791391 l 0.3922209,0.392221 -2.1928711,2.192871 c -0.5475811,0.547581 -0.5475811,1.433898 0,1.981479 0.2737905,0.27379 0.6316283,0.410049 0.9907396,0.410049 0.3591113,0 0.7169492,-0.136259 0.9907397,-0.410049 l 2.1928711,-2.192871 0.3922208,0.392221 c 0.7436915,0.743691 1.7344311,1.153741 2.7913901,1.153741 1.056959,0 2.047699,-0.41005 2.791389,-1.153741 l 5.31281,-5.31281 c 0.743692,-0.743692 1.153741,-1.734431 1.153741,-2.79139 0,-1.0569595 -0.410049,-2.0476987 -1.153741,-2.7913902 L 18.513852,7.491491 20.706723,5.2986202 C 21.25303,4.7510391 21.25303,3.8647219 20.705454,3.3171408 Z m -3.780856,8.1678712 -5.312809,5.31281 c -0.213939,0.213939 -0.511925,0.322181 -0.809911,0.322181 -0.297986,0 -0.595972,-0.106969 -0.8099108,-0.322181 l -0.3922208,-0.39222 0.9194266,-0.919427 c 0.547582,-0.547581 0.547582,-1.433898 0,-1.98148 -0.27379,-0.27379 -0.6316282,-0.410048 -0.9907395,-0.410048 -0.3591113,0 -0.7169491,0.136258 -0.9907397,0.410048 L 7.6182621,14.424122 7.2260412,14.031901 C 7.0121026,13.817963 6.8936723,13.52889 6.8936723,13.22199 c 0,-0.3069 0.1184303,-0.595971 0.3323689,-0.80991 L 12.538851,7.0992702 c 0.213939,-0.2139387 0.501737,-0.332369 0.809911,-0.332369 0.308173,0 0.595971,0.1184303 0.80991,0.332369 l 0.392221,0.3922208 -0.919427,0.9194268 c -0.547581,0.5475807 -0.547581,1.4338987 0,1.9814802 0.273791,0.27379 0.631628,0.410049 0.99074,0.410049 0.359111,0 0.716949,-0.136259 0.990739,-0.410049 l 0.919427,-0.9194275 0.392221,0.392221 c 0.213939,0.2139385 0.332369,0.5030105 0.332369,0.8099105 0,0.3069 -0.11843,0.595972 -0.332369,0.80991 z" />
</svg>
