<?xml version="1.0" encoding="UTF-8" standalone="no"?>
<svg
   xmlns:dc="http://purl.org/dc/elements/1.1/"
   xmlns:cc="http://creativecommons.org/ns#"
   xmlns:rdf="http://www.w3.org/1999/02/22-rdf-syntax-ns#"
   xmlns:svg="http://www.w3.org/2000/svg"
   xmlns="http://www.w3.org/2000/svg"
   xmlns:sodipodi="http://sodipodi.sourceforge.net/DTD/sodipodi-0.dtd"
   xmlns:inkscape="http://www.inkscape.org/namespaces/inkscape"
   id="svg4"
   viewBox="0 0 24 24"
   height="24"
   width="24"
   version="1.2"
   sodipodi:docname="disconnected.svg"
   inkscape:version="0.92.2 5c3e80d, 2017-08-06">
  <sodipodi:namedview
     pagecolor="#ffffff"
     bordercolor="#666666"
     borderopacity="1"
     objecttolerance="10"
     gridtolerance="10"
     guidetolerance="10"
     inkscape:pageopacity="0"
     inkscape:pageshadow="2"
     inkscape:window-width="2560"
     inkscape:window-height="1025"
     id="namedview24"
     showgrid="false"
     inkscape:zoom="19.666667"
     inkscape:cx="6.5755374"
     inkscape:cy="13.389067"
     inkscape:window-x="1920"
     inkscape:window-y="0"
     inkscape:window-maximized="1"
     inkscape:current-layer="svg4"
     inkscape:measure-start="17.8475,12.9153"
     inkscape:measure-end="18.3051,12.7627" />
  <metadata
     id="metadata10">
    <rdf:RDF>
      <cc:Work
         rdf:about="">
        <dc:format>image/svg+xml</dc:format>
        <dc:type
           rdf:resource="http://purl.org/dc/dcmitype/StillImage" />
        <dc:title />
      </cc:Work>
    </rdf:RDF>
  </metadata>
  <defs
     id="defs8">
    <marker
       style="overflow:visible"
       id="CurveIn"
       refX="0.0"
       refY="0.0"
       orient="auto">
      <path
         transform="scale(0.6)"
         style="fill-rule:evenodd;stroke:#000000;stroke-width:1pt;fill:none;stroke-opacity:1"
         d="M 4.6254930,-5.0456926 C 1.8654930,-5.0456926 -0.37450702,-2.8056926 -0.37450702,-0.045692580 C -0.37450702,2.7143074 1.8654930,4.9543074 4.6254930,4.9543074"
         id="path1085" />
    </marker>
    <marker
       style="overflow:visible"
       id="Tail"
       refX="0.0"
       refY="0.0"
       orient="auto">
      <g
         style="stroke:#000000;stroke-opacity:1;fill:#000000;fill-opacity:1"
         transform="scale(-1.2)"
         id="g949">
        <path
           style="fill:#000000;fill-rule:evenodd;stroke:#000000;stroke-width:0.8;stroke-linecap:round;stroke-opacity:1;fill-opacity:1"
           d="M -3.8048674,-3.9585227 L 0.54352094,0"
           id="path937" />
        <path
           style="fill:#000000;fill-rule:evenodd;stroke:#000000;stroke-width:0.8;stroke-linecap:round;stroke-opacity:1;fill-opacity:1"
           d="M -1.2866832,-3.9585227 L 3.0617053,0"
           id="path939" />
        <path
           style="fill:#000000;fill-rule:evenodd;stroke:#000000;stroke-width:0.8;stroke-linecap:round;stroke-opacity:1;fill-opacity:1"
           d="M 1.3053582,-3.9585227 L 5.6537466,0"
           id="path941" />
        <path
           style="fill:#000000;fill-rule:evenodd;stroke:#000000;stroke-width:0.8;stroke-linecap:round;stroke-opacity:1;fill-opacity:1"
           d="M -3.8048674,4.1775838 L 0.54352094,0.21974226"
           id="path943" />
        <path
           style="fill:#000000;fill-rule:evenodd;stroke:#000000;stroke-width:0.8;stroke-linecap:round;stroke-opacity:1;fill-opacity:1"
           d="M -1.2866832,4.1775838 L 3.0617053,0.21974226"
           id="path945" />
        <path
           style="fill:#000000;fill-rule:evenodd;stroke:#000000;stroke-width:0.8;stroke-linecap:round;stroke-opacity:1;fill-opacity:1"
           d="M 1.3053582,4.1775838 L 5.6537466,0.21974226"
           id="path947" />
      </g>
    </marker>
    <marker
       style="overflow:visible"
       id="TriangleOutL"
       refX="0.0"
       refY="0.0"
       orient="auto">
      <path
         transform="scale(0.8)"
         style="fill-rule:evenodd;stroke:#000000;stroke-width:1pt;stroke-opacity:1;fill:#000000;fill-opacity:1"
         d="M 5.77,0.0 L -2.88,5.0 L -2.88,-5.0 L 5.77,0.0 z "
         id="path1043" />
    </marker>
    <marker
       style="overflow:visible;"
       id="Arrow2Lend"
       refX="0.0"
       refY="0.0"
       orient="auto">
      <path
         transform="scale(1.1) rotate(180) translate(1,0)"
         d="M 8.7185878,4.0337352 L -2.2072895,0.016013256 L 8.7185884,-4.0017078 C 6.9730900,-1.6296469 6.9831476,1.6157441 8.7185878,4.0337352 z "
         style="fill-rule:evenodd;stroke-width:0.625;stroke-linejoin:round;stroke:#000000;stroke-opacity:1;fill:#000000;fill-opacity:1"
         id="path922" />
    </marker>
    <marker
       style="overflow:visible;"
       id="Arrow1Lend"
       refX="0.0"
       refY="0.0"
       orient="auto">
      <path
         transform="scale(0.8) rotate(180) translate(12.5,0)"
         style="fill-rule:evenodd;stroke:#000000;stroke-width:1pt;stroke-opacity:1;fill:#000000;fill-opacity:1"
         d="M 0.0,0.0 L 5.0,-5.0 L -12.5,0.0 L 5.0,5.0 L 0.0,0.0 z "
         id="path904" />
    </marker>
  </defs>
  <path
     id="path897"
     d="m 22.062722,0.66896193 c -0.369205,0 -0.737888,0.14044739 -1.019875,0.42243297 L 18.785848,3.3504058 18.38152,2.946077 c -1.531904,-1.5319031 -4.219219,-1.5319031 -5.751124,0 l -2.413903,2.4139031 0.323866,1.6615699 1.693754,0.4043288 2.438042,-2.438042 c 0.220343,-0.2203423 0.51741,-0.3419698 0.834808,-0.3419698 0.317397,0 0.612454,0.1216275 0.832797,0.3419698 l 0.404329,0.4043286 -0.947458,0.9454454 c -0.56397,0.5639709 -0.56397,1.477788 0,2.0417598 0.281987,0.281985 0.652026,0.4224335 1.021887,0.4224335 0.369859,0 0.737889,-0.1404485 1.019873,-0.4224335 l 0.947457,-0.9474572 0.402318,0.4043289 c 0.220342,0.2203422 0.343981,0.5187213 0.343981,0.8348083 0,0.3160865 -0.123639,0.6124555 -0.343981,0.8327965 l -3.111923,3.1119229 1.798358,0.36611 0.235355,1.683697 3.11997,-3.119969 c 0.765951,-0.765953 1.188847,-1.7859623 1.188847,-2.8745574 0,-1.0885963 -0.422896,-2.1106164 -1.188847,-2.876568 l -0.404329,-0.4023172 2.25901,-2.2590109 c 0.562659,-0.5639713 0.561954,-1.4777882 -0.002,-2.0417596 -0.281965,-0.28198558 -0.65065,-0.42243297 -1.019854,-0.42243297 z"
     style="fill:#000000;fill-opacity:1;stroke-width:1.31156099"
     inkscape:connector-curvature="0" />
  <path
     id="path2"
     d="M 6.179758,9.2950197 3.2086457,12.266134 C 2.4426941,13.032085 2.02181,14.055417 2.02181,15.142701 c 0,1.087284 0.4208841,2.108604 1.1868357,2.874556 l 0.4043288,0.404328 -2.259011,2.257 c -0.56397114,0.563971 -0.56397114,1.477788 0,2.04176 0.2819857,0.281984 0.6520255,0.422432 1.0218856,0.422432 0.3698603,0 0.7378884,-0.140448 1.019874,-0.422432 l 2.259011,-2.259011 0.4023172,0.404328 c 0.7659516,0.765951 1.7879723,1.188848 2.8765673,1.188848 1.0885964,0 2.1086074,-0.422897 2.8745574,-1.188848 l 2.25901,-2.25901 -0.233343,-1.689733 -1.796346,-0.364097 -2.2710814,2.271081 c -0.220342,0.220342 -0.525891,0.331912 -0.832797,0.331912 -0.306905,0 -0.614465,-0.110258 -0.8348076,-0.331912 L 7.6944822,18.421585 8.6419396,17.474129 c 0.563972,-0.563972 0.563972,-1.477788 0,-2.041761 -0.281985,-0.281984 -0.6500143,-0.422432 -1.0198745,-0.422432 -0.3698602,0 -0.7398999,0.140448 -1.0218856,0.422432 L 5.6547341,16.379826 5.2504053,15.975497 c -0.2203422,-0.220341 -0.3419696,-0.51671 -0.3419696,-0.832796 0,-0.316087 0.1216274,-0.614466 0.3419696,-0.834809 L 8.1973796,11.360919 6.5016117,10.954578 Z"
     style="fill:#000000;fill-opacity:1;stroke-width:1.31156099"
     inkscape:connector-curvature="0" />
  <path
     style="color:#000000;font-style:normal;font-variant:normal;font-weight:normal;font-stretch:normal;font-size:medium;line-height:normal;font-family:sans-serif;font-variant-ligatures:normal;font-variant-position:normal;font-variant-caps:normal;font-variant-numeric:normal;font-variant-alternates:normal;font-feature-settings:normal;text-indent:0;text-align:start;text-decoration:none;text-decoration-line:none;text-decoration-style:solid;text-decoration-color:#000000;letter-spacing:normal;word-spacing:normal;text-transform:none;writing-mode:lr-tb;direction:ltr;text-orientation:mixed;dominant-baseline:auto;baseline-shift:baseline;text-anchor:start;white-space:normal;shape-padding:0;clip-rule:nonzero;display:inline;overflow:visible;visibility:visible;opacity:1;isolation:auto;mix-blend-mode:normal;color-interpolation:sRGB;color-interpolation-filters:linearRGB;solid-color:#000000;solid-opacity:1;vector-effect:none;fill:#000000;fill-opacity:1;fill-rule:nonzero;stroke:none;stroke-width:2.91676593;stroke-linecap:butt;stroke-linejoin:miter;stroke-miterlimit:4;stroke-dasharray:none;stroke-dashoffset:0;stroke-opacity:1;color-rendering:auto;image-rendering:auto;shape-rendering:auto;text-rendering:auto;enable-background:accumulate"
     d="m 35.403019,9.8880245 c -2.70691,0.7114445 -5.414588,1.4199775 -8.121982,2.1295875 l 1.921329,1.941482 -3.375061,3.341761 c 2.029134,2.090732 0,0 2.029134,2.090732 l 3.394897,-3.363371 1.941481,1.954921 z"
     id="path899"
     inkscape:connector-curvature="0"
     sodipodi:nodetypes="cccccccc" />
</svg>
