<?xml version="1.0" encoding="utf-8"?>
<!-- Generator: Adobe Illustrator 19.1.0, SVG Export Plug-In . SVG Version: 6.00 Build 0)  -->
<svg version="1.1" id="Ebene_1" xmlns:sketch="http://www.bohemiancoding.com/sketch/ns"
	 xmlns="http://www.w3.org/2000/svg" xmlns:xlink="http://www.w3.org/1999/xlink" x="0px" y="0px" viewBox="14 -9 40 30"
	 style="enable-background:new 14 -9 40 30;" xml:space="preserve">
<style type="text/css">
	.st0{fill:#5B5B58;}
</style>
<title>Fill 119</title>
<desc>Created with Sketch.</desc>
<path class="st0" d="M40.3,9.1c-5.3,0-9.8-2.5-9.8-5.5V2.9c1.9,2.1,5.5,3.5,9.8,3.5s7.8-1.4,9.8-3.5l0,0.8
	C50.1,6.6,45.6,9.1,40.3,9.1z M27.7,13.2c-5.3,0-9.8-2.5-9.8-5.5c0-3,4.5-5.5,9.8-5.5c0.5,0,0.9,0,1.4,0.1v1.3c0,3.1,3,5.6,7.4,6.6
	C34.8,12,31.5,13.2,27.7,13.2z M27.7,17.5c-5.3,0-9.8-2.5-9.8-5.5v-0.8c1.9,2.1,5.5,3.5,9.8,3.5s7.8-1.4,9.8-3.5l0,0.8
	C37.5,15,33,17.5,27.7,17.5z M40.3-6.1c5.2,0,9.6,2.4,9.8,5.3l0,0.3c-0.2,2.9-4.6,5.3-9.8,5.3c-5.3,0-9.8-2.5-9.8-5.5
	C30.5-3.6,35-6.1,40.3-6.1z M51.6-0.7c0-3.9-4.9-7-11.3-7c-6.3,0-11.3,3.1-11.3,7v1.5c-0.4,0-0.9-0.1-1.4-0.1
	c-6.3,0-11.3,3.1-11.3,7V12c0,3.9,4.9,7,11.3,7c6.3,0,11.3-3.1,11.3-7l0-1.5c0.4,0,0.9,0.1,1.4,0.1c6.3,0,11.3-3.1,11.3-7l0-4.1
	C51.6-0.5,51.6-0.6,51.6-0.7z"/>
</svg>
