<!-- Generated by IcoMoon.io -->
<svg version="1.1" xmlns="http://www.w3.org/2000/svg" width="24" height="28" viewBox="0 0 24 28">
<title>hourglass-3</title>
<path d="M22 2c0 5.781-2.766 9.969-5.828 12 3.063 2.031 5.828 6.219 5.828 12h1.5c0.281 0 0.5 0.219 0.5 0.5v1c0 0.281-0.219 0.5-0.5 0.5h-23c-0.281 0-0.5-0.219-0.5-0.5v-1c0-0.281 0.219-0.5 0.5-0.5h1.5c0-5.781 2.766-9.969 5.828-12-3.063-2.031-5.828-6.219-5.828-12h-1.5c-0.281 0-0.5-0.219-0.5-0.5v-1c0-0.281 0.219-0.5 0.5-0.5h23c0.281 0 0.5 0.219 0.5 0.5v1c0 0.281-0.219 0.5-0.5 0.5h-1.5zM13.656 13.062c3.156-1.188 6.344-5.359 6.344-11.062h-16c0 5.703 3.187 9.875 6.344 11.062 0.391 0.141 0.656 0.516 0.656 0.938s-0.266 0.797-0.656 0.938c-1.344 0.5-2.703 1.563-3.813 3.063h10.938c-1.109-1.5-2.469-2.562-3.813-3.063-0.391-0.141-0.656-0.516-0.656-0.938s0.266-0.797 0.656-0.938z"></path>
</svg>
