<!-- Generated by IcoMoon.io -->
<svg version="1.1" xmlns="http://www.w3.org/2000/svg" width="28" height="28" viewBox="0 0 28 28">
<path d="M4 20.5v3c0 0.266-0.234 0.5-0.5 0.5h-3c-0.266 0-0.5-0.234-0.5-0.5v-3c0-0.266 0.234-0.5 0.5-0.5h3c0.266 0 0.5 0.234 0.5 0.5zM4 14.5v3c0 0.266-0.234 0.5-0.5 0.5h-3c-0.266 0-0.5-0.234-0.5-0.5v-3c0-0.266 0.234-0.5 0.5-0.5h3c0.266 0 0.5 0.234 0.5 0.5zM4 8.5v3c0 0.266-0.234 0.5-0.5 0.5h-3c-0.266 0-0.5-0.234-0.5-0.5v-3c0-0.266 0.234-0.5 0.5-0.5h3c0.266 0 0.5 0.234 0.5 0.5zM28 20.5v3c0 0.266-0.234 0.5-0.5 0.5h-21c-0.266 0-0.5-0.234-0.5-0.5v-3c0-0.266 0.234-0.5 0.5-0.5h21c0.266 0 0.5 0.234 0.5 0.5zM4 2.5v3c0 0.266-0.234 0.5-0.5 0.5h-3c-0.266 0-0.5-0.234-0.5-0.5v-3c0-0.266 0.234-0.5 0.5-0.5h3c0.266 0 0.5 0.234 0.5 0.5zM28 14.5v3c0 0.266-0.234 0.5-0.5 0.5h-21c-0.266 0-0.5-0.234-0.5-0.5v-3c0-0.266 0.234-0.5 0.5-0.5h21c0.266 0 0.5 0.234 0.5 0.5zM28 8.5v3c0 0.266-0.234 0.5-0.5 0.5h-21c-0.266 0-0.5-0.234-0.5-0.5v-3c0-0.266 0.234-0.5 0.5-0.5h21c0.266 0 0.5 0.234 0.5 0.5zM28 2.5v3c0 0.266-0.234 0.5-0.5 0.5h-21c-0.266 0-0.5-0.234-0.5-0.5v-3c0-0.266 0.234-0.5 0.5-0.5h21c0.266 0 0.5 0.234 0.5 0.5z"></path>
</svg>
