<?xml version="1.0" encoding="UTF-8" standalone="no"?>
<svg width="54px" height="42px" viewBox="0 0 54 42" version="1.1" xmlns="http://www.w3.org/2000/svg" xmlns:xlink="http://www.w3.org/1999/xlink" xmlns:sketch="http://www.bohemiancoding.com/sketch/ns">
    <!-- Generator: Sketch 3.3.2 (12043) - http://www.bohemiancoding.com/sketch -->
    <title>Fill 198</title>
    <desc>Created with Sketch.</desc>
    <defs></defs>
    <g id="Page-1" stroke="none" stroke-width="1" fill="none" fill-rule="evenodd" sketch:type="MSPage">
        <g id="outline" sketch:type="MSLayerGroup" transform="translate(-869.000000, -29.000000)" fill="#5B5B58">
            <path d="M902.805,62.336 C902.729,61.928 902.34,61.658 901.93,61.735 C901.523,61.812 901.254,62.203 901.33,62.61 L901.87,65.507 C901.988,66.07 901.921,66.521 901.664,66.885 C901.275,67.438 900.426,67.822 899.233,67.99 L892.773,68.688 C891.754,68.647 890.658,68.243 890.154,65.731 L889.833,63.987 C889.758,63.58 889.373,63.308 888.959,63.387 C888.551,63.462 888.283,63.853 888.358,64.26 L888.683,66.015 C889.223,68.722 890.602,70.126 892.778,70.189 L892.801,70.189 C892.828,70.189 892.854,70.188 892.881,70.185 L899.418,69.479 C901.08,69.244 902.248,68.662 902.892,67.748 C903.385,67.047 903.539,66.166 903.342,65.217 L902.805,62.336 L902.805,62.336 Z M921.981,56.852 L912.329,30.731 C911.996,29.826 910.947,29.316 910,29.656 C909.543,29.825 909.18,30.161 908.977,30.604 C908.799,30.994 908.773,31.422 908.887,31.826 L871.054,57.611 C870.822,57.577 870.583,57.598 870.365,57.684 C870.021,57.813 869.748,58.073 869.599,58.414 C869.443,58.765 869.438,59.172 869.579,59.527 L871.459,64.347 C871.68,64.921 872.225,65.278 872.8,65.278 C872.965,65.278 873.131,65.25 873.291,65.188 C873.568,65.08 873.795,64.887 873.947,64.642 L918.857,58.59 C919.195,59.017 919.719,59.281 920.285,59.281 C920.387,59.281 920.49,59.272 920.615,59.251 C920.707,59.232 920.793,59.209 920.896,59.173 C921.358,59.008 921.723,58.675 921.928,58.235 C922.131,57.797 922.149,57.305 921.981,56.852 L921.981,56.852 Z M873.304,63.215 C873.074,63.246 872.879,63.379 872.764,63.566 L871.037,59.185 C871.307,59.243 871.591,59.153 871.771,58.935 L878.33,54.466 L881.15,62.157 L873.304,63.215 L873.304,63.215 Z M882.675,61.952 L879.609,53.595 L909.41,33.285 L918.232,57.161 L882.675,61.952 L882.675,61.952 Z M920.566,57.604 C920.543,57.655 920.492,57.725 920.34,57.776 L920.285,57.781 C920.174,57.781 920.037,57.72 919.986,57.581 L910.33,31.45 C910.296,31.359 910.318,31.279 910.34,31.229 C910.361,31.184 910.412,31.103 910.512,31.065 C910.549,31.053 910.587,31.046 910.623,31.046 C910.734,31.046 910.869,31.108 910.921,31.25 L920.574,57.374 C920.611,57.473 920.591,57.554 920.566,57.604 L920.566,57.604 Z" id="Fill-198" sketch:type="MSShapeGroup"></path>
        </g>
    </g>
</svg>