<!-- Generated by IcoMoon.io -->
<svg version="1.1" xmlns="http://www.w3.org/2000/svg" width="28" height="28" viewBox="0 0 28 28">
<title>server</title>
<path d="M2 22h16v-2h-16v2zM2 14h16v-2h-16v2zM26.5 21c0-0.828-0.672-1.5-1.5-1.5s-1.5 0.672-1.5 1.5 0.672 1.5 1.5 1.5 1.5-0.672 1.5-1.5zM2 6h16v-2h-16v2zM26.5 13c0-0.828-0.672-1.5-1.5-1.5s-1.5 0.672-1.5 1.5 0.672 1.5 1.5 1.5 1.5-0.672 1.5-1.5zM26.5 5c0-0.828-0.672-1.5-1.5-1.5s-1.5 0.672-1.5 1.5 0.672 1.5 1.5 1.5 1.5-0.672 1.5-1.5zM28 18v6h-28v-6h28zM28 10v6h-28v-6h28zM28 2v6h-28v-6h28z"></path>
</svg>
