<?xml version="1.0" encoding="iso-8859-1"?>
<!-- Generator: Adobe Illustrator 19.0.0, SVG Export Plug-In . SVG Version: 6.00 Build 0)  -->
<svg version="1.1" id="Layer_1" xmlns="http://www.w3.org/2000/svg" xmlns:xlink="http://www.w3.org/1999/xlink" x="0px" y="0px"
	 viewBox="0 0 330 330" style="enable-background:new 0 0 330 330;" xml:space="preserve">
<g id="XMLID_508_">
	<path id="XMLID_509_" d="M164.999,80c-46.866,0-84.995,38.131-84.995,85.001c0,46.869,38.129,84.999,84.995,84.999
		c46.872,0,85.005-38.13,85.005-84.999C250.004,118.131,211.872,80,164.999,80z M164.999,220c-30.324,0-54.995-24.672-54.995-54.999
		c0-30.328,24.671-55.001,54.995-55.001c30.33,0,55.005,24.673,55.005,55.001C220.004,195.328,195.329,220,164.999,220z"/>
	<path id="XMLID_512_" d="M164.999,50c8.284,0,15-6.716,15-15V15c0-8.284-6.716-15-15-15s-15,6.716-15,15v20
		C149.999,43.284,156.715,50,164.999,50z"/>
	<path id="XMLID_515_" d="M164.999,280c-8.284,0-15,6.716-15,15v20c0,8.284,6.716,15,15,15s15-6.716,15-15v-20
		C179.999,286.716,173.284,280,164.999,280z"/>
	<path id="XMLID_516_" d="M314.999,150H295c-8.284,0-15,6.716-15,15s6.716,15,15,15h19.999c8.284,0,15-6.716,15-15
		S323.284,150,314.999,150z"/>
	<path id="XMLID_517_" d="M49.999,165c0-8.284-6.716-15-15-15H15.001c-8.284,0-15,6.716-15,15s6.716,15,15,15h19.998
		C43.283,180,49.999,173.284,49.999,165z"/>
	<path id="XMLID_518_" d="M256.924,88.076c3.839,0,7.679-1.465,10.607-4.394l14.141-14.143c5.857-5.858,5.857-15.356-0.001-21.213
		s-15.356-5.857-21.213,0.001L246.317,62.47c-5.857,5.858-5.857,15.356,0.001,21.213C249.248,86.612,253.085,88.076,256.924,88.076z
		"/>
	<path id="XMLID_519_" d="M62.469,246.317l-14.142,14.142c-5.858,5.858-5.858,15.355,0,21.213c2.929,2.929,6.768,4.393,10.606,4.393
		c3.839,0,7.678-1.464,10.606-4.393l14.142-14.142c5.858-5.858,5.858-15.355,0-21.213C77.825,240.459,68.327,240.459,62.469,246.317
		z"/>
	<path id="XMLID_520_" d="M267.531,246.317c-5.858-5.857-15.356-5.859-21.213-0.001c-5.858,5.857-5.858,15.355-0.001,21.213
		l14.141,14.142c2.929,2.929,6.768,4.393,10.607,4.393c3.838,0,7.678-1.464,10.606-4.393c5.858-5.857,5.858-15.355,0.001-21.213
		L267.531,246.317z"/>
	<path id="XMLID_521_" d="M62.468,83.683c2.929,2.929,6.768,4.394,10.607,4.394c3.838,0,7.678-1.464,10.606-4.393
		c5.858-5.857,5.858-15.355,0-21.213L69.541,48.328c-5.857-5.858-15.355-5.858-21.213,0c-5.858,5.858-5.858,15.355,0,21.213
		L62.468,83.683z"/>
</g>
</svg>
