<?xml version="1.0" encoding="UTF-8" ?>
<!DOCTYPE svg PUBLIC "-//W3C//DTD SVG 1.1//EN" "http://www.w3.org/Graphics/SVG/1.1/DTD/svg11.dtd">
<svg width="48pt" height="48pt" viewBox="0 0 48 48" version="1.1" xmlns="http://www.w3.org/2000/svg">
<g id="#ffffffff">
<path fill="#ffffff" opacity="1.00" d=" M 22.22 0.00 L 25.29 0.00 C 31.45 0.60 38.30 2.67 41.69 8.29 C 43.79 11.42 43.92 15.28 44.02 18.92 C 46.48 20.92 47.69 23.93 48.00 27.03 L 48.00 28.87 C 47.81 32.72 45.78 36.36 42.11 37.84 C 41.67 39.91 41.70 42.49 39.67 43.74 C 36.32 46.08 32.04 45.71 28.17 45.95 C 27.34 46.62 26.51 47.31 25.70 48.00 L 24.32 48.00 C 23.78 47.63 22.70 46.88 22.17 46.51 C 22.28 44.90 22.10 42.63 24.16 42.23 C 25.87 41.64 27.05 43.20 28.24 44.11 C 31.44 44.02 34.83 44.15 37.79 42.76 C 40.04 41.97 39.88 39.23 40.57 37.38 C 39.44 39.77 35.20 41.13 34.31 37.90 C 33.96 31.32 33.95 24.66 34.31 18.08 C 35.13 15.01 39.45 16.04 40.41 18.54 C 39.88 15.39 40.07 11.73 37.73 9.23 C 34.41 5.26 28.98 3.92 24.02 3.87 C 19.03 3.92 13.57 5.26 10.25 9.26 C 7.93 11.76 8.13 15.40 7.58 18.53 C 8.67 16.41 11.91 15.03 13.48 17.42 C 14.33 20.86 13.74 24.47 13.90 27.98 C 13.74 31.50 14.32 35.12 13.49 38.58 C 12.07 40.80 9.31 39.63 7.84 38.15 C 3.16 37.70 0.24 33.66 0.00 29.17 L 0.00 27.25 C 0.26 24.07 1.45 20.97 3.98 18.92 C 4.09 15.28 4.20 11.42 6.31 8.29 C 9.59 2.79 16.23 0.75 22.22 0.00 M 9.88 18.19 C 9.91 24.77 9.89 31.36 9.89 37.95 C 10.42 37.89 11.48 37.76 12.01 37.70 C 12.25 31.20 12.02 24.69 12.12 18.19 C 11.56 18.19 10.44 18.19 9.88 18.19 M 35.88 18.19 C 35.90 24.73 35.90 31.27 35.88 37.82 C 36.44 37.82 37.56 37.81 38.12 37.81 C 38.10 31.27 38.10 24.73 38.12 18.18 C 37.56 18.19 36.44 18.19 35.88 18.19 M 8.10 34.42 C 8.12 30.12 8.09 25.82 8.12 21.51 C 2.26 22.69 2.19 33.30 8.10 34.42 M 39.88 21.51 C 39.91 25.81 39.88 30.12 39.90 34.42 C 45.81 33.30 45.76 22.69 39.88 21.51 M 23.82 45.00 C 24.61 46.52 25.39 46.52 26.18 45.00 C 25.39 43.48 24.61 43.48 23.82 45.00 Z" />
</g>
</svg>
