<?xml version="1.0" encoding="utf-8"?>
<!-- Generator: Adobe Illustrator 22.0.1, SVG Export Plug-In . SVG Version: 6.00 Build 0)  -->
<svg version="1.1" id="Layer_1" xmlns="http://www.w3.org/2000/svg" xmlns:xlink="http://www.w3.org/1999/xlink" x="0px" y="0px"
	 viewBox="0 0 1792 1792" style="enable-background:new 0 0 1792 1792;" xml:space="preserve">
<g>
	<path d="M576,390v67.7l828.3,828.3h3.7c17.3,0,32.3-6.3,45-19s19-27.7,19-45c0-82-26.2-155.8-78.5-221.5S1282,902,1216,902V733
		v-11.5V528.9V477v-87c34.7,0,64.7-12.7,90-38s38-55.3,38-90s-12.7-64.7-38-90s-55.3-38-90-38H576c-34.7,0-64.7,12.7-90,38
		s-38,55.3-38,90s12.7,64.7,38,90S541.3,390,576,390z"/>
	<path d="M576,678.3V902c-66,0-125.2,32.8-177.5,98.5S320,1140,320,1222c0,17.3,6.3,32.3,19,45s27.7,19,45,19h46h28.9h192.6H678h110
		l76,485c3.3,18,14,27,32,27h1c8,0,14.8-2.8,20.5-8.5s9.2-12.5,10.5-20.5l51-483h204.7L576,678.3z"/>
</g>
</svg>
