<?xml version="1.0" encoding="utf-8"?>
<!-- Generator: Adobe Illustrator 22.0.1, SVG Export Plug-In . SVG Version: 6.00 Build 0)  -->
<svg version="1.1" id="Layer_1" xmlns="http://www.w3.org/2000/svg" xmlns:xlink="http://www.w3.org/1999/xlink" x="0px" y="0px"
	 viewBox="0 0 1792 1792" style="enable-background:new 0 0 1792 1792;" xml:space="preserve">
<path d="M1393.5,998.5C1341.2,932.8,1282,900,1216,900V731v-11.5V526.9V475v-87c34.7,0,64.7-12.7,90-38s38-55.3,38-90
	s-12.7-64.7-38-90s-55.3-38-90-38H576c-34.7,0-64.7,12.7-90,38s-38,55.3-38,90s12.7,64.7,38,90s55.3,38,90,38v512
	c-66,0-125.2,32.8-177.5,98.5S320,1138,320,1220c0,17.3,6.3,32.3,19,45s27.7,19,45,19h46h28.9h192.6H678h110l76,485
	c3.3,18,14,27,32,27h1c8,0,14.8-2.8,20.5-8.5s9.2-12.5,10.5-20.5l51-483h429c17.3,0,32.3-6.3,45-19s19-27.7,19-45
	C1472,1138,1445.8,1064.2,1393.5,998.5z M736,420c0-9.3,3-17,9-23s13.7-9,23-9s17,3,23,9s9,13.7,9,23v448c0,9.3-3,17-9,23
	s-13.7,9-23,9s-17-3-23-9s-9-13.7-9-23V420z"/>
</svg>
