<?xml version="1.0" ?>
<svg version="1.1" viewBox="0 0 32 32" xmlns="http://www.w3.org/2000/svg">
    <g fill="none" fill-rule="evenodd" stroke="none" stroke-width="1">
        <g fill="#929292">
            <path d="M20,23.9146472 L20,26.5089948 C20,26.7801695 20.2319336,27 20.5,27 C20.7761424,27 21,26.7721195 21,26.5089948 L21,23.9146472 C21.5825962,23.708729 22,23.1531095 22,22.5 C22,21.6715728 21.3284272,21 20.5,21 C19.6715728,21 19,21.6715728 19,22.5 C19,23.1531095 19.4174038,23.708729 20,23.9146472 L20,23.9146472 L20,23.9146472 Z M13,8.49991749 C13,6.01468168 10.9802243,4 8.5,4 C6.01471863,4 4,6.01688111 4,8.49991749 L4,10 L4,12.4991673 C4,13.3214545 3.32842712,14 2.5,14 C1.66579723,14 1,13.3280543 1,12.4991673 L1,10 L1,8.499235 C1,4.35670485 4.35786438,1 8.5,1 C12.6337072,1 16,4.35752188 16,8.499235 L16,16 L27.991212,16 C29.6544098,16 31,17.347389 31,19.0094776 L31,28.9905224 C31,30.6633689 29.6529197,32 27.991212,32 L13.008788,32 C11.3455902,32 10,30.652611 10,28.9905224 L10,19.0094776 C10,17.339581 11.3423335,16.0047152 13,16.0000125 L13,8.49991749 L13,8.49991749 Z"/>
        </g>
    </g>
</svg>
