<?xml version="1.0" encoding="iso-8859-1"?>
<!-- Generator: Adobe Illustrator 19.0.0, SVG Export Plug-In . SVG Version: 6.00 Build 0)  -->
<svg version="1.1" id="Layer_1" xmlns="http://www.w3.org/2000/svg" xmlns:xlink="http://www.w3.org/1999/xlink" x="0px" y="0px"
	 viewBox="0 0 512 512" style="enable-background:new 0 0 512 512;" xml:space="preserve">
<g>
	<g>
		<path d="M470,320H338c-2.212,0-4,1.792-4,4v56c0,2.208,1.788,4,4,4h132c2.212,0,4-1.792,4-4v-56C474,321.792,472.212,320,470,320z
			 M371.4,367.768c-8.836,0-16-7.168-16-16c0-8.836,7.164-16,16-16s16,7.164,16,16C387.4,360.6,380.236,367.768,371.4,367.768z"/>
	</g>
</g>
<g>
	<g>
		<path d="M406,408v43.96c0,11.028-6.844,20.04-17.868,20.04h-249.5H118.6H60.24c-0.024,0-1.072-0.028-1.096-0.028
			C51.892,471.96,46,462.384,38,459.248v8.96C38,488.06,56.196,512,76.048,512h37.22h12.148h294.516
			c19.852,0,34.072-16.192,34.072-36.044V408H406z"/>
	</g>
</g>
<g>
	<g>
		<path d="M339.4,296h43.832l0.168-48H95.712c-35.492,0-36.54-0.184-36.568-0.184C51.892,247.804,46,245.82,38,242.684v175.548
			c0,0.648,1.224,1.324,1.224,1.996c0,11.032,9.996,27.772,21.02,27.772c0.016,0,0.028,0,0.04,0H382v-40h-42.6
			c-15.44,0-29.4-12.916-29.4-28.356v-55.748C310,308.456,323.956,296,339.4,296z"/>
	</g>
</g>
<g>
	<g>
		<path d="M347.28,109L259.14,1.464C258.384,0.54,257.252,0,256.048,0c-1.196,0-2.332,0.596-3.096,1.524l-88.128,107.592
			c-0.976,1.192-1.18,2.96-0.52,4.36c0.66,1.4,2.064,2.524,3.612,2.524H198v91.5c0,2.212,4.144,4.5,6.352,4.5h103.896
			c2.212,0,1.752-2.288,1.752-4.5V116h34.188c1.548,0,2.952-1.128,3.612-2.524C348.46,112.08,348.256,110.192,347.28,109z"/>
	</g>
</g>
<g>
	<g>
		<path d="M347.28,109.296L346.172,108H165.928l-1.108,1.18c-0.976,1.188-1.18,2.992-0.52,4.388c0.66,1.396,2.068,2.432,3.616,2.432
			H198v16h112v-16h34.188c1.548,0,2.952-1.124,3.612-2.524C348.46,112.076,348.256,110.484,347.28,109.296z"/>
	</g>
</g>
<g>
	<g>
		<path d="M310,207.5V176H198v31.5c0,2.212,4.144,4.5,6.352,4.5h103.9C310.46,212,310,209.712,310,207.5z"/>
	</g>
</g>
<g>
	<g>
		<path d="M422,177.352v-25.708c0-24.26-17.804-43.644-42.072-43.644h-8.068c0.748,4,0.004,10.848-2.372,15.868
			c-1.468,3.108-3.532,4.132-5.944,8.132h16.388C390.96,132,398,140.616,398,151.644V176h-64v31.5c0,6.016,0.328,12.5-2.916,16.5
			h57.048c11.024,0,17.868,8.62,17.868,19.648V296h48v-76.356C454,199.548,442,182.588,422,177.352z"/>
	</g>
</g>
<g>
	<g>
		<path d="M174,207.5V176H84.056C73.032,176,62,166.672,62,155.644v-4C62,140.616,73.032,132,84.056,132h64.504
			c-2.416-4-4.476-5.024-5.948-8.132c-2.376-5.02-3.12-11.868-2.372-15.868H84.056C59.796,108,38,127.384,38,151.644v50.14
			c0,0.608,1.216,1.404,1.216,2.036c0,11.032,10.004,20.18,21.028,20.18c0.016,0,0.028,0,0.04,0h121.24
			C178.28,220,174,213.516,174,207.5z"/>
	</g>
</g>
<g>
</g>
<g>
</g>
<g>
</g>
<g>
</g>
<g>
</g>
<g>
</g>
<g>
</g>
<g>
</g>
<g>
</g>
<g>
</g>
<g>
</g>
<g>
</g>
<g>
</g>
<g>
</g>
<g>
</g>
</svg>
