<?xml version="1.0" encoding="UTF-8" standalone="no"?>
<svg width="42px" height="41px" viewBox="0 0 42 41" version="1.1" xmlns="http://www.w3.org/2000/svg" xmlns:xlink="http://www.w3.org/1999/xlink" xmlns:sketch="http://www.bohemiancoding.com/sketch/ns">
    <!-- Generator: Sketch 3.3.2 (12043) - http://www.bohemiancoding.com/sketch -->
    <title>Fill 86</title>
    <desc>Created with Sketch.</desc>
    <defs></defs>
    <g id="Page-1" stroke="none" stroke-width="1" fill="none" fill-rule="evenodd" sketch:type="MSPage">
        <g id="outline" sketch:type="MSLayerGroup" transform="translate(-497.000000, -702.000000)" fill="#5B5B58">
            <path d="M529.036,711.331 C530.691,711.331 532.037,709.984 532.037,708.329 C532.037,706.674 530.691,705.327 529.036,705.327 C527.382,705.327 526.035,706.674 526.035,708.329 C526.035,709.984 527.382,711.331 529.036,711.331 L529.036,711.331 Z M529.036,706.827 C529.863,706.827 530.537,707.501 530.537,708.329 C530.537,709.157 529.863,709.831 529.036,709.831 C528.209,709.831 527.535,709.157 527.535,708.329 C527.535,707.501 528.209,706.827 529.036,706.827 L529.036,706.827 Z M521.504,709.059 C523.605,711.572 525.592,713.946 529.036,713.946 C532.479,713.946 534.97,711.003 536.617,709.056 L536.777,708.867 C537.002,708.602 537.016,708.216 536.808,707.935 C535.007,705.504 532.495,702.712 529.036,702.712 C526.146,702.712 523.932,704.677 521.292,707.848 C521.06,708.126 521.061,708.531 521.295,708.809 L521.504,709.059 L521.504,709.059 Z M529.036,704.212 C531.623,704.212 533.689,706.333 535.245,708.354 C533.711,710.162 531.652,712.446 529.036,712.446 C526.382,712.446 524.791,710.647 522.848,708.328 C525.077,705.713 526.852,704.212 529.036,704.212 L529.036,704.212 Z M538.971,741.315 C538.675,740.03 537.247,734.565 536.096,733.044 C534.363,730.184 530.771,730.537 530.699,730.552 L527.921,730.552 C527.799,730.552 524.877,730.476 523.167,732.934 C522.908,733.304 522.624,733.922 522.296,734.825 C522.281,734.865 522.285,734.905 522.278,734.946 C521.467,732.359 520.512,729.776 519.697,728.712 C517.246,724.636 512.115,725.147 511.979,725.167 L507.837,725.167 C507.655,725.164 503.516,725.055 501.088,728.547 C499.742,730.477 497.782,737.825 497.094,740.881 C497.003,741.285 497.256,741.686 497.661,741.777 C498.063,741.872 498.466,741.615 498.557,741.211 C499.277,738.013 501.181,731.037 502.319,729.404 C504.271,726.596 507.752,726.674 507.81,726.667 L512.06,726.663 C512.102,726.659 516.488,726.237 518.432,729.518 C518.449,729.547 518.469,729.575 518.489,729.602 C519.693,731.122 521.709,737.97 522.453,741.214 C522.532,741.56 522.841,741.796 523.184,741.796 C523.238,741.796 523.295,741.79 523.352,741.777 C523.755,741.685 524.008,741.282 523.914,740.878 C523.662,739.779 523.134,737.748 522.49,735.63 C522.561,735.696 522.646,735.751 522.745,735.786 C523.133,735.926 523.564,735.727 523.706,735.337 C524.071,734.33 524.296,733.936 524.398,733.791 C525.633,732.016 527.784,732.057 527.894,732.052 L530.78,732.047 C530.808,732.046 533.596,731.766 534.83,733.851 C534.848,733.879 534.866,733.907 534.888,733.934 C535.673,734.925 537.012,739.484 537.508,741.651 C537.588,741.998 537.896,742.233 538.238,742.233 C538.294,742.233 538.351,742.227 538.406,742.215 C538.81,742.122 539.062,741.72 538.971,741.315 L538.971,741.315 Z M529.358,717.091 C525.734,717.091 522.787,720.039 522.787,723.663 C522.787,727.287 525.734,730.235 529.358,730.235 C532.983,730.235 535.933,727.287 535.933,723.663 C535.933,720.039 532.983,717.091 529.358,717.091 L529.358,717.091 Z M529.358,728.735 C526.562,728.735 524.287,726.46 524.287,723.663 C524.287,720.866 526.562,718.591 529.358,718.591 C532.156,718.591 534.433,720.866 534.433,723.663 C534.433,726.46 532.156,728.735 529.358,728.735 L529.358,728.735 Z M509.986,723.966 C515.172,723.966 519.39,719.748 519.39,714.563 C519.39,709.38 515.172,705.163 509.986,705.163 C504.803,705.163 500.586,709.38 500.586,714.563 C500.586,719.748 504.803,723.966 509.986,723.966 L509.986,723.966 Z M509.986,706.663 C514.344,706.663 517.89,710.207 517.89,714.563 C517.89,718.921 514.344,722.466 509.986,722.466 C505.63,722.466 502.086,718.921 502.086,714.563 C502.086,710.207 505.63,706.663 509.986,706.663 L509.986,706.663 Z" id="Fill-86" sketch:type="MSShapeGroup"></path>
        </g>
    </g>
</svg>