<svg width="56" height="51" viewBox="0 0 56 51" fill="none" xmlns="http://www.w3.org/2000/svg">
	<path fill-rule="evenodd" clip-rule="evenodd" d="M0 0H30L42 12V51H0V0Z" fill="#7A1638"/>
	<path fill-rule="evenodd" clip-rule="evenodd" d="M0 12V0L12 12H0Z" transform="translate(30)" fill="#FF276D"/>
	<path fill-rule="evenodd" clip-rule="evenodd" d="M0 0H28V17H0V0Z" transform="translate(28 27)" fill="#FF276D"/>
	<path d="M4.01953 6.47266C4.86328 6.47266 5.51758 6.76172 5.98242 7.33984C6.45117 7.91406 6.68555 8.72852 6.68555 9.7832C6.68555 10.8379 6.44922 11.6582 5.97656 12.2441C5.50781 12.8262 4.85547 13.1172 4.01953 13.1172C3.60156 13.1172 3.21875 13.041 2.87109 12.8887C2.52734 12.7324 2.23828 12.4941 2.00391 12.1738H1.93359L1.72852 13H1.03125V3.88281H2.00391V6.09766C2.00391 6.59375 1.98828 7.03906 1.95703 7.43359H2.00391C2.45703 6.79297 3.12891 6.47266 4.01953 6.47266ZM3.87891 7.28711C3.21484 7.28711 2.73633 7.47852 2.44336 7.86133C2.15039 8.24023 2.00391 8.88086 2.00391 9.7832C2.00391 10.6855 2.1543 11.332 2.45508 11.7227C2.75586 12.1094 3.23828 12.3027 3.90234 12.3027C4.5 12.3027 4.94531 12.0859 5.23828 11.6523C5.53125 11.2148 5.67773 10.5879 5.67773 9.77148C5.67773 8.93555 5.53125 8.3125 5.23828 7.90234C4.94531 7.49219 4.49219 7.28711 3.87891 7.28711ZM9.36328 13H8.39062V6.57812H9.36328V13ZM8.30859 4.83789C8.30859 4.61523 8.36328 4.45312 8.47266 4.35156C8.58203 4.24609 8.71875 4.19336 8.88281 4.19336C9.03906 4.19336 9.17383 4.24609 9.28711 4.35156C9.40039 4.45703 9.45703 4.61914 9.45703 4.83789C9.45703 5.05664 9.40039 5.2207 9.28711 5.33008C9.17383 5.43555 9.03906 5.48828 8.88281 5.48828C8.71875 5.48828 8.58203 5.43555 8.47266 5.33008C8.36328 5.2207 8.30859 5.05664 8.30859 4.83789ZM15.8203 13V8.8457C15.8203 8.32227 15.7012 7.93164 15.4629 7.67383C15.2246 7.41602 14.8516 7.28711 14.3438 7.28711C13.6719 7.28711 13.1797 7.46875 12.8672 7.83203C12.5547 8.19531 12.3984 8.79492 12.3984 9.63086V13H11.4258V6.57812H12.2168L12.375 7.45703H12.4219C12.6211 7.14062 12.9004 6.89648 13.2598 6.72461C13.6191 6.54883 14.0195 6.46094 14.4609 6.46094C15.2344 6.46094 15.8164 6.64844 16.207 7.02344C16.5977 7.39453 16.793 7.99023 16.793 8.81055V13H15.8203Z" transform="translate(33 26.8)" fill="#1E2230"/>
</svg>
